<svg width="32" height="32" viewBox="0 0 32 32" fill="none" xmlns="http://www.w3.org/2000/svg">
<g clip-path="url(#clip0_882_3846)">
<path fill-rule="evenodd" clip-rule="evenodd" d="M12.1333 12.1332V9.33322C12.1333 5.01722 15.684 1.46655 20 1.46655H24C24.6626 1.46655 25.2 2.00389 25.2 2.66655V7.99989C25.2 8.66255 24.6626 9.19989 24 9.19989H20C19.9266 9.19989 19.8666 9.25989 19.8666 9.33322V12.1332H24C24.3693 12.1332 24.7186 12.3039 24.9453 12.5946C25.1733 12.8866 25.2533 13.2652 25.164 13.6239L23.8306 18.9572C23.6973 19.4919 23.2173 19.8666 22.6666 19.8666H19.8666V29.3332C19.8666 29.9959 19.3293 30.5332 18.6666 30.5332H13.3333C12.6706 30.5332 12.1333 29.9959 12.1333 29.3332V19.8666H9.3333C8.67063 19.8666 8.1333 19.3292 8.1333 18.6666V13.3332C8.1333 12.6706 8.67063 12.1332 9.3333 12.1332H12.1333ZM22.8 3.86655H20C17.0013 3.86655 14.5333 6.33455 14.5333 9.33322V13.3332C14.5333 13.9959 13.996 14.5332 13.3333 14.5332H10.5333V17.4666H13.3333C13.996 17.4666 14.5333 18.0039 14.5333 18.6666V28.1332H17.4666V18.6666C17.4666 18.0039 18.004 17.4666 18.6666 17.4666H21.7293L22.4626 14.5332H18.6666C18.004 14.5332 17.4666 13.9959 17.4666 13.3332V9.33322C17.4666 7.94389 18.6106 6.79989 20 6.79989H22.8V3.86655Z" fill="#79F0B4" stroke="#79F0B4" stroke-width="0.2"/>
</g>
<defs>
<clipPath id="clip0_882_3846">
<rect width="32" height="32" fill="white"/>
</clipPath>
</defs>
</svg>
