<svg width="32" height="32" viewBox="0 0 32 32" fill="none" xmlns="http://www.w3.org/2000/svg">
<path fill-rule="evenodd" clip-rule="evenodd" d="M30.5333 9.33346C30.5333 4.99212 27.008 1.4668 22.6667 1.4668H9.33334C4.99201 1.4668 1.46667 4.99212 1.46667 9.33346V22.6668C1.46667 27.0081 4.99201 30.5334 9.33334 30.5334H22.6667C27.008 30.5334 30.5333 27.0081 30.5333 22.6668V9.33346ZM28.1333 9.33346V22.6668C28.1333 25.6841 25.684 28.1335 22.6667 28.1335H9.33334C6.31601 28.1335 3.86668 25.6841 3.86668 22.6668V9.33346C3.86668 6.31612 6.31601 3.86678 9.33334 3.86678H22.6667C25.684 3.86678 28.1333 6.31612 28.1333 9.33346ZM22.52 14.9841C22.1 12.1455 19.8547 9.90012 17.016 9.48012C16.6987 9.43212 16.3787 9.40946 16.0573 9.40946C12.4733 9.40946 9.52401 12.3588 9.52401 15.9428C9.52401 19.5268 12.4733 22.4761 16.0573 22.4761C19.6413 22.4761 22.5907 19.5268 22.5907 15.9428C22.5907 15.6215 22.568 15.3015 22.52 14.9841ZM20.1467 15.3361C20.176 15.5375 20.1907 15.7401 20.1907 15.9428C20.1907 18.2095 18.3253 20.0761 16.0573 20.0761C13.7907 20.0761 11.924 18.2095 11.924 15.9428C11.924 13.6748 13.7907 11.8094 16.0573 11.8094C16.26 11.8094 16.4627 11.8241 16.664 11.8535C18.46 12.1201 19.88 13.5401 20.1467 15.3361ZM23.3333 7.4668C23.996 7.4668 24.5333 8.00412 24.5333 8.66679C24.5333 9.32946 23.996 9.86678 23.3333 9.86678C22.6707 9.86678 22.1333 9.32946 22.1333 8.66679C22.1333 8.00412 22.6707 7.4668 23.3333 7.4668Z" fill="#79F0B4" stroke="#79F0B4" stroke-width="0.2"/>
</svg>
