<svg width="1440" height="533" viewBox="0 0 1440 533" fill="none" xmlns="http://www.w3.org/2000/svg">
<mask id="mask0_882_3829" style="mask-type:alpha" maskUnits="userSpaceOnUse" x="0" y="0" width="1566" height="534">
<path d="M1441 75.9201C1161.5 -59.5793 299 15.7531 0 75.9198V533.42H1441C1441 533.42 1720.5 211.42 1441 75.9201Z" fill="#0E2829"/>
</mask>
<g mask="url(#mask0_882_3829)">
<path opacity="0.05" d="M13.4454 -110.252C14.4987 -110.252 15.4688 -110.03 16.3834 -109.698L75.2258 -211.644L27.4701 -294.381C26.5554 -294.049 25.5576 -293.827 24.5321 -293.827C20.3469 -293.827 16.91 -296.876 16.2449 -300.867H-105.708C-106.373 -296.876 -109.81 -293.827 -113.995 -293.827C-118.652 -293.827 -122.421 -297.597 -122.421 -302.253C-122.421 -304.859 -121.202 -307.187 -119.317 -308.739L-180.072 -413.984C-180.987 -413.651 -181.984 -413.429 -183.01 -413.429C-187.666 -413.429 -191.436 -417.199 -191.436 -421.856C-191.436 -426.512 -187.666 -430.282 -183.01 -430.282C-181.957 -430.282 -180.987 -430.06 -180.072 -429.728L-152.577 -477.347L-200 -558.726L-197.616 -560.112L-150.969 -480.119L-119.289 -534.972C-121.174 -536.524 -122.394 -538.825 -122.394 -541.458C-122.394 -544.091 -121.091 -546.586 -119.068 -548.11L-135.836 -579.598L-133.397 -580.901L-116.629 -549.413C-115.797 -549.69 -114.91 -549.884 -113.968 -549.884C-109.783 -549.884 -106.346 -546.835 -105.681 -542.844H17.5199C19.0166 -545.117 21.6218 -546.641 24.5598 -546.641C24.837 -546.641 25.0865 -546.586 25.3638 -546.558L44.405 -580.928L46.8441 -579.598L28.163 -545.838C31.0455 -544.479 33.0411 -541.597 33.0411 -538.215C33.0411 -536.053 32.2097 -534.113 30.8793 -532.616L90.276 -429.755C91.1907 -430.088 92.1884 -430.31 93.2139 -430.31C97.3992 -430.31 100.836 -427.261 101.501 -423.269H118.879L219.075 -596.838C217.024 -598.363 215.666 -600.802 215.666 -603.574C215.666 -608.23 219.435 -612 224.092 -612C228.277 -612 231.742 -608.923 232.379 -604.904H447.599C448.236 -608.923 451.701 -612 455.886 -612C460.542 -612 464.312 -608.23 464.312 -603.574C464.312 -600.941 463.092 -598.64 461.207 -597.088L563.454 -419.999H637.762C638.427 -423.99 641.864 -427.039 646.049 -427.039C646.382 -427.039 646.687 -426.984 647.02 -426.928L707.442 -531.563C705.474 -533.115 704.171 -535.471 704.171 -538.187C704.171 -542.844 707.941 -546.614 712.597 -546.614C716.782 -546.614 720.219 -543.565 720.884 -539.573H842.92C843.586 -543.565 847.023 -546.614 851.208 -546.614C855.393 -546.614 858.553 -543.814 859.412 -540.072L892.201 -596.866C890.233 -598.418 888.93 -600.774 888.93 -603.491C888.93 -608.147 892.7 -611.917 897.356 -611.917C901.541 -611.917 904.978 -608.868 905.643 -604.877H1121.61C1122.28 -608.868 1125.71 -611.917 1129.9 -611.917C1134.55 -611.917 1138.32 -608.147 1138.32 -603.491C1138.32 -600.58 1136.86 -598.03 1134.64 -596.506L1241.49 -411.462C1241.65 -411.462 1241.79 -411.517 1241.96 -411.517C1246.14 -411.517 1249.58 -408.468 1250.24 -404.477H1474V-401.705H1250.24C1249.58 -397.713 1246.14 -394.665 1241.96 -394.665C1241.79 -394.665 1241.65 -394.692 1241.49 -394.72L1134.64 -209.676C1136.88 -208.151 1138.35 -205.601 1138.35 -202.691C1138.35 -199.143 1136.13 -196.094 1133.03 -194.874L1185.91 -103.267H1408.73V-100.495H1187.49L1210.17 -61.219H1257.2C1257.87 -65.2104 1261.3 -68.2593 1265.49 -68.2593C1270.14 -68.2593 1273.91 -64.4897 1273.91 -59.8331C1273.91 -57.2277 1272.69 -54.8994 1270.81 -53.3472L1299.5 -3.64905H1474V-0.877258H1301.13L1331.62 51.8975C1332.53 51.5648 1333.53 51.3431 1334.56 51.3431C1338.74 51.3431 1342.18 54.392 1342.85 58.3834H1408.73V61.1552H1342.85C1342.18 65.1465 1338.74 68.1956 1334.56 68.1956C1333.5 68.1956 1332.53 67.9738 1331.62 67.6412L1270.86 172.886C1272.75 174.438 1273.97 176.738 1273.97 179.372C1273.97 182.005 1272.75 184.305 1270.86 185.858L1331.62 291.102C1332.53 290.77 1333.53 290.548 1334.56 290.548C1338.74 290.548 1342.18 293.597 1342.85 297.588H1408.73V300.36H1342.85C1342.18 304.351 1338.74 307.4 1334.56 307.4C1333.5 307.4 1332.53 307.179 1331.62 306.846L1270.86 412.091C1272.75 413.643 1273.97 415.943 1273.97 418.577C1273.97 421.21 1272.81 423.427 1270.98 424.952L1331.48 525.678C1332.45 525.29 1333.48 525.068 1334.56 525.068C1338.69 525.068 1342.1 528.034 1342.85 531.943L1408.73 530.612L1408.78 533.384L1342.9 534.714C1342.32 538.789 1338.83 541.921 1334.59 541.921C1333.56 541.921 1332.56 541.699 1331.65 541.367L1266.74 654.234L1264.32 652.848L1329.24 539.953C1327.35 538.401 1326.13 536.1 1326.13 533.467C1326.13 530.834 1327.3 528.616 1329.13 527.092L1268.62 426.365C1267.65 426.753 1266.62 426.975 1265.54 426.975C1261.36 426.975 1257.92 423.926 1257.26 419.935H1135.22C1134.55 423.926 1131.12 426.975 1126.93 426.975C1122.28 426.975 1118.51 423.205 1118.51 418.549C1118.51 415.777 1119.86 413.31 1121.94 411.786L1114.71 399.257L1061.44 491.53C1064.6 492.749 1066.84 495.798 1066.84 499.374C1066.84 502.95 1064.6 505.999 1061.44 507.218L1168.45 692.595C1169.73 691.819 1171.2 691.348 1172.8 691.348C1176.99 691.348 1180.43 694.397 1181.09 698.388H1405.46V701.16H1181.04C1180.37 705.151 1176.93 708.2 1172.75 708.2C1172.11 708.2 1171.5 708.117 1170.92 707.978L1063.71 893.688C1065.6 895.24 1066.82 897.541 1066.82 900.174C1066.82 902.807 1065.6 905.108 1063.71 906.66L1170.92 1092.37C1171.5 1092.23 1172.14 1092.15 1172.75 1092.15C1177.4 1092.15 1181.17 1095.92 1181.17 1100.57C1181.17 1105.23 1177.4 1109 1172.75 1109C1168.09 1109 1164.32 1105.23 1164.32 1100.57C1164.32 1097.55 1165.93 1094.92 1168.34 1093.42L1061.3 908.046C1060.39 908.378 1059.39 908.6 1058.36 908.6C1053.71 908.6 1049.94 904.83 1049.94 900.174C1049.94 895.517 1053.71 891.748 1058.36 891.748C1059.41 891.748 1060.39 891.969 1061.3 892.302L1168.34 706.925C1165.96 705.428 1164.32 702.795 1164.32 699.774C1164.32 697.723 1165.07 695.893 1166.29 694.424L1058.53 507.773C1058.53 507.773 1058.42 507.773 1058.36 507.773C1054.18 507.773 1050.74 504.724 1050.07 500.732H831.28C830.614 504.724 827.177 507.773 822.992 507.773C822.216 507.773 821.496 507.634 820.803 507.44L709.382 700.439L706.971 699.053L818.253 506.303C816.035 504.779 814.566 502.229 814.566 499.346C814.566 496.464 816.035 493.886 818.253 492.389L711.128 306.818C710.213 307.151 709.216 307.373 708.19 307.373C704.005 307.373 700.568 304.324 699.903 300.332H483.048C482.383 304.324 478.946 307.373 474.761 307.373C474.206 307.373 473.652 307.317 473.126 307.206L366.389 492.112C368.883 493.581 370.574 496.27 370.574 499.374C370.574 504.031 366.805 507.8 362.148 507.8C357.963 507.8 354.526 504.751 353.861 500.76H135.066C134.401 504.751 130.964 507.8 126.779 507.8C122.122 507.8 118.353 504.031 118.353 499.374C118.353 495.992 120.349 493.11 123.203 491.752L16.4388 306.818C15.5242 307.151 14.5265 307.373 13.501 307.373C9.31567 307.373 5.87891 304.324 5.21362 300.332H-198.781V297.561H5.21362C5.87891 293.569 9.31567 290.52 13.501 290.52C14.5542 290.52 15.5242 290.742 16.4388 291.075L123.203 106.141C120.349 104.783 118.325 101.9 118.325 98.5188C118.325 95.1372 120.321 92.2546 123.176 90.8964L16.4111 -94.0369C15.4965 -93.7043 14.4987 -93.4825 13.4731 -93.4825C9.28796 -93.4825 5.8512 -96.5316 5.18591 -100.523H-198.808V-103.295H5.18591C5.8512 -107.286 9.28796 -110.335 13.4731 -110.335L13.4454 -110.252ZM76.8334 -214.388L123.148 -294.603C120.293 -295.961 118.27 -298.844 118.27 -302.226C118.27 -306.882 122.039 -310.652 126.696 -310.652C130.881 -310.652 134.318 -307.603 134.983 -303.611H164.556L111.701 -395.163C110.786 -394.831 109.788 -394.609 108.763 -394.609C104.578 -394.609 101.141 -397.658 100.476 -401.649H83.5408L29.8813 -308.684C31.7661 -307.132 32.9858 -304.831 32.9858 -302.198C32.9858 -299.565 31.7661 -297.264 29.8813 -295.712L76.8611 -214.36L76.8334 -214.388ZM93.1307 -191.049C97.316 -191.049 100.753 -188 101.418 -184.009H224.175C224.84 -188 228.277 -191.049 232.462 -191.049C232.684 -191.049 232.878 -190.994 233.072 -190.994L239.003 -201.249H232.324C231.658 -197.258 228.221 -194.209 224.036 -194.209C219.38 -194.209 215.61 -197.979 215.61 -202.635C215.61 -205.379 216.941 -207.819 218.992 -209.371L166.192 -300.84H135.01C134.345 -296.848 130.908 -293.799 126.723 -293.799C126.446 -293.799 126.197 -293.855 125.919 -293.882L78.4409 -211.644L90.5531 -190.634C91.3568 -190.883 92.2162 -191.077 93.1307 -191.077V-191.049ZM298.511 -71.4469C302.696 -71.4469 306.133 -68.3979 306.798 -64.4066H428.585C429.25 -68.3979 432.687 -71.4469 436.872 -71.4469C437.953 -71.4469 438.951 -71.2252 439.893 -70.8648L466.196 -116.405L417.221 -201.222H243.992L237.229 -189.525C239.419 -188 240.86 -185.478 240.86 -182.595C240.86 -179.158 238.809 -176.22 235.844 -174.89L295.85 -70.948C296.682 -71.2252 297.568 -71.4192 298.483 -71.4192L298.511 -71.4469ZM482.993 297.644H699.847C700.513 293.652 703.949 290.603 708.135 290.603C709.188 290.603 710.158 290.825 711.073 291.158L818.197 105.587C815.98 104.062 814.511 101.512 814.511 98.6296C814.511 95.7469 815.98 93.1693 818.197 91.6725L729.698 -61.6071H720.857C720.191 -57.6157 716.754 -54.5668 712.569 -54.5668C707.913 -54.5668 704.143 -58.3364 704.143 -62.9929C704.143 -65.6816 705.446 -68.0653 707.414 -69.6175L689.648 -100.384H484.545C483.88 -96.3929 480.443 -93.3439 476.257 -93.3439C475.786 -93.3439 475.343 -93.3994 474.927 -93.4825L367.636 92.3378C369.521 93.89 370.713 96.1905 370.713 98.8237C370.713 101.457 369.548 103.619 367.775 105.171L474.844 290.631C478.974 290.714 482.327 293.708 482.993 297.671V297.644ZM1050.27 97.2438C1050.99 93.3911 1054.34 90.4529 1058.42 90.3975L1066.4 76.5663L1061.33 67.7797C1060.44 68.1124 1059.5 68.3064 1058.47 68.3064C1054.29 68.3064 1050.85 65.2574 1050.19 61.2661H928.149C927.484 65.2574 924.047 68.3064 919.862 68.3064C915.205 68.3064 911.436 64.5368 911.436 59.8802C911.436 57.3024 912.628 55.0296 914.457 53.4774L852.039 -54.6221C851.762 -54.5944 851.485 -54.539 851.208 -54.539C847.023 -54.539 843.586 -57.588 842.92 -61.5793H734.327L822.022 90.342C822.355 90.3143 822.66 90.2589 822.992 90.2589C827.177 90.2589 830.614 93.3079 831.28 97.2993H1050.3L1050.27 97.2438ZM1121.89 172.692L1067.98 79.3381L1061.3 90.8964C1064.57 92.0606 1066.95 95.1372 1066.95 98.8237C1066.95 102.51 1064.68 105.476 1061.49 106.695L1114.65 198.747L1121.89 186.218C1119.81 184.693 1118.45 182.227 1118.45 179.455C1118.45 176.683 1119.81 174.216 1121.89 172.692ZM1165.62 -108.256L1111.97 -201.222H1072.3L1063.46 -186.143C1065.57 -184.619 1066.93 -182.152 1066.93 -179.352C1066.93 -176.553 1065.54 -174.058 1063.41 -172.534L1123.97 -67.6495C1124.88 -67.9822 1125.88 -68.2039 1126.9 -68.2039C1131.09 -68.2039 1134.53 -65.1549 1135.19 -61.1636H1145.89L1165.62 -95.3397C1163.74 -96.8918 1162.52 -99.1924 1162.52 -101.826C1162.52 -104.459 1163.74 -106.759 1165.62 -108.312V-108.256ZM1057.84 -293.772C1053.65 -293.772 1050.21 -296.821 1049.55 -300.812H859.495C859.135 -298.678 857.998 -296.848 856.363 -295.573L909.246 -203.994H1070.7L1090.68 -238.059L1058.47 -293.827C1058.25 -293.827 1058.06 -293.772 1057.84 -293.772ZM914.596 -425.099L855.393 -527.627L787.21 -409.521C789.095 -407.969 790.314 -405.668 790.314 -403.035C790.314 -400.402 789.095 -398.102 787.21 -396.549L840.87 -303.584H842.865C843.53 -307.575 846.967 -310.624 851.152 -310.624C852.704 -310.624 854.118 -310.181 855.365 -309.46L914.568 -411.988C912.656 -413.54 911.38 -415.869 911.38 -418.53C911.38 -421.19 912.628 -423.519 914.54 -425.071L914.596 -425.099ZM657.524 -401.649L710.269 -310.291C711.017 -310.513 711.766 -310.652 712.569 -310.652C716.754 -310.652 720.191 -307.603 720.857 -303.611H837.682L784.826 -395.163C783.912 -394.831 782.914 -394.609 781.888 -394.609C777.703 -394.609 774.266 -397.658 773.601 -401.649H657.524ZM579.862 -401.649C579.197 -397.658 575.76 -394.609 571.575 -394.609C570.522 -394.609 569.552 -394.831 568.637 -395.163L476.867 -236.202L504.833 -187.751C505 -187.751 505.138 -187.806 505.304 -187.806C509.49 -187.806 512.927 -184.757 513.592 -180.766H637.734C638.344 -184.452 641.365 -187.307 645.107 -187.723L707.386 -295.629C705.418 -297.181 704.116 -299.537 704.116 -302.253C704.116 -304.36 704.919 -306.245 706.167 -307.714L651.925 -401.705H579.862V-401.649ZM513.592 -417.171C512.927 -413.18 509.49 -410.131 505.304 -410.131C505.138 -410.131 505 -410.159 504.833 -410.186L444.522 -305.746C445.021 -304.665 445.298 -303.501 445.298 -302.226C445.298 -299.676 444.162 -297.43 442.388 -295.906L475.232 -239.001L566.198 -396.577C564.313 -398.129 563.094 -400.43 563.094 -403.063C563.094 -405.696 564.313 -407.997 566.198 -409.549L561.791 -417.199H513.564L513.592 -417.171ZM362.952 -300.84L418.856 -204.021H447.571C448.236 -208.013 451.673 -211.062 455.858 -211.062C456.911 -211.062 457.909 -210.84 458.824 -210.507L473.569 -236.063L439.893 -294.381C438.951 -294.021 437.953 -293.799 436.872 -293.799C432.687 -293.799 429.25 -296.848 428.585 -300.84H362.924H362.952ZM306.798 -300.84C306.133 -296.848 302.696 -293.799 298.511 -293.799C298.151 -293.799 297.818 -293.855 297.485 -293.91L245.6 -204.049H415.641L359.737 -300.867H306.798V-300.84ZM232.434 -413.402C228.249 -413.402 224.812 -416.451 224.147 -420.442H120.376L114.084 -409.521C115.969 -407.969 117.189 -405.668 117.189 -403.035C117.189 -400.402 115.969 -398.102 114.084 -396.549L167.744 -303.584H290.196C290.639 -306.272 292.358 -308.517 294.741 -309.709L234.707 -413.707C233.987 -413.513 233.238 -413.346 232.434 -413.346V-413.402ZM224.009 -211.089C228.194 -211.089 231.631 -208.04 232.296 -204.049H240.583L293.411 -295.573C291.748 -296.848 290.556 -298.705 290.196 -300.867H169.351L221.431 -210.646C222.235 -210.895 223.094 -211.089 224.009 -211.089ZM712.569 -71.4746C716.754 -71.4746 720.191 -68.4257 720.857 -64.4343H728.118L711.073 -93.9537C710.158 -93.6212 709.16 -93.3994 708.135 -93.3994C703.949 -93.3994 700.513 -96.4484 699.847 -100.44H692.863L709.853 -70.9757C710.712 -71.2806 711.627 -71.4746 712.569 -71.4746ZM842.893 -64.4343C843.558 -68.4257 846.995 -71.4746 851.18 -71.4746C852.15 -71.4746 853.037 -71.2806 853.896 -70.9757L913.376 -174.003C912.157 -175.472 911.408 -177.329 911.408 -179.352C911.408 -182.595 913.265 -185.367 915.954 -186.781L907.611 -201.222H905.615C904.95 -197.23 901.513 -194.181 897.328 -194.181C892.672 -194.181 888.902 -197.951 888.902 -202.608C888.902 -205.296 890.205 -207.68 892.173 -209.232L841.174 -297.569H822.771L713.484 -108.284C715.369 -106.732 716.588 -104.431 716.588 -101.798C716.588 -99.6082 715.729 -97.668 714.399 -96.1712L732.719 -64.4066H842.92L842.893 -64.4343ZM919.862 51.3708C924.047 51.3708 927.484 54.4198 928.149 58.4111H1050.19C1050.85 54.4198 1054.29 51.3708 1058.47 51.3708C1059.3 51.3708 1060.11 51.5371 1060.88 51.7589L1121.56 -53.3195C1119.67 -54.8716 1118.45 -57.1722 1118.45 -59.8054C1118.45 -62.4386 1119.67 -64.7392 1121.56 -66.2914L1060.88 -171.37C1060.11 -171.148 1059.33 -170.982 1058.47 -170.982C1054.29 -170.982 1050.85 -174.031 1050.19 -178.022H928.149C927.484 -174.031 924.047 -170.982 919.862 -170.982C918.781 -170.982 917.755 -171.203 916.813 -171.564L857.416 -68.7028C858.774 -67.2061 859.606 -65.2381 859.606 -63.0761C859.606 -59.7222 857.638 -56.8396 854.783 -55.4814L916.813 51.9252C917.755 51.5648 918.781 51.3431 919.862 51.3431V51.3708ZM919.862 -187.834C924.047 -187.834 927.484 -184.785 928.149 -180.794H1050.19C1050.85 -184.785 1054.29 -187.834 1058.47 -187.834C1059.33 -187.834 1060.16 -187.668 1060.94 -187.418L1069.06 -201.277H910.826L918.67 -187.695C919.058 -187.751 919.446 -187.806 919.862 -187.806V-187.834ZM842.505 -300.867L842.782 -300.368H842.976C842.948 -300.535 842.921 -300.701 842.893 -300.867H842.477H842.505ZM720.884 -300.867C720.884 -300.701 720.829 -300.535 720.801 -300.368H821.163L821.44 -300.867H720.884ZM649.098 -187.224L710.768 -294.021C710.463 -294.077 710.158 -294.187 709.853 -294.298L648.184 -187.501C648.488 -187.418 648.793 -187.335 649.07 -187.224H649.098ZM824.35 -300.368H839.567L839.29 -300.867H824.628L824.35 -300.368ZM851.18 -293.799C848.686 -293.799 846.468 -294.908 844.916 -296.627L894.584 -210.59C895.443 -210.895 896.358 -211.089 897.328 -211.089C899.795 -211.089 902.012 -210.008 903.564 -208.29L853.924 -294.298C853.065 -293.993 852.15 -293.799 851.208 -293.799H851.18ZM905.615 -204.021H906.004L905.311 -205.241C905.449 -204.853 905.56 -204.437 905.615 -204.021ZM699.82 -103.184C700.485 -107.175 703.922 -110.224 708.107 -110.224C709.16 -110.224 710.13 -110.002 711.045 -109.67L819.528 -297.569H719.582C718.307 -295.629 716.256 -294.298 713.872 -293.91L651.426 -185.755C653.256 -184.203 654.42 -181.93 654.42 -179.352C654.42 -176.608 653.089 -174.225 651.094 -172.672L691.2 -103.184H699.792H699.82ZM1073.88 -204.021H1110.33L1092.26 -235.342L1073.88 -204.021ZM1135.16 -58.3918C1134.5 -54.4004 1131.06 -51.3514 1126.88 -51.3514C1125.99 -51.3514 1125.16 -51.5178 1124.38 -51.7672L1063.74 53.2833C1065.65 54.8355 1066.93 57.1638 1066.93 59.8248C1066.93 62.4857 1065.68 64.814 1063.74 66.3661L1068.01 73.7668L1144.31 -58.3641H1135.19L1135.16 -58.3918ZM476.257 -110.252C480.443 -110.252 483.88 -107.203 484.545 -103.212H688.04L648.655 -171.425C647.823 -171.148 646.936 -170.954 646.022 -170.954C641.836 -170.954 638.4 -174.003 637.734 -177.994H513.592C512.927 -174.003 509.49 -170.954 505.304 -170.954C503.891 -170.954 502.616 -171.314 501.452 -171.924L469.411 -116.433L473.319 -109.698C474.234 -110.03 475.232 -110.252 476.257 -110.252ZM499.207 -173.587C497.766 -175.112 496.879 -177.135 496.879 -179.38C496.879 -182.817 498.93 -185.755 501.868 -187.058L475.177 -233.291L461.207 -209.094C463.064 -207.541 464.284 -205.241 464.284 -202.635C464.284 -197.979 460.514 -194.209 455.858 -194.209C451.673 -194.209 448.236 -197.258 447.571 -201.249H420.464L467.832 -119.205L499.234 -173.587H499.207ZM-177.716 -428.314C-175.831 -426.762 -174.612 -424.461 -174.612 -421.828C-174.612 -419.195 -175.831 -416.894 -177.716 -415.342L-116.961 -310.097C-116.047 -310.43 -115.049 -310.652 -114.023 -310.652C-109.838 -310.652 -106.401 -307.603 -105.736 -303.611H16.217C16.8823 -307.603 20.3193 -310.652 24.5045 -310.652C25.4192 -310.652 26.2506 -310.485 27.0822 -310.208L79.8822 -401.649H-99.472C-100.137 -397.658 -103.574 -394.609 -107.759 -394.609C-112.416 -394.609 -116.185 -398.379 -116.185 -403.035C-116.185 -405.641 -114.966 -407.969 -113.109 -409.494L-151.025 -474.52L-177.716 -428.259V-428.314ZM28.6066 -530.842C27.387 -530.177 26.0288 -529.761 24.5321 -529.761C19.8757 -529.761 16.1063 -533.531 16.1063 -538.187C16.1063 -538.825 16.1895 -539.462 16.3281 -540.072H-105.708C-106.373 -536.081 -109.81 -533.032 -113.995 -533.032C-115.049 -533.032 -116.019 -533.254 -116.933 -533.586L-149.39 -477.347L-110.669 -410.963C-109.755 -411.323 -108.757 -411.517 -107.704 -411.517C-103.519 -411.517 -100.082 -408.468 -99.4165 -404.477H81.5452L87.8369 -415.397C85.9521 -416.95 84.7327 -419.25 84.7327 -421.883C84.7327 -424.517 85.9521 -426.817 87.8369 -428.369L28.6343 -530.898L28.6066 -530.842ZM101.418 -420.47C100.753 -416.478 97.316 -413.429 93.1307 -413.429C92.2162 -413.429 91.3845 -413.596 90.5531 -413.873L85.1206 -404.477H100.448C101.113 -408.468 104.55 -411.517 108.735 -411.517C109.788 -411.517 110.759 -411.295 111.673 -410.963L117.161 -420.47H101.39H101.418ZM458.796 -595.646C457.881 -595.314 456.884 -595.092 455.858 -595.092C451.701 -595.092 448.264 -598.113 447.571 -602.105H232.324C231.631 -598.141 228.194 -595.092 224.036 -595.092C223.149 -595.092 222.29 -595.258 221.486 -595.536L122.011 -423.242H224.175C224.84 -427.233 228.277 -430.282 232.462 -430.282C237.119 -430.282 240.888 -426.512 240.888 -421.856C240.888 -418.973 239.447 -416.451 237.257 -414.926L297.485 -310.569C297.818 -310.596 298.151 -310.679 298.511 -310.679C302.696 -310.679 306.133 -307.631 306.798 -303.639H428.585C429.25 -307.631 432.687 -310.679 436.872 -310.679C439.173 -310.679 441.251 -309.765 442.776 -308.268L501.978 -410.824C498.957 -412.099 496.851 -415.093 496.851 -418.585C496.851 -422.077 499.068 -425.182 502.172 -426.401L437.787 -543.62L440.226 -544.951L505.027 -426.983C505.027 -426.983 505.194 -426.983 505.277 -426.983C509.462 -426.983 512.899 -423.935 513.564 -419.943H560.183L458.768 -595.619L458.796 -595.646ZM568.637 -410.935C569.552 -411.268 570.549 -411.489 571.575 -411.489C575.76 -411.489 579.197 -408.44 579.862 -404.449H650.345L646.992 -410.242C646.659 -410.214 646.354 -410.131 646.022 -410.131C641.836 -410.131 638.4 -413.18 637.734 -417.171H565.006L568.609 -410.907L568.637 -410.935ZM649.736 -426.124C652.535 -424.738 654.448 -421.911 654.448 -418.585C654.448 -416.007 653.256 -413.734 651.454 -412.182L655.917 -404.449H773.574C774.239 -408.44 777.676 -411.489 781.861 -411.489C782.914 -411.489 783.884 -411.268 784.799 -410.935L853.619 -530.149C852.843 -529.9 852.012 -529.733 851.152 -529.733C846.967 -529.733 843.53 -532.782 842.865 -536.774H720.829C720.164 -532.782 716.727 -529.733 712.542 -529.733C711.571 -529.733 710.685 -529.928 709.825 -530.232L649.708 -426.124H649.736ZM1132.09 -595.369C1131.39 -595.175 1130.67 -595.037 1129.9 -595.037C1125.71 -595.037 1122.28 -598.086 1121.61 -602.077H905.643C904.978 -598.086 901.541 -595.037 897.356 -595.037C896.386 -595.037 895.471 -595.231 894.612 -595.536L857.028 -530.426L917.035 -426.485C917.922 -426.817 918.864 -427.011 919.89 -427.011C924.546 -427.011 928.315 -423.242 928.315 -418.585C928.315 -413.928 924.546 -410.159 919.89 -410.159C918.892 -410.159 917.949 -410.353 917.035 -410.685L857.583 -307.714C858.553 -306.577 859.246 -305.191 859.495 -303.639H1049.55C1050.21 -307.631 1053.65 -310.679 1057.84 -310.679C1062.49 -310.679 1066.26 -306.91 1066.26 -302.253C1066.26 -298.816 1064.21 -295.906 1061.27 -294.575L1092.29 -240.886L1128.71 -302.974L1131.09 -301.56L1093.87 -238.114L1113.52 -204.049H1121.58C1122.25 -208.04 1125.69 -211.089 1129.87 -211.089C1129.95 -211.089 1130.04 -211.089 1130.12 -211.089L1237.02 -396.244C1234.89 -397.769 1233.48 -400.264 1233.48 -403.091C1233.48 -406.583 1235.58 -409.549 1238.6 -410.852L1132.09 -595.369ZM1130.15 -194.237C1130.15 -194.237 1129.98 -194.237 1129.9 -194.237C1125.71 -194.237 1122.28 -197.286 1121.61 -201.277H1115.15L1168.01 -109.725C1168.92 -110.058 1169.92 -110.28 1170.95 -110.28C1175.13 -110.28 1178.57 -107.231 1179.23 -103.239H1182.67L1130.12 -194.265L1130.15 -194.237ZM1184.31 -100.44H1179.26C1178.6 -96.4484 1175.16 -93.3994 1170.97 -93.3994C1169.92 -93.3994 1168.95 -93.6212 1168.04 -93.9537L1149.11 -61.1636H1206.98L1184.31 -100.44ZM1268.45 -51.9058C1267.54 -51.5732 1266.54 -51.3514 1265.52 -51.3514C1261.33 -51.3514 1257.89 -54.4004 1257.23 -58.3918H1211.8L1239.57 -10.2736C1240.35 -10.4954 1241.13 -10.6617 1241.96 -10.6617C1246.14 -10.6617 1249.58 -7.61273 1250.24 -3.62134H1296.34L1268.45 -51.9058ZM1329.21 66.283C1327.32 64.7308 1326.1 62.4302 1326.1 59.7971C1326.1 57.1639 1327.32 54.8632 1329.21 53.311L1297.92 -0.877258H1250.22C1249.55 3.11407 1246.11 6.16302 1241.93 6.16302C1237.27 6.16302 1233.5 2.39343 1233.5 -2.26318C1233.5 -5.09039 1234.92 -7.58502 1237.02 -9.1095L1208.56 -58.4472H1147.5L1069.61 76.4554L1124.38 171.333C1125.19 171.084 1126.02 170.918 1126.88 170.918C1131.06 170.918 1134.5 173.967 1135.16 177.958H1257.2C1257.87 173.967 1261.3 170.918 1265.49 170.918C1266.54 170.918 1267.51 171.14 1268.43 171.472L1329.18 66.2275L1329.21 66.283ZM1268.45 187.271C1267.54 187.604 1266.54 187.826 1265.52 187.826C1261.33 187.826 1257.89 184.777 1257.23 180.785H1135.19C1134.53 184.777 1131.09 187.826 1126.9 187.826C1126.02 187.826 1125.19 187.659 1124.41 187.41L1116.29 201.463L1168.04 291.102C1168.95 290.77 1169.95 290.548 1170.97 290.548C1175.16 290.548 1178.6 293.597 1179.26 297.588H1326.27C1326.6 295.537 1327.68 293.763 1329.24 292.488L1268.48 187.244L1268.45 187.271ZM1063.71 305.46L1114.68 393.741L1165.65 305.46C1163.77 303.908 1162.55 301.607 1162.55 298.974C1162.55 296.341 1163.77 294.04 1165.65 292.488L1114.68 204.207L1063.71 292.488C1065.6 294.04 1066.82 296.341 1066.82 298.974C1066.82 301.607 1065.6 303.908 1063.71 305.46ZM1124.38 410.566C1125.19 410.317 1126.02 410.15 1126.88 410.15C1131.06 410.15 1134.5 413.199 1135.16 417.191H1257.2C1257.87 413.199 1261.3 410.15 1265.49 410.15C1266.54 410.15 1267.51 410.372 1268.43 410.705L1329.18 305.46C1327.66 304.185 1326.58 302.411 1326.22 300.36H1179.21C1178.54 304.351 1175.1 307.4 1170.92 307.4C1169.87 307.4 1168.9 307.179 1167.98 306.846L1116.23 396.485L1124.35 410.538L1124.38 410.566ZM820.775 491.28C821.468 491.086 822.216 490.948 822.965 490.948C827.15 490.948 830.587 493.997 831.252 497.988H1050.05C1050.71 493.997 1054.15 490.948 1058.33 490.948C1058.39 490.948 1058.44 490.948 1058.5 490.948L1113.05 396.485L1061.3 306.846C1060.39 307.179 1059.39 307.4 1058.36 307.4C1054.18 307.4 1050.74 304.351 1050.07 300.36H928.177C927.512 304.351 924.075 307.4 919.89 307.4C915.233 307.4 911.464 303.631 911.464 298.974C911.464 294.318 915.233 290.548 919.89 290.548C924.075 290.548 927.512 293.597 928.177 297.588H1050.07C1050.74 293.597 1054.18 290.548 1058.36 290.548C1059.41 290.548 1060.39 290.77 1061.3 291.102L1113.05 201.463L1058.61 107.195C1058.61 107.195 1058.56 107.195 1058.53 107.195C1054.29 107.195 1050.8 104.035 1050.21 99.9601H831.252C830.587 103.951 827.15 107 822.965 107C822.632 107 822.327 106.945 821.994 106.917L714.371 293.347C715.729 294.844 716.56 296.812 716.56 298.974C716.56 301.58 715.341 303.908 713.456 305.46L820.747 491.28H820.775ZM18.7947 292.488C20.6794 294.04 21.8992 296.341 21.8992 298.974C21.8992 301.607 20.6794 303.908 18.7947 305.46L125.947 491.059C126.224 491.059 126.474 490.976 126.751 490.976C130.936 490.976 134.373 494.025 135.038 498.016H353.833C354.498 494.025 357.935 490.976 362.12 490.976C362.675 490.976 363.229 491.031 363.756 491.142L470.492 306.236C467.998 304.767 466.307 302.079 466.307 298.974C466.307 295.87 467.998 293.181 470.492 291.712L363.867 107.028C363.368 107.111 362.841 107.195 362.314 107.195C358.074 107.195 354.582 104.035 354 99.9601H135.038C134.373 103.951 130.936 107 126.751 107C126.474 107 126.224 106.945 125.947 106.917L18.7947 292.488ZM125.947 90.2035C126.224 90.2035 126.474 90.1203 126.751 90.1203C130.936 90.1203 134.373 93.1693 135.038 97.1606H354.055C354.803 93.2524 358.212 90.3143 362.314 90.3143C362.786 90.3143 363.229 90.3698 363.673 90.4529L470.964 -95.3674C469.079 -96.9196 467.859 -99.2202 467.859 -101.853C467.859 -104.487 469.079 -106.787 470.964 -108.339L467.859 -113.717L442.332 -69.5067C444.162 -67.9545 445.353 -65.6816 445.353 -63.0761C445.353 -58.4195 441.584 -54.6499 436.927 -54.6499C432.742 -54.6499 429.306 -57.6989 428.64 -61.6902H306.854C306.188 -57.6989 302.751 -54.6499 298.566 -54.6499C293.91 -54.6499 290.14 -58.4195 290.14 -63.0761C290.14 -65.8202 291.471 -68.2316 293.494 -69.7561L233.127 -174.308C232.933 -174.308 232.712 -174.252 232.518 -174.252C228.332 -174.252 224.896 -177.301 224.23 -181.293H101.473C100.808 -177.301 97.3713 -174.252 93.1862 -174.252C88.5298 -174.252 84.7603 -178.022 84.7603 -182.679C84.7603 -185.423 86.0907 -187.862 88.1417 -189.414L76.8888 -208.9L18.8225 -108.339C20.7072 -106.787 21.9268 -104.487 21.9268 -101.853C21.9268 -99.2202 20.7072 -96.9196 18.8225 -95.3674L125.975 90.2035H125.947Z" fill="white"/>
</g>
</svg>
