<svg width="80" height="92" viewBox="0 0 80 92" fill="none" xmlns="http://www.w3.org/2000/svg">
<path d="M71.2499 21C71.2499 25.6021 67.5187 29.3333 62.9166 29.3333C58.3145 29.3333 54.5833 25.6021 54.5833 21C54.5833 12.6666 62.9166 4.33331 62.9166 4.33331C62.9166 4.33331 71.2499 12.6666 71.2499 21Z" stroke="#79F0B4" stroke-width="4" stroke-linecap="round" stroke-linejoin="round"/>
<path d="M25.4166 13.7083C25.4166 17.7354 22.152 21 18.1249 21C14.0978 21 10.8333 17.7354 10.8333 13.7083C10.8333 8.5 18.1249 2.25 18.1249 2.25C18.1249 2.25 25.4166 8.5 25.4166 13.7083Z" stroke="#79F0B4" stroke-width="4" stroke-linecap="round" stroke-linejoin="round"/>
<path d="M54.1041 60.9771C46.252 64.0666 39.7833 69.8833 35.8333 77.25" stroke="#79F0B4" stroke-width="4" stroke-linecap="round" stroke-linejoin="round"/>
<path d="M35.8333 89.75V58.5C35.8333 45.8437 25.5729 35.5833 12.9167 35.5833H2.5C2.5 49.1187 12.4437 60.2937 25.4167 62.3021" stroke="#79F0B4" stroke-width="4" stroke-linecap="round" stroke-linejoin="round"/>
<path d="M42.777 30.7229C42.777 33.4083 40.5999 35.5833 37.9166 35.5833C35.2332 35.5833 33.0562 33.4063 33.0562 30.7229C33.0562 25.8625 37.9166 21 37.9166 21C37.9166 21 42.777 25.8604 42.777 30.7229Z" stroke="#79F0B4" stroke-width="4" stroke-linecap="round" stroke-linejoin="round"/>
<path d="M46.2499 77.1459C63.6833 76.0646 77.4999 61.6229 77.4999 43.9167H60.8333C47.027 43.9167 35.8333 55.1104 35.8333 68.9167V77.25" stroke="#79F0B4" stroke-width="4" stroke-linecap="round" stroke-linejoin="round"/>
</svg>
