<svg width="30" height="29" viewBox="0 0 30 29" fill="none" xmlns="http://www.w3.org/2000/svg">
<path fill-rule="evenodd" clip-rule="evenodd" d="M20.3333 8.4668C15.2867 8.4668 11.1333 12.6201 11.1333 17.6668V27.0001C11.1333 27.6628 11.6707 28.2001 12.3333 28.2001H17.6667C18.3293 28.2001 18.8667 27.6628 18.8667 27.0001V17.6668C18.8667 16.8628 19.5293 16.2001 20.3333 16.2001C21.1373 16.2001 21.8 16.8628 21.8 17.6668V27.0001C21.8 27.6628 22.3373 28.2001 23 28.2001H28.3333C28.996 28.2001 29.5333 27.6628 29.5333 27.0001V17.6668C29.5333 12.6201 25.38 8.4668 20.3333 8.4668ZM8.19999 11.0001C8.19999 10.3375 7.66267 9.80013 7 9.80013H1.66667C1.004 9.80013 0.466675 10.3375 0.466675 11.0001V27.0001C0.466675 27.6628 1.004 28.2001 1.66667 28.2001H7C7.66267 28.2001 8.19999 27.6628 8.19999 27.0001V11.0001ZM27.1333 25.8001V17.6668C27.1333 13.9361 24.064 10.8668 20.3333 10.8668C16.6027 10.8668 13.5333 13.9361 13.5333 17.6668V25.8001H16.4667V17.6668C16.4667 15.5455 18.212 13.8001 20.3333 13.8001C22.4547 13.8001 24.2 15.5455 24.2 17.6668V25.8001H27.1333ZM2.86666 12.2001V25.8001H5.80001V12.2001H2.86666ZM4.33333 0.466797C2.19867 0.466797 0.466675 2.19879 0.466675 4.33346C0.466675 6.46812 2.19867 8.20011 4.33333 8.20011C6.468 8.20011 8.19999 6.46812 8.19999 4.33346C8.19999 2.19879 6.468 0.466797 4.33333 0.466797ZM4.33333 2.86678C5.14267 2.86678 5.80001 3.52412 5.80001 4.33346C5.80001 5.14279 5.14267 5.80013 4.33333 5.80013C3.524 5.80013 2.86666 5.14279 2.86666 4.33346C2.86666 3.52412 3.524 2.86678 4.33333 2.86678Z" fill="#79F0B4" stroke="#79F0B4" stroke-width="0.2"/>
</svg>
