<svg width="207" height="40" viewBox="0 0 207 40" fill="none" xmlns="http://www.w3.org/2000/svg">
<path d="M105.965 40V23.368H119.205V27.3321H110.278V29.7163H118.689V33.6804H110.278V36.0646H119.205V40.0144H105.965V40Z" fill="white"/>
<path d="M132.503 39.9856L126.742 31.1095V39.9856H122.315V23.368H126.728L132.503 32.3303V23.368H136.945V39.9856H132.503Z" fill="white"/>
<path d="M152.908 27.4757H148.351V40H143.837V27.4757H139.28L138.979 27.1741V23.3537H153.208V27.1741L152.908 27.4757Z" fill="white"/>
<path d="M161.734 40C160.66 40 159.585 39.8707 158.525 39.6122C157.464 39.3537 156.447 38.9946 155.487 38.5494C155.458 38.5494 155.387 38.5206 155.272 38.4632C155.157 38.3914 155.1 38.3483 155.1 38.3196C155.1 38.3196 155.129 38.2478 155.186 38.1472C155.243 38.0467 155.315 37.9318 155.401 37.7881C155.487 37.6445 155.587 37.4722 155.687 37.2855C155.788 37.0987 155.902 36.912 156.017 36.7109C156.246 36.3232 156.476 35.9641 156.676 35.605C156.891 35.2603 157.034 35.0018 157.106 34.8582C157.292 34.93 157.464 35.0162 157.622 35.1023C158.367 35.4758 159.127 35.763 159.872 35.9641C160.631 36.1652 161.434 36.2657 162.265 36.2657C162.494 36.2657 162.752 36.2657 163.024 36.237C163.296 36.2226 163.54 36.1652 163.755 36.079C163.97 35.9928 164.156 35.8636 164.299 35.6912C164.443 35.5188 164.514 35.2747 164.514 34.9443C164.514 34.7864 164.471 34.6571 164.385 34.5422C164.299 34.4273 164.199 34.3267 164.07 34.2262C163.941 34.14 163.812 34.0539 163.683 33.982C163.54 33.9102 163.411 33.8528 163.282 33.8097C162.995 33.6948 162.694 33.6086 162.394 33.5655C162.093 33.5081 161.777 33.4506 161.477 33.3788C161.075 33.2783 160.674 33.1921 160.287 33.1059C159.9 33.0197 159.528 32.9192 159.169 32.8187C158.797 32.7038 158.439 32.5889 158.095 32.4596C157.751 32.3303 157.436 32.1723 157.149 31.9856C156.547 31.6266 156.074 31.1382 155.73 30.535C155.372 29.9318 155.2 29.1275 155.2 28.1221C155.2 27.7774 155.243 27.4183 155.315 27.0736C155.387 26.7145 155.501 26.3842 155.659 26.0539C155.96 25.4219 156.361 24.8905 156.848 24.474C157.335 24.0574 157.866 23.7271 158.453 23.4973C159.041 23.2531 159.657 23.0951 160.316 22.9946C160.961 22.8941 161.62 22.851 162.265 22.851C163.325 22.851 164.385 22.9802 165.417 23.2388C166.449 23.4973 167.452 23.9138 168.383 24.5027C168.039 25.0916 167.695 25.6661 167.38 26.2262C167.051 26.7864 166.721 27.3609 166.391 27.9497C165.589 27.5619 164.815 27.246 164.056 26.9874C163.296 26.7433 162.494 26.614 161.62 26.614C161.405 26.614 161.19 26.614 160.961 26.6427C160.731 26.6571 160.516 26.7145 160.33 26.8007C160.144 26.8869 159.972 27.0018 159.857 27.1598C159.728 27.3178 159.671 27.5332 159.671 27.7917C159.671 27.9785 159.714 28.1508 159.8 28.2944C159.9 28.4524 160.072 28.5817 160.33 28.6966C160.588 28.8115 160.903 28.9264 161.276 29.0126C161.648 29.1131 162.064 29.1993 162.508 29.2998C162.952 29.4004 163.411 29.5009 163.898 29.6158C164.371 29.7451 164.844 29.8887 165.317 30.0467C165.79 30.2047 166.248 30.4057 166.664 30.6212C167.079 30.8366 167.466 31.1239 167.796 31.4255C168.125 31.7415 168.398 32.1149 168.584 32.5314C168.741 32.8474 168.842 33.1921 168.899 33.5655C168.956 33.9246 168.985 34.298 168.985 34.6571C168.985 35.7056 168.77 36.5817 168.34 37.2567C167.91 37.9318 167.352 38.4776 166.664 38.8653C165.976 39.2531 165.188 39.5404 164.314 39.6984C163.44 39.8564 162.566 39.9425 161.691 39.9425L161.734 40Z" fill="white"/>
<path d="M94.9314 17.4506V0.818665H108.172V4.78276H99.2445V7.16696H107.656V11.1311H99.2445V13.5153H108.172V17.465H94.9314V17.4506Z" fill="white"/>
<path d="M124.966 4.94075H120.409V17.4506H115.895V4.94075H111.338L111.037 4.63913V0.818665H125.266V4.63913L124.966 4.94075Z" fill="white"/>
<path d="M146.23 17.4506H142.676L140.026 10.2693L137.389 17.4506H133.835L127.717 0.861755H132.503L135.598 9.26391L138.693 0.861755H141.329L144.425 9.26391L147.52 0.861755H152.306L146.187 17.4506H146.23Z" fill="white"/>
<path d="M184.174 17.4506L181.28 12.3088H178.471L178.5 17.4506H173.914V0.818665H182.24C182.641 0.818665 183.042 0.890478 183.458 1.04847C183.873 1.20646 184.274 1.39317 184.661 1.6517C185.048 1.89586 185.406 2.18312 185.736 2.4991C186.066 2.81507 186.338 3.13105 186.567 3.46139C186.854 3.87791 187.069 4.35188 187.212 4.91202C187.355 5.4578 187.441 5.98922 187.441 6.49191C187.441 7.32495 187.255 8.08617 186.868 8.8043C186.481 9.52243 185.951 10.1113 185.263 10.5996L189.161 17.465H184.174V17.4506ZM180.95 4.52423H178.356V8.10053H180.95C181.208 8.10053 181.452 8.05744 181.681 7.9569C181.91 7.85637 182.111 7.74146 182.283 7.56911C182.455 7.41112 182.584 7.22441 182.684 7.00897C182.784 6.79353 182.827 6.56373 182.827 6.3052C182.827 6.04667 182.77 5.81687 182.684 5.60143C182.584 5.38599 182.455 5.19927 182.283 5.04129C182.111 4.8833 181.91 4.75403 181.681 4.65349C181.452 4.55296 181.208 4.50987 180.95 4.50987V4.52423Z" fill="white"/>
<path d="M199.549 8.6894L206.112 17.465H200.724L196.168 11.8635V17.465H191.611V0.818665H196.168V6.4201L200.724 0.818665H206.327L199.549 8.6894Z" fill="white"/>
<path d="M170.475 6.93715C169.487 8.40214 167.925 9.82405 165.947 11.0161C165.732 11.5332 165.446 11.9928 165.087 12.3806C164.701 12.7971 164.242 13.1275 163.712 13.3716C163.182 13.6158 162.594 13.7451 161.964 13.7451C161.333 13.7451 160.789 13.6158 160.258 13.386C158.926 13.7163 157.622 13.903 156.418 13.903C155.702 13.903 155.043 13.8456 154.441 13.7307C154.813 14.3339 155.215 14.9084 155.73 15.4111C156.533 16.2011 157.464 16.833 158.539 17.2926C159.614 17.7522 160.76 17.982 161.978 17.982C163.196 17.982 164.328 17.7522 165.417 17.2926C166.492 16.833 167.437 16.2154 168.226 15.4111C169.028 14.6212 169.658 13.6876 170.117 12.6104C170.576 11.5332 170.819 10.3986 170.819 9.17773C170.819 8.38778 170.69 7.65529 170.49 6.92279L170.475 6.93715Z" fill="#79F0B4"/>
<path d="M159.212 12.7109C160.473 12.4668 161.792 12.0646 163.124 11.4901C164.285 10.9874 165.331 10.3986 166.277 9.75223C168.025 8.56013 169.372 7.18132 170.131 5.83123C170.834 4.56731 171.034 3.33213 170.576 2.28365C169.916 0.76121 167.982 -1.11228e-05 165.503 -0.0143738C167.409 0.143615 168.856 0.847386 169.386 2.09694C169.687 2.80071 169.659 3.59065 169.386 4.42369C169.286 4.2657 169.171 4.12207 169.071 3.97844C168.942 3.80609 168.813 3.66247 168.684 3.50448C168.527 3.31776 168.398 3.11669 168.226 2.94433C167.423 2.15439 166.492 1.52243 165.417 1.06283C164.342 0.60322 163.196 0.359055 161.978 0.359055C160.76 0.359055 159.599 0.588858 158.539 1.06283C157.464 1.52243 156.533 2.15439 155.73 2.94433C154.928 3.73428 154.298 4.66785 153.839 5.74505C153.38 6.82225 153.137 7.9569 153.137 9.17773C153.137 9.60861 153.209 10.0395 153.266 10.456C153.295 10.6427 153.295 10.8438 153.337 11.0305C153.38 11.2316 153.466 11.4183 153.524 11.605C152.592 11.2459 151.89 10.6858 151.561 9.91022C151.288 9.27827 151.274 8.56013 151.475 7.81327C151.045 8.84739 150.973 9.83841 151.346 10.7002C151.761 11.6481 152.664 12.3088 153.882 12.6822C154.627 12.912 155.487 13.0269 156.433 13.0269C157.307 13.0269 158.252 12.912 159.227 12.7109H159.212ZM157.923 7.43985C158.138 6.89406 158.453 6.40573 158.826 5.98922C159.212 5.5727 159.671 5.24236 160.201 4.99819C160.731 4.75403 161.319 4.62476 161.949 4.62476C162.58 4.62476 163.153 4.75403 163.698 4.99819C164.228 5.24236 164.686 5.5727 165.073 5.98922C165.46 6.40573 165.761 6.8797 165.976 7.43985C166.033 7.59783 166.062 7.75582 166.119 7.91381C166.162 8.0718 166.205 8.22979 166.234 8.38778C165.159 9.23518 163.898 10.0108 162.465 10.6427C161.09 11.2459 159.714 11.6337 158.424 11.8492C158.338 11.7199 158.252 11.5763 158.181 11.4327C158.109 11.3034 158.037 11.1598 157.966 11.0161C157.952 10.9874 157.923 10.9587 157.923 10.9156C157.708 10.3555 157.593 9.78096 157.593 9.17773C157.593 8.5745 157.708 7.98563 157.923 7.42548V7.43985Z" fill="#79F0B4"/>
<path d="M73.0792 40H86.3195V36.0503H77.3923V33.6661H85.8036V29.702H77.3923V27.3178H86.3195V23.3537H76.3893C75.5582 25.6517 74.4548 27.8205 73.0792 29.8025V39.9856V40Z" fill="white"/>
<path d="M99.3304 23.3968L96.1207 32L92.9109 23.3968H87.953L94.1289 40H98.1268L104.288 23.3968H99.3304Z" fill="white"/>
<path d="M78.1231 13.6302C78.1231 14.9228 78.0085 16.1867 77.8366 17.4363H81.1036V8.56014L86.864 17.4363H91.3061V0.818665H86.864V9.78096L81.0893 0.818665H76.7189C77.593 1.92459 78.1231 3.28904 78.1231 4.79712V13.6302Z" fill="white"/>
<path d="M75.9738 5.15618C75.9738 2.58526 73.896 0.488312 71.3168 0.488312H4.65701C2.07774 0.488312 0 2.5709 0 5.15618V35.3465C0 37.9174 2.07774 40.0143 4.65701 40.0143H49.8945C52.832 40.0143 55.6406 39.526 58.2628 38.6212C58.793 38.2046 60.4409 36.596 60.4409 32.4452V29.6014C60.4409 27.0305 62.5186 24.9479 65.0835 24.9479H68.2073C72.8787 24.9479 74.3402 22.8366 74.4692 22.6212C75.4436 19.8779 75.9738 16.9479 75.9738 13.8743V5.15618Z" fill="#79F0B4"/>
<path d="M30.4784 31.7271C29.8336 31.4829 29.2461 31.0377 28.7159 30.377C28.1284 29.5009 27.8418 28.1221 27.8275 26.2262V7.61218C27.5839 8.0287 27.3116 8.34468 27.0107 8.57448C26.6955 8.80428 26.3516 9.01972 25.979 9.2208L25.6208 9.42188C24.8613 9.88148 24.4888 10.5278 24.4888 11.3608V15.8563H24.0016L22.1961 14.0467L20.3763 15.8563H19.9034V7.61218C19.7028 7.98561 19.4162 8.31595 19.0293 8.61757C18.6138 8.93355 18.0406 9.26389 17.2811 9.60859L16.493 9.96766C15.7479 10.2836 15.0171 10.6427 14.2577 11.0305C13.5125 11.4326 12.8677 11.9066 12.3232 12.4524C11.6927 13.1131 11.3058 13.8312 11.1482 14.6068C11.1052 14.8222 11.0766 15.0377 11.0766 15.2388C11.0766 15.7558 11.2055 16.2154 11.4491 16.6176C11.6927 16.991 11.9936 17.2639 12.3519 17.4506C12.7244 17.6373 13.1113 17.7379 13.5125 17.7379C13.7991 17.7379 14.0714 17.6948 14.3293 17.5942C14.5013 17.5224 14.6302 17.4506 14.7305 17.3644C14.8308 17.2782 14.9311 17.1921 15.0171 17.0915C14.9598 17.0484 14.9025 16.991 14.8308 16.9335C14.7592 16.8761 14.6875 16.7899 14.6016 16.675C14.1574 16.0861 13.9424 15.4398 13.9424 14.7073C13.9424 14.4775 13.9711 14.2334 14.0141 13.9892C14.1574 13.2711 14.4439 12.6966 14.8881 12.2657C15.3324 11.8348 15.8912 11.4614 16.5503 11.131C16.5503 11.2028 16.5503 15.3106 16.5503 23.4829V23.7558C16.5503 24.1867 16.5217 24.5601 16.4644 24.8905C16.407 25.2064 16.2638 25.4793 16.0345 25.7091C15.8052 25.9389 15.447 26.14 14.9598 26.298C14.4153 26.4847 13.6988 26.5709 12.8104 26.5709H12.3519C11.8933 26.5278 11.4348 26.4273 10.9906 26.2549C10.532 26.0826 10.1595 25.8528 9.84424 25.5655C9.529 25.2782 9.38571 24.9335 9.38571 24.5601C9.38571 24.2441 9.51467 23.8994 9.78693 23.5404L9.34272 23.9712C9.15644 24.1436 8.98449 24.316 8.82686 24.4883C8.4543 24.8761 8.18205 25.2782 7.99577 25.6948C7.80949 26.1113 7.72351 26.5134 7.72351 26.9156C7.72351 27.5188 7.92412 28.0502 8.33967 28.5098C8.75522 28.9695 9.35705 29.2711 10.1595 29.4291C10.4891 29.4865 10.8186 29.5009 11.1625 29.5009C12.0223 29.5009 12.7961 29.386 13.4839 29.1418C17.754 27.7199 19.8891 25.0772 19.8891 21.2136V16.9479H20.3619L22.1817 18.7576L23.9872 16.9479H24.4744V25.9102C24.4744 26.7863 24.632 27.7486 24.933 28.8258C25.2339 29.903 25.6924 30.7504 26.2942 31.3824C26.7671 31.8133 27.283 32.1436 27.8705 32.4021C28.6442 32.7325 29.3607 32.8905 30.0199 32.8905C30.4211 32.8905 30.765 32.8474 31.0659 32.7612C31.3668 32.675 31.5961 32.5888 31.7824 32.4883C31.9686 32.3878 32.0833 32.3016 32.1406 32.2154C32.1979 32.1292 32.2409 32.0574 32.2552 31.9856V31.9569C32.0403 31.9569 31.7537 31.9569 31.4098 31.9138C31.0659 31.8851 30.7506 31.8276 30.4497 31.7127L30.4784 31.7271Z" fill="#0E2829"/>
<path d="M67.2759 22.3626C67.2186 22.9515 67.061 23.4398 66.7601 23.8276C66.4592 24.2154 66.0866 24.4165 65.6281 24.4165C65.1695 24.4165 64.8543 24.3016 64.6823 24.0718C64.5104 23.842 64.4244 23.4255 64.4244 22.8079V7.62656C64.1808 8.04307 63.9086 8.35905 63.6076 8.58885C63.3067 8.81866 62.9485 9.0341 62.5759 9.23517L62.2177 9.43625C61.4582 9.91022 61.0857 10.5565 61.0857 11.3896V22.4345C61.057 22.7504 60.9997 23.0664 60.8708 23.3537C60.7418 23.6696 60.5555 23.9138 60.3262 24.1292C60.0826 24.3303 59.7961 24.4309 59.4522 24.4309C59.1083 24.4309 58.8647 24.3734 58.6784 24.2585C58.4921 24.1436 58.3918 23.9713 58.3345 23.7271C58.2772 23.4829 58.2485 23.1813 58.2485 22.8222V12.1939C57.8903 12.9695 57.3028 13.6301 56.4717 14.1759C55.6549 14.7217 54.7808 15.21 53.8494 15.6553C53.3049 15.9282 52.8034 16.1867 52.3162 16.4596C51.3704 16.9766 50.568 17.5655 49.8659 18.2549C49.1781 18.9443 48.7052 19.8205 48.4473 20.9264C48.3613 21.2998 48.3326 21.6732 48.3326 22.061C48.3326 22.2908 48.3613 22.5206 48.39 22.7361C48.304 23.167 48.175 23.5404 47.9457 23.8564C47.6592 24.2442 47.2723 24.4452 46.8137 24.4452C46.3552 24.4452 46.04 24.3303 45.868 24.1005C45.6961 23.8707 45.6101 23.4542 45.6101 22.8366V7.62656C45.3665 8.04307 45.0942 8.35905 44.7933 8.58885C44.4924 8.81866 44.1342 9.0341 43.7616 9.23517L43.4034 9.43625C42.6439 9.91022 42.2714 10.5565 42.2714 11.3896V22.4345C42.2427 22.7504 42.1854 23.0664 42.0564 23.3537C41.9275 23.6696 41.7412 23.9138 41.5119 24.1292C41.2683 24.3303 40.9817 24.4309 40.6378 24.4309C40.2939 24.4309 40.0503 24.3734 39.864 24.2585C39.6921 24.1436 39.5775 23.9713 39.5201 23.7271C39.4628 23.4829 39.4342 23.1813 39.4342 22.8222V12.1939C39.0759 12.9695 38.4884 13.6301 37.6573 14.1759C36.8406 14.7217 35.9665 15.21 35.0351 15.6553C34.4906 15.9282 33.989 16.1867 33.5018 16.4596C32.5561 16.9766 31.7537 17.5655 31.0515 18.2549C30.3637 18.9443 29.8909 19.8205 29.6329 20.9264C29.547 21.2998 29.5183 21.6732 29.5183 22.061C29.5183 22.693 29.6186 23.3106 29.8336 23.9282C30.0485 24.5458 30.3637 25.0772 30.7793 25.5224C31.1662 25.9246 31.5817 26.2118 32.0546 26.4129C32.5275 26.614 33.0147 26.7145 33.5448 26.7145C34.3043 26.7145 34.9204 26.5135 35.3933 26.1257C35.8662 25.7379 36.2531 25.2208 36.5397 24.5745C36.7116 25.2352 37.0125 25.7522 37.4424 26.14C37.8723 26.5278 38.4598 26.7145 39.2192 26.7145C40.2366 26.7145 41.0534 26.4416 41.6552 25.8959C41.9991 25.5942 42.2857 25.2208 42.5293 24.7899C42.6439 25.1346 42.7872 25.4363 42.9878 25.7091C43.475 26.3698 44.3061 26.7002 45.4811 26.7002C46.3409 26.7002 47.1003 26.456 47.7451 25.982C48.218 25.623 48.5906 25.1059 48.8772 24.4452C49.0634 24.8474 49.2927 25.2208 49.5936 25.5368C49.9805 25.9389 50.3961 26.2262 50.8689 26.4273C51.3418 26.6284 51.829 26.7289 52.3592 26.7289C53.1186 26.7289 53.7348 26.5278 54.2076 26.14C54.6805 25.7522 55.0674 25.2352 55.354 24.5889C55.5259 25.2495 55.8268 25.7666 56.2567 26.1544C56.6866 26.5422 57.2741 26.7289 58.0336 26.7289C59.0509 26.7289 59.8677 26.456 60.4695 25.9102C60.8134 25.6086 61.1 25.2352 61.3436 24.8043C61.4583 25.149 61.6015 25.4506 61.8022 25.7235C62.2893 26.3842 63.1204 26.7145 64.2954 26.7145C65.1552 26.7145 65.9147 26.4704 66.5595 25.9964C67.4479 25.3357 68.0067 24.1436 68.236 22.4201H67.2616L67.2759 22.3626ZM36.0954 22.3196C36.0954 22.7217 36.0238 23.0951 35.8805 23.4686C35.7372 23.842 35.4793 24.1149 35.1211 24.3016C34.8918 24.4165 34.6768 24.4596 34.4906 24.4596C34.118 24.4596 33.8171 24.316 33.5878 24.0287C33.1293 23.4686 32.9 22.6643 32.9 21.6014C32.9 20.3088 33.1436 19.289 33.6451 18.5422C34.032 17.9677 34.6482 17.4363 35.5223 16.9336L36.1098 16.6032V22.3196H36.0954ZM54.9098 22.3196C54.9098 22.7217 54.8381 23.0951 54.6948 23.4686C54.5515 23.842 54.2936 24.1149 53.9354 24.3016C53.7061 24.4165 53.4912 24.4596 53.3049 24.4596C52.9323 24.4596 52.6314 24.316 52.4022 24.0287C51.9436 23.4686 51.7143 22.6643 51.7143 21.6014C51.7143 20.3088 51.9579 19.289 52.4595 18.5422C52.8464 17.9677 53.4625 17.4363 54.3366 16.9336L54.9241 16.6032V22.3196H54.9098Z" fill="#0E2829"/>
<path d="M68.2216 24.9336H65.0978C62.5329 24.9336 60.4551 27.0161 60.4551 29.5871V32.4309C60.4551 36.5817 58.8073 38.1903 58.2771 38.6068C59.0222 38.3483 59.753 38.0754 60.4551 37.7594C66.2155 35.2029 70.8725 30.6212 73.5378 24.9192C73.896 24.158 74.2113 23.3824 74.4835 22.5924C74.3402 22.8079 72.893 24.9192 68.2216 24.9192V24.9336Z" fill="#32B67A"/>
</svg>
