<svg width="100" height="100" viewBox="0 0 100 100" fill="none" xmlns="http://www.w3.org/2000/svg">
<path d="M50 45.3125V20.3125" stroke="#79F0B4" stroke-width="4" stroke-linecap="round" stroke-linejoin="round"/>
<path d="M17.2719 36.064L43.6656 17.0609" stroke="#79F0B4" stroke-width="4" stroke-linecap="round" stroke-linejoin="round"/>
<path d="M22.7547 80.0172L13.1829 48.1078" stroke="#79F0B4" stroke-width="4" stroke-linecap="round" stroke-linejoin="round"/>
<path d="M67.1875 87.5H32.8125" stroke="#79F0B4" stroke-width="4" stroke-linecap="round" stroke-linejoin="round"/>
<path d="M56.3344 17.0609L82.8125 36.125" stroke="#79F0B4" stroke-width="4" stroke-linecap="round" stroke-linejoin="round"/>
<path d="M57.4407 50.7437L81.6204 43.0062" stroke="#79F0B4" stroke-width="4" stroke-linecap="round" stroke-linejoin="round"/>
<path d="M18.3796 43.0062L42.5593 50.7437" stroke="#79F0B4" stroke-width="4" stroke-linecap="round" stroke-linejoin="round"/>
<path d="M29.5906 81.1875L45.4062 59.4406" stroke="#79F0B4" stroke-width="4" stroke-linecap="round" stroke-linejoin="round"/>
<path d="M70.4078 81.1859L54.5938 59.4406" stroke="#79F0B4" stroke-width="4" stroke-linecap="round" stroke-linejoin="round"/>
<path d="M50 60.9375C54.3147 60.9375 57.8125 57.4397 57.8125 53.125C57.8125 48.8103 54.3147 45.3125 50 45.3125C45.6853 45.3125 42.1875 48.8103 42.1875 53.125C42.1875 57.4397 45.6853 60.9375 50 60.9375Z" stroke="#79F0B4" stroke-width="4" stroke-linecap="round" stroke-linejoin="round"/>
<path d="M86.8172 48.1078L77.2454 80.0172" stroke="#79F0B4" stroke-width="4" stroke-linecap="round" stroke-linejoin="round"/>
<path d="M50 20.3125C54.3147 20.3125 57.8125 16.8147 57.8125 12.5C57.8125 8.18528 54.3147 4.6875 50 4.6875C45.6853 4.6875 42.1875 8.18528 42.1875 12.5C42.1875 16.8147 45.6853 20.3125 50 20.3125Z" stroke="#79F0B4" stroke-width="4" stroke-linecap="round" stroke-linejoin="round"/>
<path d="M89.0625 48.4375C93.3772 48.4375 96.875 44.9397 96.875 40.625C96.875 36.3103 93.3772 32.8125 89.0625 32.8125C84.7478 32.8125 81.25 36.3103 81.25 40.625C81.25 44.9397 84.7478 48.4375 89.0625 48.4375Z" stroke="#79F0B4" stroke-width="4" stroke-linecap="round" stroke-linejoin="round"/>
<path d="M75 95.3125C79.3147 95.3125 82.8125 91.8147 82.8125 87.5C82.8125 83.1853 79.3147 79.6875 75 79.6875C70.6853 79.6875 67.1875 83.1853 67.1875 87.5C67.1875 91.8147 70.6853 95.3125 75 95.3125Z" stroke="#79F0B4" stroke-width="4" stroke-linecap="round" stroke-linejoin="round"/>
<path d="M25 95.3125C29.3147 95.3125 32.8125 91.8147 32.8125 87.5C32.8125 83.1853 29.3147 79.6875 25 79.6875C20.6853 79.6875 17.1875 83.1853 17.1875 87.5C17.1875 91.8147 20.6853 95.3125 25 95.3125Z" stroke="#79F0B4" stroke-width="4" stroke-linecap="round" stroke-linejoin="round"/>
<path d="M10.9375 48.4375C15.2522 48.4375 18.75 44.9397 18.75 40.625C18.75 36.3103 15.2522 32.8125 10.9375 32.8125C6.62278 32.8125 3.125 36.3103 3.125 40.625C3.125 44.9397 6.62278 48.4375 10.9375 48.4375Z" stroke="#79F0B4" stroke-width="4" stroke-linecap="round" stroke-linejoin="round"/>
</svg>
