<svg width="1438" height="777" viewBox="0 0 1438 777" fill="none" xmlns="http://www.w3.org/2000/svg">
<mask id="mask0_882_3721" style="mask-type:alpha" maskUnits="userSpaceOnUse" x="0" y="0" width="1440" height="902">
<path fill-rule="evenodd" clip-rule="evenodd" d="M0 67.5606C720 -84.1586 1440 67.0606 1440 67.0606L1440 239V662.341V833.781C720 985.5 0 834.281 0 834.281V662.341V239V67.5606Z" fill="#0E2829"/>
</mask>
<g mask="url(#mask0_882_3721)">
<path opacity="0.05" d="M1254.77 262.903C1253.87 262.903 1253.04 263.093 1252.25 263.379L1201.74 175.827L1242.73 104.772C1243.52 105.057 1244.38 105.248 1245.26 105.248C1248.85 105.248 1251.8 102.629 1252.37 99.2016H1357.06C1357.63 102.629 1360.58 105.248 1364.17 105.248C1368.17 105.248 1371.4 102.011 1371.4 98.0114C1371.4 95.7738 1370.36 93.7743 1368.74 92.4413L1420.89 2.05687C1421.68 2.34251 1422.54 2.53296 1423.42 2.53296C1427.41 2.53296 1430.65 -0.704407 1430.65 -4.70351C1430.65 -8.70261 1427.41 -11.94 1423.42 -11.94C1422.51 -11.94 1421.68 -11.7495 1420.89 -11.4639L1397.29 -52.3594L1438 -122.248L1435.95 -123.439L1395.91 -54.7398L1368.72 -101.848C1370.33 -103.181 1371.38 -105.157 1371.38 -107.418C1371.38 -109.68 1370.26 -111.822 1368.53 -113.131L1382.92 -140.173L1380.83 -141.292L1366.43 -114.25C1365.72 -114.488 1364.96 -114.655 1364.15 -114.655C1360.56 -114.655 1357.6 -112.036 1357.03 -108.609H1251.28C1249.99 -110.561 1247.75 -111.87 1245.23 -111.87C1244.99 -111.87 1244.78 -111.822 1244.54 -111.798L1228.2 -141.316L1226.1 -140.173L1242.14 -111.179C1239.67 -110.013 1237.95 -107.537 1237.95 -104.633C1237.95 -102.777 1238.67 -101.11 1239.81 -99.8249L1188.82 -11.4877C1188.04 -11.7733 1187.18 -11.9638 1186.3 -11.9638C1182.71 -11.9638 1179.76 -9.34532 1179.18 -5.91753H1164.27L1078.26 -154.979C1080.02 -156.288 1081.18 -158.383 1081.18 -160.764C1081.18 -164.763 1077.95 -168 1073.95 -168C1070.36 -168 1067.38 -165.358 1066.84 -161.906H882.087C881.539 -165.358 878.565 -168 874.973 -168C870.975 -168 867.74 -164.763 867.74 -160.764C867.74 -158.502 868.787 -156.526 870.404 -155.193L782.634 -3.10863H718.846C718.275 -6.53642 715.324 -9.15489 711.732 -9.15489C711.446 -9.15489 711.185 -9.10728 710.899 -9.05966L659.031 -98.9203C660.721 -100.253 661.839 -102.277 661.839 -104.61C661.839 -108.609 658.603 -111.846 654.606 -111.846C651.013 -111.846 648.063 -109.228 647.492 -105.8H542.733C542.162 -109.228 539.212 -111.846 535.619 -111.846C532.026 -111.846 529.314 -109.442 528.577 -106.228L500.43 -155.003C502.119 -156.336 503.237 -158.359 503.237 -160.692C503.237 -164.691 500.002 -167.929 496.005 -167.929C492.412 -167.929 489.462 -165.31 488.891 -161.882H303.499C302.928 -165.31 299.978 -167.929 296.385 -167.929C292.388 -167.929 289.152 -164.691 289.152 -160.692C289.152 -158.193 290.413 -156.003 292.316 -154.693L200.596 4.22305C200.453 4.22305 200.334 4.17543 200.191 4.17543C196.599 4.17543 193.648 6.7939 193.077 10.2217H1V12.6021H193.077C193.648 16.0299 196.599 18.6484 200.191 18.6484C200.334 18.6484 200.453 18.6246 200.596 18.6008L292.316 177.517C290.389 178.827 289.128 181.017 289.128 183.516C289.128 186.563 291.031 189.181 293.696 190.229L248.3 268.901H57.0315V271.282H246.944L227.482 305.012H187.106C186.535 301.585 183.584 298.966 179.992 298.966C175.994 298.966 172.759 302.203 172.759 306.203C172.759 308.44 173.805 310.44 175.423 311.773L150.798 354.454H1V356.834H149.394L123.222 402.157C122.437 401.871 121.581 401.681 120.7 401.681C117.108 401.681 114.157 404.299 113.586 407.727H57.0315V410.108H113.586C114.157 413.536 117.108 416.154 120.7 416.154C121.605 416.154 122.437 415.964 123.222 415.678L175.376 506.062C173.758 507.395 172.711 509.371 172.711 511.632C172.711 513.894 173.758 515.87 175.376 517.203L123.222 607.587C122.437 607.301 121.581 607.111 120.7 607.111C117.108 607.111 114.157 609.729 113.586 613.157H57.0315V615.538H113.586C114.157 618.965 117.108 621.584 120.7 621.584C121.605 621.584 122.437 621.393 123.222 621.108L175.376 711.492C173.758 712.825 172.711 714.801 172.711 717.062C172.711 719.324 173.71 721.228 175.281 722.537L123.341 809.042C122.509 808.708 121.628 808.518 120.7 808.518C117.155 808.518 114.229 811.065 113.586 814.421L57.0315 813.279L56.9839 815.659L113.539 816.802C114.039 820.301 117.036 822.991 120.677 822.991C121.557 822.991 122.414 822.8 123.199 822.515L178.921 919.445L180.991 918.255L125.269 821.301C126.887 819.968 127.933 817.992 127.933 815.73C127.933 813.469 126.934 811.565 125.364 810.255L177.303 723.751C178.136 724.084 179.016 724.275 179.944 724.275C183.537 724.275 186.487 721.656 187.058 718.229H291.817C292.388 721.656 295.338 724.275 298.931 724.275C302.928 724.275 306.164 721.038 306.164 717.038C306.164 714.658 304.998 712.539 303.213 711.23L309.423 700.471L355.152 779.715C352.44 780.762 350.513 783.381 350.513 786.451C350.513 789.522 352.44 792.141 355.152 793.188L263.289 952.39C262.195 951.724 260.934 951.319 259.554 951.319C255.961 951.319 253.011 953.937 252.44 957.365H59.839V959.746H252.488C253.059 963.173 256.009 965.792 259.602 965.792C260.149 965.792 260.672 965.72 261.172 965.601L353.201 1125.09C351.584 1126.42 350.537 1128.4 350.537 1130.66C350.537 1132.92 351.584 1134.9 353.201 1136.23L261.172 1295.72C260.672 1295.6 260.125 1295.53 259.602 1295.53C255.604 1295.53 252.369 1298.76 252.369 1302.76C252.369 1306.76 255.604 1310 259.602 1310C263.599 1310 266.834 1306.76 266.834 1302.76C266.834 1300.17 265.454 1297.91 263.385 1296.62L355.271 1137.42C356.057 1137.71 356.913 1137.9 357.793 1137.9C361.791 1137.9 365.026 1134.66 365.026 1130.66C365.026 1126.66 361.791 1123.42 357.793 1123.42C356.889 1123.42 356.057 1123.61 355.271 1123.9L263.385 964.697C265.431 963.411 266.834 961.15 266.834 958.555C266.834 956.794 266.192 955.223 265.145 953.961L357.651 793.664C357.651 793.664 357.746 793.664 357.793 793.664C361.386 793.664 364.336 791.046 364.907 787.618H552.726C553.297 791.046 556.247 793.664 559.84 793.664C560.506 793.664 561.125 793.545 561.72 793.378L657.366 959.127L659.436 957.937L563.909 792.402C565.812 791.093 567.073 788.903 567.073 786.428C567.073 783.952 565.812 781.738 563.909 780.453L655.867 621.084C656.652 621.37 657.508 621.56 658.389 621.56C661.982 621.56 664.932 618.942 665.503 615.514H851.656C852.227 618.942 855.177 621.56 858.77 621.56C859.246 621.56 859.722 621.512 860.174 621.417L951.799 780.215C949.658 781.476 948.206 783.785 948.206 786.451C948.206 790.45 951.442 793.688 955.439 793.688C959.032 793.688 961.982 791.069 962.553 787.642H1150.37C1150.94 791.069 1153.89 793.688 1157.49 793.688C1161.48 793.688 1164.72 790.45 1164.72 786.451C1164.72 783.547 1163.01 781.072 1160.55 779.905L1252.2 621.084C1252.99 621.37 1253.85 621.56 1254.73 621.56C1258.32 621.56 1261.27 618.942 1261.84 615.514H1436.95V613.133H1261.84C1261.27 609.706 1258.32 607.087 1254.73 607.087C1253.82 607.087 1252.99 607.278 1252.2 607.563L1160.55 448.742C1163.01 447.575 1164.74 445.1 1164.74 442.196C1164.74 439.292 1163.03 436.816 1160.58 435.65L1252.23 276.828C1253.01 277.114 1253.87 277.304 1254.75 277.304C1258.34 277.304 1261.29 274.686 1261.86 271.258H1436.98V268.878H1261.86C1261.29 265.45 1258.34 262.831 1254.75 262.831L1254.77 262.903ZM1200.36 173.471L1160.6 104.581C1163.05 103.415 1164.79 100.939 1164.79 98.0352C1164.79 94.0361 1161.55 90.7987 1157.56 90.7987C1153.96 90.7987 1151.01 93.4172 1150.44 96.845H1125.06L1170.43 18.2199C1171.21 18.5055 1172.07 18.696 1172.95 18.696C1176.54 18.696 1179.49 16.0775 1180.06 12.6497H1194.6L1240.66 92.4889C1239.05 93.8219 1238 95.7976 1238 98.059C1238 100.32 1239.05 102.296 1240.66 103.629L1200.34 173.494L1200.36 173.471ZM1186.37 193.514C1182.78 193.514 1179.83 196.132 1179.26 199.56H1073.88C1073.31 196.132 1070.36 193.514 1066.76 193.514C1066.57 193.514 1066.41 193.561 1066.24 193.561L1061.15 184.754H1066.88C1067.45 188.182 1070.4 190.8 1074 190.8C1077.99 190.8 1081.23 187.563 1081.23 183.564C1081.23 181.207 1080.09 179.112 1078.33 177.779L1123.65 99.2254H1150.42C1150.99 102.653 1153.94 105.272 1157.53 105.272C1157.77 105.272 1157.99 105.224 1158.22 105.2L1198.98 175.827L1188.58 193.871C1187.89 193.657 1187.16 193.49 1186.37 193.49V193.514ZM1010.07 296.229C1006.47 296.229 1003.52 298.847 1002.95 302.275H898.408C897.837 298.847 894.887 296.229 891.294 296.229C890.366 296.229 889.51 296.419 888.701 296.729L866.122 257.618L908.163 184.778H1056.87L1062.67 194.823C1060.79 196.132 1059.56 198.298 1059.56 200.774C1059.56 203.726 1061.32 206.249 1063.86 207.392L1012.35 296.657C1011.64 296.419 1010.88 296.252 1010.09 296.252L1010.07 296.229ZM851.703 613.205H665.55C664.979 609.777 662.029 607.158 658.436 607.158C657.532 607.158 656.7 607.349 655.914 607.635L563.956 448.266C565.859 446.956 567.121 444.766 567.121 442.291C567.121 439.815 565.859 437.602 563.956 436.316L639.926 304.679H647.516C648.087 308.107 651.037 310.725 654.63 310.725C658.627 310.725 661.863 307.488 661.863 303.489C661.863 301.18 660.744 299.133 659.055 297.8L674.306 271.377H850.371C850.942 274.805 853.892 277.423 857.485 277.423C857.89 277.423 858.27 277.376 858.627 277.304L950.728 436.887C949.11 438.22 948.087 440.196 948.087 442.458C948.087 444.719 949.086 446.576 950.609 447.909L858.698 607.182C855.153 607.254 852.274 609.825 851.703 613.229V613.205ZM364.741 441.101C364.122 437.792 361.243 435.269 357.746 435.221L350.894 423.343L355.248 415.797C356.009 416.083 356.818 416.249 357.698 416.249C361.291 416.249 364.241 413.631 364.812 410.203H469.571C470.142 413.631 473.092 416.249 476.685 416.249C480.682 416.249 483.918 413.012 483.918 409.013C483.918 406.799 482.895 404.847 481.324 403.514L534.905 310.678C535.143 310.702 535.381 310.749 535.619 310.749C539.212 310.749 542.162 308.131 542.733 304.703H635.952L560.673 435.173C560.387 435.15 560.125 435.102 559.84 435.102C556.247 435.102 553.297 437.721 552.726 441.148H364.717L364.741 441.101ZM303.261 505.896L349.537 425.723L355.271 435.65C352.464 436.649 350.418 439.292 350.418 442.458C350.418 445.623 352.369 448.17 355.105 449.218L309.471 528.272L303.261 517.512C305.045 516.203 306.211 514.084 306.211 511.704C306.211 509.323 305.045 507.205 303.261 505.896ZM265.716 264.617L311.779 184.778H345.826L353.416 197.727C351.607 199.036 350.442 201.155 350.442 203.559C350.442 205.963 351.631 208.106 353.463 209.415L301.476 299.49C300.691 299.204 299.835 299.014 298.954 299.014C295.362 299.014 292.411 301.632 291.84 305.06H282.656L265.716 275.709C267.334 274.376 268.381 272.401 268.381 270.139C268.381 267.878 267.334 265.902 265.716 264.569V264.617ZM358.245 105.296C361.838 105.296 364.788 102.677 365.359 99.2492H528.505C528.815 101.082 529.79 102.653 531.194 103.748L485.797 182.397H347.206L330.051 153.142L357.698 105.248C357.889 105.248 358.055 105.296 358.245 105.296ZM481.206 -7.48859L532.026 -95.5402L590.556 5.88934C588.938 7.22237 587.891 9.19812 587.891 11.4595C587.891 13.7209 588.938 15.6967 590.556 17.0297L544.494 96.8688H542.781C542.21 93.441 539.259 90.8226 535.667 90.8226C534.334 90.8226 533.121 91.2034 532.05 91.8223L481.229 3.77077C482.871 2.43773 483.965 0.438187 483.965 -1.84702C483.965 -4.13222 482.895 -6.13176 481.253 -7.4648L481.206 -7.48859ZM701.882 12.6497L656.604 91.1082C655.962 90.9178 655.32 90.7987 654.63 90.7987C651.037 90.7987 648.087 93.4172 647.516 96.845H547.23L592.602 18.2199C593.388 18.5055 594.244 18.696 595.124 18.696C598.717 18.696 601.667 16.0775 602.238 12.6497H701.882ZM768.548 12.6497C769.12 16.0775 772.07 18.696 775.662 18.696C776.567 18.696 777.399 18.5055 778.184 18.2199L856.962 154.737L832.955 196.346C832.812 196.346 832.693 196.299 832.55 196.299C828.958 196.299 826.008 198.917 825.437 202.345H718.87C718.346 199.179 715.753 196.727 712.541 196.37L659.079 103.701C660.768 102.368 661.886 100.344 661.886 98.0114C661.886 96.2023 661.196 94.5836 660.126 93.322L706.688 12.6021H768.548V12.6497ZM825.437 -0.680618C826.008 2.74718 828.958 5.36565 832.55 5.36565C832.693 5.36565 832.812 5.34184 832.955 5.31804L884.728 95.0121C884.299 95.9405 884.061 96.9402 884.061 98.0352C884.061 100.225 885.037 102.153 886.56 103.463L858.365 152.333L780.278 17.0059C781.896 15.6728 782.943 13.6971 782.943 11.4357C782.943 9.17432 781.896 7.19856 780.278 5.86552L784.061 -0.704407H825.46L825.437 -0.680618ZM954.749 99.2254L906.76 182.373H882.11C881.539 178.946 878.589 176.327 874.996 176.327C874.092 176.327 873.236 176.518 872.451 176.803L859.793 154.856L888.701 104.772C889.51 105.081 890.366 105.272 891.294 105.272C894.887 105.272 897.837 102.653 898.408 99.2254H954.773H954.749ZM1002.95 99.2254C1003.52 102.653 1006.47 105.272 1010.07 105.272C1010.38 105.272 1010.66 105.224 1010.95 105.176L1055.49 182.35H909.519L957.509 99.2016H1002.95V99.2254ZM1066.79 2.55675C1070.38 2.55675 1073.33 -0.0617065 1073.9 -3.4895H1162.98L1168.38 5.88934C1166.76 7.22237 1165.72 9.19812 1165.72 11.4595C1165.72 13.7209 1166.76 15.6967 1168.38 17.0297L1122.32 96.8688H1017.2C1016.82 94.5598 1015.35 92.6317 1013.3 91.6081L1064.84 2.29491C1065.46 2.46153 1066.1 2.60437 1066.79 2.60437V2.55675ZM1074.02 176.303C1070.43 176.303 1067.48 178.922 1066.91 182.35H1059.79L1014.44 103.748C1015.87 102.653 1016.9 101.058 1017.2 99.2016H1120.94L1076.23 176.684C1075.54 176.47 1074.81 176.303 1074.02 176.303ZM654.63 296.205C651.037 296.205 648.087 298.823 647.516 302.251H641.282L655.914 276.9C656.7 277.185 657.556 277.376 658.436 277.376C662.029 277.376 664.979 274.757 665.55 271.329H671.546L656.961 296.633C656.224 296.371 655.439 296.205 654.63 296.205ZM542.757 302.251C542.186 298.823 539.236 296.205 535.643 296.205C534.81 296.205 534.049 296.371 533.311 296.633L482.252 208.153C483.299 206.892 483.942 205.297 483.942 203.559C483.942 200.774 482.348 198.394 480.04 197.18L487.201 184.778H488.914C489.485 188.205 492.436 190.824 496.028 190.824C500.025 190.824 503.261 187.586 503.261 183.587C503.261 181.278 502.143 179.231 500.454 177.898L544.232 102.034H560.03L653.844 264.593C652.227 265.926 651.18 267.902 651.18 270.163C651.18 272.044 651.917 273.71 653.059 274.995L637.332 302.275H542.733L542.757 302.251ZM476.685 401.705C473.092 401.705 470.142 404.323 469.571 407.751H364.812C364.241 404.323 361.291 401.705 357.698 401.705C356.984 401.705 356.295 401.848 355.628 402.038L303.546 311.797C305.164 310.464 306.211 308.488 306.211 306.226C306.211 303.965 305.164 301.989 303.546 300.656L355.628 210.415C356.295 210.605 356.961 210.748 357.698 210.748C361.291 210.748 364.241 208.129 364.812 204.702H469.571C470.142 208.129 473.092 210.748 476.685 210.748C477.613 210.748 478.493 210.557 479.302 210.248L530.29 298.585C529.124 299.871 528.41 301.561 528.41 303.417C528.41 306.298 530.099 308.773 532.55 309.94L479.302 402.181C478.493 401.871 477.613 401.681 476.685 401.681V401.705ZM476.685 196.275C473.092 196.275 470.142 198.893 469.571 202.321H364.812C364.241 198.893 361.291 196.275 357.698 196.275C356.961 196.275 356.247 196.418 355.581 196.632L348.61 184.73H484.441L477.708 196.394C477.375 196.346 477.042 196.299 476.685 196.299V196.275ZM543.09 99.2016L542.852 99.6301H542.686C542.709 99.4873 542.733 99.3445 542.757 99.2016H543.114H543.09ZM647.492 99.2016C647.492 99.3445 647.539 99.4873 647.563 99.6301H561.41L561.172 99.2016H647.492ZM709.115 196.799L656.176 105.081C656.438 105.034 656.7 104.938 656.961 104.843L709.9 196.561C709.638 196.632 709.376 196.703 709.138 196.799H709.115ZM558.674 99.6301H545.612L545.85 99.2016H558.436L558.674 99.6301ZM535.643 105.272C537.784 105.272 539.688 104.32 541.02 102.844L498.384 176.732C497.646 176.47 496.861 176.303 496.028 176.303C493.911 176.303 492.007 177.232 490.675 178.708L533.287 104.843C534.025 105.105 534.81 105.272 535.619 105.272H535.643ZM488.914 182.373H488.581L489.176 181.326C489.057 181.659 488.962 182.016 488.914 182.373ZM665.574 268.973C665.003 265.545 662.053 262.927 658.46 262.927C657.556 262.927 656.723 263.117 655.938 263.403L562.814 102.034H648.61C649.705 103.701 651.465 104.843 653.511 105.176L707.116 198.06C705.546 199.393 704.546 201.345 704.546 203.559C704.546 205.916 705.688 207.963 707.401 209.296L672.974 268.973H665.598H665.574ZM344.47 182.373H313.182L328.695 155.475L344.47 182.373ZM291.864 307.44C292.435 310.868 295.386 313.487 298.978 313.487C299.74 313.487 300.453 313.344 301.12 313.13L353.178 403.347C351.536 404.68 350.442 406.68 350.442 408.965C350.442 411.25 351.512 413.25 353.178 414.583L349.514 420.939L284.013 307.464H291.84L291.864 307.44ZM857.485 262.903C853.892 262.903 850.942 265.521 850.371 268.949H675.686L709.495 210.367C710.209 210.605 710.97 210.772 711.756 210.772C715.348 210.772 718.299 208.153 718.87 204.725H825.437C826.008 208.153 828.958 210.772 832.55 210.772C833.764 210.772 834.858 210.462 835.858 209.939L863.362 257.594L860.007 263.379C859.222 263.093 858.365 262.903 857.485 262.903ZM837.785 208.51C839.022 207.201 839.783 205.463 839.783 203.535C839.783 200.584 838.023 198.06 835.501 196.941L858.413 157.236L870.404 178.017C868.81 179.35 867.763 181.326 867.763 183.564C867.763 187.563 870.999 190.8 874.996 190.8C878.589 190.8 881.539 188.182 882.11 184.754H905.38L864.718 255.214L837.761 208.51H837.785ZM1418.87 -10.2499C1417.25 -8.91684 1416.21 -6.9411 1416.21 -4.67972C1416.21 -2.41832 1417.25 -0.442566 1418.87 0.890472L1366.72 91.2748C1365.93 90.9892 1365.08 90.7987 1364.2 90.7987C1360.6 90.7987 1357.65 93.4172 1357.08 96.845H1252.39C1251.82 93.4172 1248.87 90.7987 1245.28 90.7987C1244.49 90.7987 1243.78 90.9416 1243.07 91.1796L1197.74 12.6497H1351.7C1352.28 16.0775 1355.23 18.696 1358.82 18.696C1362.82 18.696 1366.05 15.4586 1366.05 11.4595C1366.05 9.22192 1365 7.22238 1363.41 5.91315L1395.96 -49.9314L1418.87 -10.2023V-10.2499ZM1241.76 -98.3014C1242.81 -97.7301 1243.97 -97.3731 1245.26 -97.3731C1249.25 -97.3731 1252.49 -100.61 1252.49 -104.61C1252.49 -105.157 1252.42 -105.705 1252.3 -106.228H1357.06C1357.63 -102.8 1360.58 -100.182 1364.17 -100.182C1365.08 -100.182 1365.91 -100.372 1366.69 -100.658L1394.55 -52.3594L1361.32 4.65154C1360.53 4.34207 1359.67 4.17543 1358.77 4.17543C1355.18 4.17543 1352.23 6.7939 1351.66 10.2217H1196.32L1190.91 0.842865C1192.53 -0.490158 1193.58 -2.46591 1193.58 -4.72731C1193.58 -6.98871 1192.53 -8.96445 1190.91 -10.2975L1241.74 -98.349L1241.76 -98.3014ZM1179.26 -3.51329C1179.83 -0.085495 1182.78 2.53296 1186.37 2.53296C1187.16 2.53296 1187.87 2.39012 1188.58 2.15208L1193.25 10.2217H1180.09C1179.52 6.7939 1176.57 4.17543 1172.97 4.17543C1172.07 4.17543 1171.24 4.36588 1170.45 4.65154L1165.74 -3.51329H1179.28H1179.26ZM872.474 -153.956C873.26 -153.67 874.116 -153.479 874.996 -153.479C878.565 -153.479 881.516 -156.074 882.11 -159.502H1066.88C1067.48 -156.098 1070.43 -153.479 1074 -153.479C1074.76 -153.479 1075.5 -153.622 1076.19 -153.86L1161.58 -5.89371H1073.88C1073.31 -9.32152 1070.36 -11.94 1066.76 -11.94C1062.77 -11.94 1059.53 -8.70261 1059.53 -4.70351C1059.53 -2.22787 1060.77 -0.0616913 1062.65 1.24753L1010.95 90.8702C1010.66 90.8464 1010.38 90.775 1010.07 90.775C1006.47 90.775 1003.52 93.3934 1002.95 96.8212H898.408C897.837 93.3934 894.887 90.775 891.294 90.775C889.32 90.775 887.535 91.5605 886.227 92.8459L835.406 4.77054C837.999 3.67555 839.807 1.10471 839.807 -1.89461C839.807 -4.89394 837.904 -7.56 835.239 -8.60739L890.509 -109.275L888.415 -110.418L832.788 -9.10727C832.788 -9.10727 832.646 -9.10727 832.574 -9.10727C828.982 -9.10727 826.031 -6.48883 825.46 -3.06104H785.441L872.498 -153.932L872.474 -153.956ZM778.184 4.67532C777.399 4.38966 776.543 4.19925 775.662 4.19925C772.07 4.19925 769.12 6.8177 768.548 10.2455H708.044L710.923 5.27042C711.208 5.29424 711.47 5.36565 711.756 5.36565C715.348 5.36565 718.299 2.74718 718.87 -0.680618H781.301L778.208 4.69913L778.184 4.67532ZM708.567 -8.36934C706.164 -7.17914 704.523 -4.75111 704.523 -1.89461C704.523 0.319168 705.546 2.2711 707.092 3.60414L703.262 10.2455H602.262C601.691 6.8177 598.741 4.19925 595.148 4.19925C594.244 4.19925 593.411 4.38966 592.626 4.67532L533.549 -97.7063C534.215 -97.4921 534.929 -97.3493 535.667 -97.3493C539.259 -97.3493 542.21 -99.9677 542.781 -103.396H647.539C648.11 -99.9677 651.061 -97.3493 654.653 -97.3493C655.486 -97.3493 656.247 -97.5159 656.985 -97.7777L708.591 -8.36934H708.567ZM294.505 -153.718C295.1 -153.551 295.719 -153.432 296.385 -153.432C299.978 -153.432 302.928 -156.05 303.499 -159.478H488.891C489.462 -156.05 492.412 -153.432 496.005 -153.432C496.837 -153.432 497.622 -153.598 498.36 -153.86L530.623 -97.9444L479.112 -8.67879C478.35 -8.96445 477.541 -9.13107 476.661 -9.13107C472.664 -9.13107 469.428 -5.89371 469.428 -1.89461C469.428 2.10448 472.664 5.34186 476.661 5.34186C477.518 5.34186 478.327 5.17522 479.112 4.88957L530.147 93.322C529.314 94.298 528.719 95.4882 528.505 96.8212H365.359C364.788 93.3934 361.838 90.775 358.245 90.775C354.248 90.775 351.013 94.0123 351.013 98.0114C351.013 100.963 352.773 103.463 355.295 104.605L328.671 150.714L297.408 97.3925L295.362 98.6065L327.315 153.094L310.446 182.35H303.523C302.952 178.922 300.001 176.303 296.409 176.303C296.337 176.303 296.266 176.303 296.194 176.303L204.427 17.2915C206.259 15.9823 207.472 13.8399 207.472 11.4119C207.472 8.41258 205.664 5.86554 203.07 4.74675L294.505 -153.718ZM296.171 190.776C296.171 190.776 296.313 190.776 296.385 190.776C299.978 190.776 302.928 188.158 303.499 184.73H309.042L263.67 263.355C262.885 263.069 262.028 262.879 261.148 262.879C257.555 262.879 254.605 265.497 254.034 268.925H251.084L296.194 190.752L296.171 190.776ZM249.68 271.329H254.01C254.581 274.757 257.532 277.376 261.124 277.376C262.028 277.376 262.861 277.185 263.646 276.9L279.897 305.06H230.218L249.68 271.329ZM177.446 313.011C178.231 313.296 179.087 313.487 179.968 313.487C183.56 313.487 186.511 310.868 187.082 307.44H226.078L202.238 348.764C201.571 348.574 200.905 348.431 200.191 348.431C196.599 348.431 193.648 351.05 193.077 354.477H153.51L177.446 313.011ZM125.292 414.511C126.91 413.178 127.957 411.203 127.957 408.941C127.957 406.68 126.91 404.704 125.292 403.371L152.154 356.834H193.101C193.672 360.262 196.623 362.88 200.215 362.88C204.212 362.88 207.448 359.643 207.448 355.644C207.448 353.216 206.235 351.073 204.427 349.764L228.861 307.393H281.277L348.134 423.248L301.12 504.729C300.43 504.515 299.716 504.372 298.978 504.372C295.386 504.372 292.435 506.991 291.864 510.418H187.106C186.535 506.991 183.584 504.372 179.992 504.372C179.087 504.372 178.255 504.563 177.47 504.848L125.316 414.464L125.292 414.511ZM177.446 518.417C178.231 518.702 179.087 518.893 179.968 518.893C183.56 518.893 186.511 516.274 187.082 512.846H291.84C292.411 516.274 295.362 518.893 298.954 518.893C299.716 518.893 300.43 518.75 301.096 518.536L308.067 530.604L263.646 607.587C262.861 607.301 262.005 607.111 261.124 607.111C257.532 607.111 254.581 609.729 254.01 613.157H127.814C127.529 611.396 126.601 609.872 125.269 608.777L177.422 518.393L177.446 518.417ZM353.201 619.917L309.447 695.734L265.692 619.917C267.31 618.584 268.357 616.609 268.357 614.347C268.357 612.086 267.31 610.11 265.692 608.777L309.447 532.961L353.201 608.777C351.584 610.11 350.537 612.086 350.537 614.347C350.537 616.609 351.584 618.584 353.201 619.917ZM301.12 710.183C300.43 709.969 299.716 709.826 298.978 709.826C295.386 709.826 292.435 712.444 291.864 715.872H187.106C186.535 712.444 183.584 709.826 179.992 709.826C179.087 709.826 178.255 710.016 177.47 710.302L125.316 619.917C126.625 618.823 127.553 617.299 127.862 615.538H254.058C254.629 618.965 257.579 621.584 261.172 621.584C262.076 621.584 262.909 621.393 263.694 621.108L308.115 698.09L301.143 710.159L301.12 710.183ZM561.743 779.5C561.149 779.334 560.506 779.215 559.864 779.215C556.271 779.215 553.321 781.833 552.75 785.261H364.931C364.36 781.833 361.41 779.215 357.817 779.215C357.77 779.215 357.722 779.215 357.674 779.215L310.851 698.09L355.271 621.108C356.057 621.393 356.913 621.584 357.793 621.584C361.386 621.584 364.336 618.965 364.907 615.538H469.547C470.118 618.965 473.068 621.584 476.661 621.584C480.658 621.584 483.894 618.346 483.894 614.347C483.894 610.348 480.658 607.111 476.661 607.111C473.068 607.111 470.118 609.729 469.547 613.157H364.907C364.336 609.729 361.386 607.111 357.793 607.111C356.889 607.111 356.057 607.301 355.271 607.587L310.851 530.604L357.579 449.646C357.579 449.646 357.627 449.646 357.651 449.646C361.291 449.646 364.289 446.933 364.788 443.433H552.75C553.321 446.861 556.271 449.48 559.864 449.48C560.149 449.48 560.411 449.432 560.697 449.408L653.083 609.515C651.917 610.8 651.203 612.491 651.203 614.347C651.203 616.585 652.25 618.584 653.868 619.917L561.767 779.5H561.743ZM1250.18 608.777C1248.56 610.11 1247.52 612.086 1247.52 614.347C1247.52 616.609 1248.56 618.584 1250.18 619.917L1158.2 779.31C1157.96 779.31 1157.75 779.239 1157.51 779.239C1153.92 779.239 1150.97 781.857 1150.4 785.285H962.577C962.006 781.857 959.056 779.239 955.463 779.239C954.987 779.239 954.511 779.286 954.059 779.382L862.434 620.584C864.575 619.322 866.027 617.013 866.027 614.347C866.027 611.681 864.575 609.372 862.434 608.111L953.964 449.504C954.392 449.575 954.844 449.646 955.296 449.646C958.937 449.646 961.935 446.933 962.434 443.433H1150.4C1150.97 446.861 1153.92 449.48 1157.51 449.48C1157.75 449.48 1157.96 449.432 1158.2 449.408L1250.18 608.777ZM1158.2 435.055C1157.96 435.055 1157.75 434.983 1157.51 434.983C1153.92 434.983 1150.97 437.602 1150.4 441.029H962.387C961.744 437.673 958.818 435.15 955.296 435.15C954.892 435.15 954.511 435.197 954.131 435.269L862.029 275.686C863.647 274.353 864.694 272.377 864.694 270.115C864.694 267.854 863.647 265.878 862.029 264.545L864.694 259.927L886.607 297.895C885.037 299.228 884.014 301.18 884.014 303.417C884.014 307.417 887.25 310.654 891.247 310.654C894.839 310.654 897.79 308.035 898.361 304.608H1002.91C1003.48 308.035 1006.43 310.654 1010.02 310.654C1014.02 310.654 1017.25 307.417 1017.25 303.417C1017.25 301.061 1016.11 298.99 1014.37 297.681L1066.19 207.891C1066.36 207.891 1066.55 207.939 1066.72 207.939C1070.31 207.939 1073.26 205.321 1073.83 201.893H1179.21C1179.78 205.321 1182.73 207.939 1186.32 207.939C1190.32 207.939 1193.56 204.702 1193.56 200.703C1193.56 198.346 1192.41 196.251 1190.65 194.918L1200.31 178.184L1250.16 264.545C1248.54 265.878 1247.49 267.854 1247.49 270.115C1247.49 272.377 1248.54 274.353 1250.16 275.686L1158.18 435.055H1158.2Z" fill="white"/>
</g>
</svg>
