<svg width="1440" height="661" viewBox="0 0 1440 661" fill="none" xmlns="http://www.w3.org/2000/svg">
<mask id="mask0_882_3630" style="mask-type:alpha" maskUnits="userSpaceOnUse" x="0" y="-2" width="1440" height="663">
<path d="M1440 593.281C1440 593.281 720 744.5 0 592.781V-2H1440V593.281Z" fill="#0E2829"/>
</mask>
<g mask="url(#mask0_882_3630)">
<path opacity="0.05" d="M1250.53 113.772C1249.59 113.772 1248.73 113.969 1247.92 114.264L1195.68 23.6913L1238.08 -49.8159C1238.89 -49.5204 1239.77 -49.3234 1240.68 -49.3234C1244.4 -49.3234 1247.45 -52.0322 1248.04 -55.5783H1356.3C1356.89 -52.0322 1359.94 -49.3234 1363.65 -49.3234C1367.79 -49.3234 1371.13 -52.6725 1371.13 -56.8096C1371.13 -59.1244 1370.05 -61.1929 1368.38 -62.572L1422.31 -156.075C1423.12 -155.78 1424.01 -155.583 1424.92 -155.583C1429.05 -155.583 1432.4 -158.932 1432.4 -163.069C1432.4 -167.206 1429.05 -170.555 1424.92 -170.555C1423.98 -170.555 1423.12 -170.358 1422.31 -170.062L1397.9 -212.369L1440 -284.67L1437.88 -285.901L1396.48 -214.832L1368.35 -263.566C1370.03 -264.945 1371.11 -266.989 1371.11 -269.328C1371.11 -271.667 1369.95 -273.884 1368.16 -275.238L1383.04 -303.213L1380.88 -304.37L1365.99 -276.396C1365.25 -276.642 1364.47 -276.814 1363.63 -276.814C1359.91 -276.814 1356.86 -274.105 1356.27 -270.559H1246.91C1245.58 -272.579 1243.27 -273.933 1240.66 -273.933C1240.41 -273.933 1240.19 -273.884 1239.95 -273.859L1223.04 -304.395L1220.88 -303.213L1237.46 -273.219C1234.9 -272.012 1233.13 -269.451 1233.13 -266.447C1233.13 -264.526 1233.87 -262.802 1235.05 -261.472L1182.32 -170.087C1181.51 -170.383 1180.63 -170.58 1179.72 -170.58C1176 -170.58 1172.95 -167.871 1172.36 -164.325H1156.93L1067.99 -318.53C1069.81 -319.884 1071.02 -322.051 1071.02 -324.514C1071.02 -328.651 1067.67 -332 1063.54 -332C1059.82 -332 1056.75 -329.267 1056.18 -325.696H865.131C864.565 -329.267 861.489 -332 857.774 -332C853.641 -332 850.294 -328.651 850.294 -324.514C850.294 -322.174 851.377 -320.13 853.05 -318.751L762.286 -161.419H696.323C695.733 -164.965 692.682 -167.674 688.967 -167.674C688.672 -167.674 688.401 -167.625 688.106 -167.575L634.469 -260.537C636.216 -261.916 637.373 -264.009 637.373 -266.422C637.373 -270.559 634.026 -273.908 629.893 -273.908C626.178 -273.908 623.127 -271.2 622.536 -267.653H514.206C513.615 -271.2 510.564 -273.908 506.849 -273.908C503.134 -273.908 500.329 -271.421 499.566 -268.097L470.46 -318.554C472.207 -319.933 473.363 -322.027 473.363 -324.44C473.363 -328.577 470.017 -331.926 465.884 -331.926C462.168 -331.926 459.117 -329.217 458.527 -325.671H266.814C266.223 -329.217 263.172 -331.926 259.457 -331.926C255.324 -331.926 251.978 -328.577 251.978 -324.44C251.978 -321.854 253.281 -319.589 255.25 -318.234L160.402 -153.834C160.254 -153.834 160.131 -153.883 159.984 -153.883C156.268 -153.883 153.218 -151.175 152.627 -147.629H-46V-145.166H152.627C153.218 -141.62 156.268 -138.911 159.984 -138.911C160.131 -138.911 160.254 -138.936 160.402 -138.96L255.25 25.4398C253.257 26.7942 251.953 29.0597 251.953 31.6454C251.953 34.7975 253.921 37.5063 256.677 38.5898L209.733 119.977H11.9421V122.44H208.33L188.204 157.334H146.451C145.861 153.788 142.81 151.079 139.095 151.079C134.961 151.079 131.615 154.428 131.615 158.565C131.615 160.88 132.698 162.949 134.371 164.328L108.906 208.481H-46V210.944H107.454L80.3901 257.831C79.5782 257.535 78.6924 257.339 77.7821 257.339C74.0669 257.339 71.016 260.047 70.4255 263.593H11.9421V266.056H70.4255C71.016 269.602 74.0669 272.311 77.7821 272.311C78.717 272.311 79.5782 272.114 80.3901 271.818L134.322 365.321C132.649 366.7 131.566 368.744 131.566 371.084C131.566 373.423 132.649 375.467 134.322 376.846L80.3901 470.349C79.5782 470.054 78.6924 469.857 77.7821 469.857C74.0669 469.857 71.016 472.566 70.4255 476.112H11.9421V478.574H70.4255C71.016 482.12 74.0669 484.829 77.7821 484.829C78.717 484.829 79.5782 484.632 80.3901 484.337L134.322 577.84C132.649 579.219 131.566 581.263 131.566 583.602C131.566 585.942 132.6 587.912 134.223 589.266L80.5131 678.755C79.652 678.411 78.7416 678.214 77.7821 678.214C74.1161 678.214 71.0898 680.849 70.4255 684.321L11.9421 683.139L11.8929 685.601L70.3763 686.783C70.893 690.403 73.9931 693.186 77.7575 693.186C78.6678 693.186 79.5536 692.989 80.3655 692.693L137.988 792.969L140.128 791.737L82.506 691.438C84.1791 690.058 85.2617 688.015 85.2617 685.675C85.2617 683.336 84.2283 681.366 82.6044 680.011L136.315 590.522C137.176 590.867 138.086 591.064 139.046 591.064C142.761 591.064 145.812 588.355 146.402 584.809H254.733C255.324 588.355 258.375 591.064 262.09 591.064C266.223 591.064 269.569 587.715 269.569 583.578C269.569 581.115 268.364 578.923 266.518 577.569L272.94 566.438L320.229 648.417C317.424 649.5 315.431 652.209 315.431 655.386C315.431 658.562 317.424 661.271 320.229 662.355L225.233 827.05C224.101 826.361 222.797 825.942 221.37 825.942C217.655 825.942 214.604 828.651 214.014 832.197H14.8454V834.66H214.063C214.653 838.206 217.704 840.915 221.419 840.915C221.985 840.915 222.527 840.841 223.043 840.718L318.211 1005.71C316.538 1007.09 315.456 1009.13 315.456 1011.47C315.456 1013.81 316.538 1015.85 318.211 1017.23L223.043 1182.22C222.527 1182.1 221.961 1182.03 221.419 1182.03C217.286 1182.03 213.94 1185.38 213.94 1189.51C213.94 1193.65 217.286 1197 221.419 1197C225.553 1197 228.899 1193.65 228.899 1189.51C228.899 1186.83 227.472 1184.49 225.332 1183.16L320.352 1018.46C321.164 1018.76 322.049 1018.96 322.96 1018.96C327.093 1018.96 330.439 1015.61 330.439 1011.47C330.439 1007.33 327.093 1003.98 322.96 1003.98C322.025 1003.98 321.164 1004.18 320.352 1004.48L225.332 839.782C227.447 838.452 228.899 836.113 228.899 833.428C228.899 831.606 228.235 829.981 227.152 828.676L322.812 662.847C322.812 662.847 322.91 662.847 322.96 662.847C326.675 662.847 329.726 660.138 330.316 656.592H524.539C525.13 660.138 528.181 662.847 531.896 662.847C532.585 662.847 533.224 662.724 533.839 662.552L632.747 834.019L634.888 832.788L536.103 661.542C538.071 660.188 539.375 657.922 539.375 655.361C539.375 652.8 538.071 650.51 536.103 649.18L631.197 484.312C632.009 484.608 632.895 484.805 633.805 484.805C637.52 484.805 640.571 482.096 641.162 478.55H833.662C834.253 482.096 837.304 484.805 841.019 484.805C841.511 484.805 842.003 484.755 842.47 484.657L937.22 648.934C935.006 650.239 933.505 652.628 933.505 655.386C933.505 659.523 936.851 662.872 940.984 662.872C944.7 662.872 947.75 660.163 948.341 656.617H1142.56C1143.15 660.163 1146.21 662.872 1149.92 662.872C1154.05 662.872 1157.4 659.523 1157.4 655.386C1157.4 652.381 1155.63 649.82 1153.09 648.614L1247.87 484.312C1248.68 484.608 1249.57 484.805 1250.48 484.805C1254.19 484.805 1257.24 482.096 1257.83 478.55H1438.92V476.087H1257.83C1257.24 472.541 1254.19 469.832 1250.48 469.832C1249.54 469.832 1248.68 470.029 1247.87 470.325L1153.09 306.023C1155.63 304.817 1157.42 302.255 1157.42 299.251C1157.42 296.247 1155.65 293.686 1153.12 292.479L1247.89 128.178C1248.7 128.473 1249.59 128.67 1250.5 128.67C1254.22 128.67 1257.27 125.961 1257.86 122.415H1438.94V119.953H1257.86C1257.27 116.406 1254.22 113.698 1250.5 113.698L1250.53 113.772ZM1194.26 21.2534L1153.14 -50.0129C1155.68 -51.2196 1157.47 -53.7806 1157.47 -56.7849C1157.47 -60.9221 1154.13 -64.2711 1149.99 -64.2711C1146.28 -64.2711 1143.23 -61.5623 1142.64 -58.0162H1116.39L1163.3 -139.354C1164.12 -139.059 1165 -138.862 1165.91 -138.862C1169.63 -138.862 1172.68 -141.571 1173.27 -145.117H1188.3L1235.94 -62.5227C1234.26 -61.1436 1233.18 -59.0998 1233.18 -56.7603C1233.18 -54.4209 1234.26 -52.377 1235.94 -50.998L1194.23 21.278L1194.26 21.2534ZM1179.79 41.9881C1176.07 41.9881 1173.02 44.6969 1172.43 48.243H1063.46C1062.87 44.6969 1059.82 41.9881 1056.11 41.9881C1055.91 41.9881 1055.74 42.0374 1055.56 42.0374L1050.3 32.9259H1056.23C1056.82 36.472 1059.87 39.1808 1063.59 39.1808C1067.72 39.1808 1071.06 35.8317 1071.06 31.6946C1071.06 29.2567 1069.88 27.0897 1068.06 25.7107L1114.93 -55.5537H1142.61C1143.2 -52.0076 1146.25 -49.2988 1149.97 -49.2988C1150.22 -49.2988 1150.44 -49.348 1150.68 -49.3727L1192.83 23.6913L1182.08 42.3575C1181.36 42.1359 1180.6 41.9635 1179.79 41.9635V41.9881ZM997.475 148.247C993.76 148.247 990.709 150.956 990.118 154.502H882.009C881.418 150.956 878.367 148.247 874.652 148.247C873.693 148.247 872.807 148.444 871.971 148.764L848.621 108.305L892.096 32.9505H1045.87L1051.87 43.3425C1049.93 44.6969 1048.65 46.9378 1048.65 49.4989C1048.65 52.5525 1050.47 55.1628 1053.1 56.3448L999.837 148.691C999.099 148.444 998.311 148.272 997.499 148.272L997.475 148.247ZM833.711 476.161H641.211C640.62 472.615 637.569 469.906 633.854 469.906C632.919 469.906 632.058 470.103 631.246 470.399L536.152 305.531C538.121 304.176 539.425 301.911 539.425 299.35C539.425 296.789 538.121 294.498 536.152 293.169L614.712 156.989H622.561C623.152 160.535 626.202 163.244 629.918 163.244C634.051 163.244 637.397 159.895 637.397 155.758C637.397 153.369 636.241 151.252 634.494 149.873L650.265 122.538H832.334C832.924 126.084 835.975 128.793 839.69 128.793C840.108 128.793 840.502 128.744 840.871 128.67L936.113 293.76C934.44 295.139 933.382 297.183 933.382 299.522C933.382 301.861 934.415 303.782 935.99 305.161L840.945 469.931C837.279 470.005 834.302 472.664 833.711 476.186V476.161ZM330.144 298.118C329.504 294.695 326.527 292.085 322.91 292.036L315.825 279.748L320.327 271.941C321.114 272.237 321.951 272.409 322.861 272.409C326.576 272.409 329.627 269.701 330.218 266.154H438.549C439.139 269.701 442.19 272.409 445.905 272.409C450.039 272.409 453.385 269.06 453.385 264.923C453.385 262.633 452.327 260.614 450.703 259.235L506.111 163.195C506.357 163.22 506.603 163.269 506.849 163.269C510.564 163.269 513.615 160.56 514.206 157.014H610.604L532.757 291.987C532.462 291.962 532.191 291.913 531.896 291.913C528.181 291.913 525.13 294.622 524.539 298.168H330.119L330.144 298.118ZM266.568 365.149L314.422 282.21L320.352 292.479C317.448 293.513 315.332 296.247 315.332 299.522C315.332 302.797 317.35 305.432 320.179 306.516L272.989 388.297L266.568 377.166C268.413 375.812 269.618 373.62 269.618 371.158C269.618 368.695 268.413 366.503 266.568 365.149ZM227.743 115.545L275.376 32.9505H310.584L318.433 46.3468C316.563 47.7012 315.357 49.8929 315.357 52.3801C315.357 54.8673 316.587 57.0836 318.482 58.438L264.722 151.621C263.91 151.326 263.025 151.129 262.114 151.129C258.399 151.129 255.348 153.837 254.758 157.383H245.261L227.743 127.02C229.416 125.641 230.498 123.597 230.498 121.258C230.498 118.918 229.416 116.874 227.743 115.495V115.545ZM323.427 -49.2742C327.142 -49.2742 330.193 -51.983 330.784 -55.5291H499.492C499.812 -53.6329 500.821 -52.0076 502.273 -50.8748L455.328 30.488H312.011L294.272 0.223206L322.861 -49.3234C323.058 -49.3234 323.23 -49.2742 323.427 -49.2742ZM450.58 -165.95L503.134 -257.04L563.659 -152.11C561.986 -150.731 560.904 -148.687 560.904 -146.348C560.904 -144.009 561.986 -141.965 563.659 -140.586L516.026 -57.9916H514.255C513.664 -61.5377 510.613 -64.2465 506.898 -64.2465C505.52 -64.2465 504.266 -63.8525 503.158 -63.2122L450.605 -154.302C452.302 -155.681 453.434 -157.75 453.434 -160.114C453.434 -162.478 452.327 -164.546 450.629 -165.925L450.58 -165.95ZM678.781 -145.117L631.96 -63.951C631.295 -64.148 630.631 -64.2711 629.918 -64.2711C626.202 -64.2711 623.152 -61.5623 622.561 -58.0162H518.856L565.775 -139.354C566.587 -139.059 567.473 -138.862 568.383 -138.862C572.099 -138.862 575.149 -141.571 575.74 -145.117H678.781ZM747.721 -145.117C748.311 -141.571 751.362 -138.862 755.077 -138.862C756.012 -138.862 756.874 -139.059 757.685 -139.354L839.149 1.87311L814.324 44.9185C814.176 44.9185 814.053 44.8693 813.905 44.8693C810.19 44.8693 807.139 47.5781 806.549 51.1242H696.348C695.807 47.849 693.125 45.3126 689.803 44.9432L634.518 -50.9241C636.265 -52.3031 637.422 -54.3963 637.422 -56.8096C637.422 -58.6811 636.708 -60.3557 635.601 -61.6608L683.751 -145.166H747.721V-145.117ZM806.549 -158.907C807.139 -155.361 810.19 -152.652 813.905 -152.652C814.053 -152.652 814.176 -152.677 814.324 -152.701L867.862 -59.9124C867.419 -58.952 867.173 -57.9177 867.173 -56.7849C867.173 -54.5194 868.182 -52.5247 869.756 -51.1703L840.601 -0.614075L759.851 -140.61C761.524 -141.989 762.606 -144.033 762.606 -146.373C762.606 -148.712 761.524 -150.756 759.851 -152.135L763.763 -158.932H806.573L806.549 -158.907ZM940.271 -55.5537L890.645 30.4633H865.155C864.565 26.9173 861.514 24.2085 857.799 24.2085C856.864 24.2085 855.978 24.4055 855.166 24.701L842.077 1.99625L871.971 -49.8159C872.807 -49.4958 873.693 -49.2988 874.652 -49.2988C878.367 -49.2988 881.418 -52.0076 882.009 -55.5537H940.295H940.271ZM990.118 -55.5537C990.709 -52.0076 993.76 -49.2988 997.475 -49.2988C997.795 -49.2988 998.09 -49.3481 998.385 -49.3973L1044.44 30.4388H893.499L943.125 -55.5783H990.118V-55.5537ZM1056.13 -155.558C1059.85 -155.558 1062.9 -158.267 1063.49 -161.813H1155.6L1161.19 -152.11C1159.52 -150.731 1158.43 -148.687 1158.43 -146.348C1158.43 -144.009 1159.52 -141.965 1161.19 -140.586L1113.56 -57.9916H1004.86C1004.46 -60.3803 1002.94 -62.3749 1000.82 -63.4338L1054.11 -155.829C1054.75 -155.657 1055.42 -155.509 1056.13 -155.509V-155.558ZM1063.61 24.1838C1059.89 24.1838 1056.84 26.8927 1056.25 30.4388H1048.9L1002 -50.8748C1003.48 -52.0076 1004.54 -53.6575 1004.86 -55.5783H1112.13L1065.9 24.5779C1065.18 24.3562 1064.42 24.1838 1063.61 24.1838ZM629.918 148.223C626.202 148.223 623.152 150.932 622.561 154.478H616.115L631.246 128.251C632.058 128.547 632.944 128.744 633.854 128.744C637.569 128.744 640.62 126.035 641.211 122.489H647.411L632.329 148.666C631.566 148.395 630.754 148.223 629.918 148.223ZM514.23 154.478C513.64 150.932 510.589 148.223 506.874 148.223C506.013 148.223 505.225 148.395 504.462 148.666L451.663 57.1328C452.745 55.8277 453.409 54.1778 453.409 52.3801C453.409 49.4989 451.761 47.0363 449.374 45.7805L456.78 32.9505H458.552C459.142 36.4966 462.193 39.2054 465.908 39.2054C470.042 39.2054 473.388 35.8564 473.388 31.7192C473.388 29.3306 472.231 27.2128 470.484 25.8337L515.756 -52.6479H532.093L629.106 115.52C627.433 116.899 626.35 118.943 626.35 121.282C626.35 123.228 627.113 124.952 628.294 126.281L612.031 154.502H514.206L514.23 154.478ZM445.905 257.363C442.19 257.363 439.139 260.072 438.549 263.618H330.218C329.627 260.072 326.576 257.363 322.861 257.363C322.123 257.363 321.41 257.511 320.721 257.708L266.863 164.352C268.536 162.973 269.618 160.929 269.618 158.59C269.618 156.251 268.536 154.207 266.863 152.828L320.721 59.4723C321.41 59.6693 322.099 59.817 322.861 59.817C326.576 59.817 329.627 57.1082 330.218 53.5621H438.549C439.139 57.1082 442.19 59.817 445.905 59.817C446.865 59.817 447.775 59.62 448.612 59.2999L501.338 150.685C500.132 152.015 499.394 153.763 499.394 155.684C499.394 158.664 501.141 161.225 503.675 162.432L448.612 257.856C447.775 257.535 446.865 257.339 445.905 257.339V257.363ZM445.905 44.8447C442.19 44.8447 439.139 47.5535 438.549 51.0996H330.218C329.627 47.5535 326.576 44.8447 322.861 44.8447C322.099 44.8447 321.36 44.9924 320.672 45.2141L313.463 32.9013H453.926L446.963 44.9678C446.619 44.9185 446.274 44.8693 445.905 44.8693V44.8447ZM514.575 -55.5783L514.329 -55.135H514.156C514.181 -55.2828 514.206 -55.4305 514.23 -55.5783H514.599H514.575ZM622.536 -55.5783C622.536 -55.4305 622.586 -55.2828 622.61 -55.135H533.52L533.274 -55.5783H622.536ZM686.26 45.3864L631.517 -49.4958C631.787 -49.545 632.058 -49.6436 632.329 -49.742L687.072 45.1402C686.802 45.2141 686.531 45.2879 686.285 45.3864H686.26ZM530.69 -55.135H517.183L517.429 -55.5783H530.444L530.69 -55.135ZM506.874 -49.2988C509.088 -49.2988 511.056 -50.2838 512.434 -51.8106L468.344 24.6271C467.581 24.3562 466.769 24.1838 465.908 24.1838C463.718 24.1838 461.75 25.1443 460.372 26.6711L504.438 -49.742C505.201 -49.4712 506.012 -49.2988 506.849 -49.2988H506.874ZM458.552 30.4633H458.207L458.822 29.3798C458.699 29.7246 458.601 30.094 458.552 30.4633ZM641.235 120.051C640.645 116.505 637.594 113.796 633.879 113.796C632.944 113.796 632.083 113.993 631.271 114.289L534.971 -52.6479H623.693C624.825 -50.9241 626.645 -49.742 628.761 -49.3973L684.194 46.6916C682.57 48.0706 681.537 50.0899 681.537 52.3801C681.537 54.8181 682.717 56.9358 684.489 58.3148L648.887 120.051H641.26H641.235ZM309.181 30.4633H276.827L292.869 2.63651L309.181 30.4633ZM254.782 159.846C255.373 163.392 258.424 166.101 262.139 166.101C262.926 166.101 263.664 165.953 264.353 165.731L318.187 259.062C316.489 260.441 315.357 262.51 315.357 264.874C315.357 267.238 316.464 269.307 318.187 270.686L314.398 277.261L246.663 159.871H254.758L254.782 159.846ZM839.69 113.772C835.975 113.772 832.924 116.48 832.334 120.026H651.692L686.654 59.423C687.392 59.6693 688.18 59.8416 688.992 59.8416C692.707 59.8416 695.758 57.1328 696.348 53.5867H806.549C807.139 57.1328 810.19 59.8416 813.905 59.8416C815.16 59.8416 816.292 59.5215 817.325 58.9797L845.767 108.28L842.298 114.264C841.486 113.969 840.601 113.772 839.69 113.772ZM819.318 57.5022C820.598 56.1478 821.385 54.3501 821.385 52.3555C821.385 49.3019 819.564 46.6916 816.956 45.5342L840.65 4.4588L853.05 25.9569C851.402 27.3359 850.319 29.3799 850.319 31.6946C850.319 35.8317 853.665 39.1808 857.799 39.1808C861.514 39.1808 864.565 36.472 865.155 32.9259H889.218L847.17 105.818L819.294 57.5022H819.318ZM1420.22 -168.807C1418.55 -167.428 1417.46 -165.384 1417.46 -163.044C1417.46 -160.705 1418.55 -158.661 1420.22 -157.282L1366.29 -63.7786C1365.47 -64.0741 1364.59 -64.2711 1363.68 -64.2711C1359.96 -64.2711 1356.91 -61.5623 1356.32 -58.0162H1248.07C1247.47 -61.5623 1244.42 -64.2711 1240.71 -64.2711C1239.9 -64.2711 1239.16 -64.1234 1238.42 -63.8771L1191.55 -145.117H1350.76C1351.35 -141.571 1354.4 -138.862 1358.12 -138.862C1362.25 -138.862 1365.6 -142.211 1365.6 -146.348C1365.6 -148.663 1364.52 -150.731 1362.87 -152.086L1396.53 -209.857L1420.22 -168.757V-168.807ZM1237.07 -259.896C1238.15 -259.305 1239.36 -258.936 1240.68 -258.936C1244.82 -258.936 1248.16 -262.285 1248.16 -266.422C1248.16 -266.989 1248.09 -267.555 1247.97 -268.097H1356.3C1356.89 -264.551 1359.94 -261.842 1363.65 -261.842C1364.59 -261.842 1365.45 -262.039 1366.26 -262.334L1395.07 -212.369L1360.7 -153.391C1359.89 -153.711 1359 -153.883 1358.07 -153.883C1354.35 -153.883 1351.3 -151.175 1350.71 -147.629H1190.07L1184.49 -157.331C1186.16 -158.71 1187.24 -160.754 1187.24 -163.093C1187.24 -165.433 1186.16 -167.477 1184.49 -168.856L1237.04 -259.946L1237.07 -259.896ZM1172.43 -161.838C1173.02 -158.291 1176.07 -155.583 1179.79 -155.583C1180.6 -155.583 1181.34 -155.73 1182.08 -155.977L1186.9 -147.629H1173.29C1172.7 -151.175 1169.65 -153.883 1165.94 -153.883C1165 -153.883 1164.14 -153.686 1163.33 -153.391L1158.46 -161.838H1172.46H1172.43ZM855.191 -317.471C856.003 -317.175 856.888 -316.978 857.799 -316.978C861.489 -316.978 864.54 -319.663 865.155 -323.209H1056.23C1056.84 -319.687 1059.89 -316.978 1063.59 -316.978C1064.37 -316.978 1065.14 -317.126 1065.85 -317.372L1154.15 -164.3H1063.46C1062.87 -167.846 1059.82 -170.555 1056.11 -170.555C1051.97 -170.555 1048.63 -167.206 1048.63 -163.069C1048.63 -160.508 1049.91 -158.267 1051.85 -156.912L998.385 -64.1972C998.09 -64.2219 997.795 -64.2957 997.475 -64.2957C993.76 -64.2957 990.709 -61.5869 990.118 -58.0408H882.009C881.418 -61.5869 878.367 -64.2957 874.652 -64.2957C872.61 -64.2957 870.765 -63.4831 869.412 -62.1533L816.858 -153.268C819.54 -154.401 821.409 -157.06 821.409 -160.163C821.409 -163.266 819.441 -166.024 816.686 -167.107L873.84 -271.249L871.675 -272.431L814.151 -167.625C814.151 -167.625 814.004 -167.625 813.93 -167.625C810.215 -167.625 807.164 -164.916 806.573 -161.37H765.19L855.215 -317.446L855.191 -317.471ZM757.685 -153.366C756.874 -153.662 755.988 -153.859 755.077 -153.859C751.362 -153.859 748.311 -151.15 747.721 -147.604H685.153L688.13 -152.751C688.426 -152.726 688.696 -152.652 688.992 -152.652C692.707 -152.652 695.758 -155.361 696.348 -158.907H760.909L757.71 -153.342L757.685 -153.366ZM685.695 -166.861C683.21 -165.63 681.512 -163.118 681.512 -160.163C681.512 -157.873 682.57 -155.854 684.169 -154.474L680.208 -147.604H575.764C575.174 -151.15 572.123 -153.859 568.408 -153.859C567.473 -153.859 566.612 -153.662 565.8 -153.366L504.708 -259.281C505.397 -259.059 506.135 -258.911 506.898 -258.911C510.613 -258.911 513.664 -261.62 514.255 -265.166H622.586C623.176 -261.62 626.227 -258.911 629.942 -258.911C630.803 -258.911 631.591 -259.084 632.353 -259.355L685.719 -166.861H685.695ZM257.513 -317.225C258.128 -317.052 258.768 -316.929 259.457 -316.929C263.172 -316.929 266.223 -319.638 266.814 -323.184H458.527C459.117 -319.638 462.168 -316.929 465.884 -316.929C466.745 -316.929 467.557 -317.102 468.319 -317.372L501.682 -259.527L448.415 -167.181C447.627 -167.477 446.791 -167.649 445.881 -167.649C441.747 -167.649 438.401 -164.3 438.401 -160.163C438.401 -156.026 441.747 -152.677 445.881 -152.677C446.766 -152.677 447.603 -152.849 448.415 -153.145L501.19 -61.6608C500.329 -60.6512 499.714 -59.4199 499.492 -58.0408H330.784C330.193 -61.5869 327.142 -64.2957 323.427 -64.2957C319.294 -64.2957 315.948 -60.9467 315.948 -56.8096C315.948 -53.756 317.768 -51.1703 320.376 -49.9883L292.845 -2.2886L260.515 -57.4498L258.399 -56.1939L291.442 0.17395L273.998 30.4388H266.838C266.248 26.8927 263.197 24.1838 259.482 24.1838C259.408 24.1838 259.334 24.1838 259.26 24.1838L164.363 -140.315C166.258 -141.669 167.512 -143.885 167.512 -146.397C167.512 -149.5 165.643 -152.135 162.961 -153.292L257.513 -317.225ZM259.236 39.1562C259.236 39.1562 259.383 39.1562 259.457 39.1562C263.172 39.1562 266.223 36.4474 266.814 32.9013H272.546L225.627 114.239C224.815 113.944 223.929 113.747 223.019 113.747C219.304 113.747 216.253 116.456 215.662 120.002H212.611L259.26 39.1316L259.236 39.1562ZM211.16 122.489H215.638C216.228 126.035 219.279 128.744 222.994 128.744C223.929 128.744 224.79 128.547 225.602 128.251L242.407 157.383H191.034L211.16 122.489ZM136.462 165.608C137.274 165.904 138.16 166.101 139.07 166.101C142.786 166.101 145.836 163.392 146.427 159.846H186.753L162.1 202.596C161.411 202.399 160.722 202.251 159.984 202.251C156.268 202.251 153.218 204.96 152.627 208.506H111.711L136.462 165.608ZM82.5306 270.612C84.2037 269.233 85.2863 267.189 85.2863 264.849C85.2863 262.51 84.2037 260.466 82.5306 259.087L110.308 210.944H152.652C153.242 214.49 156.293 217.199 160.008 217.199C164.142 217.199 167.488 213.85 167.488 209.713C167.488 207.201 166.233 204.985 164.363 203.63L189.631 159.797H243.834L312.97 279.649L264.353 363.942C263.64 363.721 262.902 363.573 262.139 363.573C258.424 363.573 255.373 366.282 254.782 369.828H146.451C145.861 366.282 142.81 363.573 139.095 363.573C138.16 363.573 137.299 363.77 136.487 364.066L82.5552 270.562L82.5306 270.612ZM136.462 378.102C137.274 378.398 138.16 378.595 139.07 378.595C142.786 378.595 145.836 375.886 146.427 372.34H254.758C255.348 375.886 258.399 378.595 262.114 378.595C262.902 378.595 263.64 378.447 264.329 378.225L271.538 390.71L225.602 470.349C224.79 470.054 223.904 469.857 222.994 469.857C219.279 469.857 216.228 472.566 215.638 476.112H85.1386C84.8434 474.289 83.8838 472.713 82.506 471.581L136.438 378.077L136.462 378.102ZM318.211 483.105L272.965 561.538L227.718 483.105C229.391 481.726 230.474 479.682 230.474 477.343C230.474 475.004 229.391 472.96 227.718 471.581L272.965 393.148L318.211 471.581C316.538 472.96 315.456 475.004 315.456 477.343C315.456 479.682 316.538 481.726 318.211 483.105ZM264.353 576.485C263.64 576.264 262.902 576.116 262.139 576.116C258.424 576.116 255.373 578.825 254.782 582.371H146.451C145.861 578.825 142.81 576.116 139.095 576.116C138.16 576.116 137.299 576.313 136.487 576.609L82.5552 483.105C83.9084 481.973 84.868 480.397 85.1879 478.574H215.687C216.277 482.12 219.328 484.829 223.043 484.829C223.978 484.829 224.839 484.632 225.651 484.337L271.587 563.976L264.378 576.461L264.353 576.485ZM533.864 648.195C533.249 648.023 532.585 647.9 531.92 647.9C528.205 647.9 525.154 650.608 524.564 654.154H330.341C329.75 650.608 326.699 647.9 322.984 647.9C322.935 647.9 322.886 647.9 322.837 647.9L274.416 563.976L320.352 484.337C321.164 484.632 322.049 484.829 322.96 484.829C326.675 484.829 329.726 482.12 330.316 478.574H438.524C439.115 482.12 442.165 484.829 445.881 484.829C450.014 484.829 453.36 481.48 453.36 477.343C453.36 473.206 450.014 469.857 445.881 469.857C442.165 469.857 439.115 472.566 438.524 476.112H330.316C329.726 472.566 326.675 469.857 322.96 469.857C322.025 469.857 321.164 470.054 320.352 470.349L274.416 390.71L322.738 306.959C322.738 306.959 322.787 306.959 322.812 306.959C326.576 306.959 329.677 304.152 330.193 300.532H524.564C525.154 304.078 528.205 306.787 531.92 306.787C532.216 306.787 532.486 306.737 532.781 306.713L628.318 472.344C627.113 473.674 626.375 475.422 626.375 477.343C626.375 479.658 627.457 481.726 629.13 483.105L533.889 648.195H533.864ZM1245.78 471.581C1244.1 472.96 1243.02 475.004 1243.02 477.343C1243.02 479.682 1244.1 481.726 1245.78 483.105L1150.66 647.998C1150.41 647.998 1150.19 647.924 1149.94 647.924C1146.23 647.924 1143.18 650.633 1142.59 654.179H948.365C947.775 650.633 944.724 647.924 941.009 647.924C940.517 647.924 940.025 647.973 939.557 648.072L844.808 483.795C847.022 482.49 848.523 480.101 848.523 477.343C848.523 474.585 847.022 472.196 844.808 470.891L939.459 306.811C939.902 306.885 940.369 306.959 940.837 306.959C944.601 306.959 947.701 304.152 948.218 300.532H1142.59C1143.18 304.078 1146.23 306.787 1149.94 306.787C1150.19 306.787 1150.41 306.737 1150.66 306.713L1245.78 471.581ZM1150.66 291.864C1150.41 291.864 1150.19 291.79 1149.94 291.79C1146.23 291.79 1143.18 294.498 1142.59 298.044H948.169C947.504 294.572 944.478 291.962 940.837 291.962C940.418 291.962 940.025 292.011 939.631 292.085L844.39 126.995C846.063 125.616 847.145 123.573 847.145 121.233C847.145 118.894 846.063 116.85 844.39 115.471L847.145 110.693L869.805 149.971C868.181 151.35 867.124 153.369 867.124 155.684C867.124 159.821 870.47 163.17 874.603 163.17C878.318 163.17 881.369 160.462 881.96 156.916H990.069C990.66 160.462 993.71 163.17 997.426 163.17C1001.56 163.17 1004.91 159.821 1004.91 155.684C1004.91 153.246 1003.72 151.104 1001.93 149.749L1055.52 56.8619C1055.69 56.8619 1055.88 56.9112 1056.06 56.9112C1059.77 56.9112 1062.82 54.2024 1063.41 50.6563H1172.38C1172.97 54.2024 1176.03 56.9112 1179.74 56.9112C1183.87 56.9112 1187.22 53.5621 1187.22 49.425C1187.22 46.9871 1186.04 44.8201 1184.22 43.441L1194.21 26.1293L1245.75 115.471C1244.08 116.85 1243 118.894 1243 121.233C1243 123.573 1244.08 125.616 1245.75 126.995L1150.63 291.864H1150.66Z" fill="white"/>
</g>
</svg>
