<svg width="48" height="48" viewBox="0 0 48 48" fill="none" xmlns="http://www.w3.org/2000/svg">
<g clip-path="url(#clip0_882_3790)">
<path d="M37 42C39.9174 42 42.7153 40.8411 44.7782 38.7782C46.8411 36.7153 48 33.9174 48 31C48 28.0826 46.8411 25.2847 44.7782 23.2218C42.7153 21.1589 39.9174 20 37 20C36.683 20 36.372 20.021 36.062 20.048C36.6073 15.2364 38.2442 10.6128 40.848 6.53C40.9426 6.37863 40.995 6.20469 40.9997 6.02625C41.0043 5.8478 40.9612 5.67136 40.8746 5.51523C40.7881 5.3591 40.6614 5.22898 40.5076 5.13838C40.3538 5.04778 40.1785 5 40 5L38 5C37.8644 4.99997 37.7302 5.02752 37.6055 5.08099C37.4809 5.13445 37.3684 5.21271 37.275 5.311C32.132 10.721 26 19.569 26 31C26.0034 33.9163 27.1635 36.7122 29.2256 38.7744C31.2878 40.8365 34.0837 41.9966 37 42Z" fill="#79F0B4"/>
<path d="M11 42C13.9174 42 16.7153 40.8411 18.7782 38.7782C20.8411 36.7153 22 33.9174 22 31C22 28.0826 20.8411 25.2847 18.7782 23.2218C16.7153 21.1589 13.9174 20 11 20C10.683 20 10.372 20.021 10.062 20.048C10.6073 15.2364 12.2442 10.6128 14.848 6.53C14.9426 6.37863 14.995 6.20469 14.9997 6.02625C15.0043 5.8478 14.9612 5.67136 14.8746 5.51523C14.7881 5.3591 14.6614 5.22898 14.5076 5.13838C14.3538 5.04778 14.1785 5 14 5L12 5C11.8644 4.99997 11.7302 5.02752 11.6055 5.08099C11.4809 5.13445 11.3684 5.21271 11.275 5.311C6.132 10.721 1.96098e-06 19.569 9.61651e-07 31C0.00344156 33.9163 1.16347 36.7122 3.22562 38.7744C5.28778 40.8365 8.08367 41.9966 11 42Z" fill="#79F0B4"/>
</g>
<defs>
<clipPath id="clip0_882_3790">
<rect width="48" height="48" fill="white" transform="translate(48 48) rotate(-180)"/>
</clipPath>
</defs>
</svg>
