<svg width="998" height="200" viewBox="0 0 998 200" fill="none" xmlns="http://www.w3.org/2000/svg">
<path opacity="0.1" d="M869.219 132.244C868.583 132.244 867.998 132.385 867.446 132.595L831.944 67.9713L860.757 15.5235C861.309 15.7344 861.911 15.8749 862.53 15.8749C865.055 15.8749 867.128 13.9422 867.53 11.412H941.109C941.511 13.9422 943.584 15.8749 946.11 15.8749C948.919 15.8749 951.193 13.4854 951.193 10.5335C951.193 8.8819 950.457 7.40598 949.32 6.42203L985.977 -60.2929C986.528 -60.0821 987.13 -59.9415 987.749 -59.9415C990.559 -59.9415 992.833 -62.3311 992.833 -65.2829C992.833 -68.2348 990.559 -70.6244 987.749 -70.6244C987.114 -70.6244 986.528 -70.4838 985.977 -70.273L969.388 -100.459L998 -152.046L996.562 -152.924L968.418 -102.216L949.304 -136.988C950.441 -137.972 951.177 -139.43 951.177 -141.099C951.177 -142.769 950.391 -144.35 949.17 -145.316L959.287 -165.276L957.815 -166.102L947.698 -146.142C947.197 -146.318 946.661 -146.441 946.093 -146.441C943.568 -146.441 941.494 -144.508 941.093 -141.978H866.76C865.857 -143.419 864.286 -144.385 862.513 -144.385C862.346 -144.385 862.195 -144.35 862.028 -144.332L850.539 -166.12L849.068 -165.276L860.339 -143.876C858.6 -143.015 857.396 -141.187 857.396 -139.044C857.396 -137.673 857.897 -136.443 858.7 -135.494L822.863 -70.2905C822.312 -70.5014 821.71 -70.6419 821.091 -70.6419C818.566 -70.6419 816.492 -68.7092 816.091 -66.179H805.606L745.153 -176.205C746.391 -177.172 747.21 -178.718 747.21 -180.475C747.21 -183.427 744.936 -185.816 742.126 -185.816C739.601 -185.816 737.511 -183.866 737.126 -181.318H607.275C606.89 -183.866 604.8 -185.816 602.274 -185.816C599.465 -185.816 597.191 -183.427 597.191 -180.475C597.191 -178.806 597.927 -177.347 599.064 -176.363L537.374 -64.1057H492.54C492.139 -66.6359 490.065 -68.5686 487.54 -68.5686C487.339 -68.5686 487.155 -68.5335 486.955 -68.4983L450.499 -134.827C451.687 -135.811 452.473 -137.304 452.473 -139.026C452.473 -141.978 450.198 -144.367 447.389 -144.367C444.864 -144.367 442.79 -142.435 442.389 -139.905H368.759C368.358 -142.435 366.284 -144.367 363.759 -144.367C361.234 -144.367 359.327 -142.593 358.809 -140.221L339.026 -176.223C340.213 -177.207 340.999 -178.7 340.999 -180.422C340.999 -183.374 338.725 -185.763 335.915 -185.763C333.39 -185.763 331.317 -183.831 330.915 -181.301H200.612C200.211 -183.831 198.137 -185.763 195.612 -185.763C192.803 -185.763 190.528 -183.374 190.528 -180.422C190.528 -178.577 191.415 -176.961 192.753 -175.994L128.287 -58.694C128.186 -58.694 128.103 -58.7292 128.002 -58.7292C125.477 -58.7292 123.404 -56.7964 123.002 -54.2663H-12V-52.5092H123.002C123.404 -49.9791 125.477 -48.0463 128.002 -48.0463C128.103 -48.0463 128.186 -48.0639 128.287 -48.0815L192.753 69.2188C191.398 70.1852 190.512 71.8016 190.512 73.6465C190.512 75.8955 191.85 77.8283 193.722 78.6014L161.816 136.672H27.3819V138.429H160.862L147.183 163.326H118.805C118.404 160.796 116.33 158.863 113.805 158.863C110.995 158.863 108.721 161.253 108.721 164.205C108.721 165.856 109.457 167.332 110.594 168.316L93.286 199.82H-12V201.577H92.2994L73.9044 235.031C73.3526 234.82 72.7506 234.68 72.1318 234.68C69.6067 234.68 67.5331 236.612 67.1318 239.143H27.3819V240.9H67.1318C67.5331 243.43 69.6067 245.362 72.1318 245.362C72.7673 245.362 73.3526 245.222 73.9044 245.011L110.561 311.726C109.423 312.71 108.688 314.168 108.688 315.837C108.688 317.507 109.423 318.965 110.561 319.949L73.9044 386.664C73.3526 386.453 72.7506 386.312 72.1318 386.312C69.6067 386.312 67.5331 388.245 67.1318 390.775H27.3819V392.532H67.1318C67.5331 395.063 69.6067 396.995 72.1318 396.995C72.7673 396.995 73.3526 396.855 73.9044 396.644L110.561 463.359C109.423 464.343 108.688 465.801 108.688 467.47C108.688 469.14 109.39 470.545 110.494 471.512L73.9881 535.363C73.4028 535.117 72.784 534.976 72.1318 534.976C69.6402 534.976 67.5833 536.856 67.1318 539.333L27.3819 538.49L27.3485 540.247L67.0983 541.091C67.4495 543.673 69.5565 545.659 72.1151 545.659C72.7338 545.659 73.3359 545.518 73.8877 545.307L113.052 616.854L114.507 615.976L75.3426 544.411C76.4797 543.427 77.2155 541.969 77.2155 540.3C77.2155 538.631 76.5132 537.225 75.4095 536.259L111.915 472.408C112.5 472.654 113.119 472.794 113.771 472.794C116.296 472.794 118.37 470.861 118.771 468.331H192.401C192.803 470.861 194.876 472.794 197.401 472.794C200.211 472.794 202.485 470.405 202.485 467.453C202.485 465.696 201.666 464.132 200.412 463.166L204.776 455.224L236.917 513.716C235.011 514.489 233.656 516.422 233.656 518.688C233.656 520.955 235.011 522.888 236.917 523.661L172.351 641.172C171.582 640.68 170.695 640.381 169.725 640.381C167.2 640.381 165.127 642.314 164.725 644.844H29.3552V646.601H164.759C165.16 649.131 167.234 651.064 169.759 651.064C170.144 651.064 170.511 651.011 170.863 650.923L235.546 768.645C234.409 769.629 233.673 771.088 233.673 772.757C233.673 774.426 234.409 775.884 235.546 776.868L170.863 894.59C170.511 894.502 170.127 894.45 169.759 894.45C166.949 894.45 164.675 896.839 164.675 899.791C164.675 902.743 166.949 905.133 169.759 905.133C172.568 905.133 174.843 902.743 174.843 899.791C174.843 897.876 173.873 896.207 172.418 895.258L237.001 777.747C237.553 777.958 238.155 778.098 238.773 778.098C241.583 778.098 243.857 775.709 243.857 772.757C243.857 769.805 241.583 767.415 238.773 767.415C238.138 767.415 237.553 767.556 237.001 767.767L172.418 650.256C173.856 649.307 174.843 647.638 174.843 645.722C174.843 644.422 174.391 643.263 173.655 642.331L238.673 524.012C238.673 524.012 238.74 524.012 238.773 524.012C241.299 524.012 243.372 522.079 243.773 519.549H375.782C376.184 522.079 378.257 524.012 380.782 524.012C381.251 524.012 381.685 523.924 382.104 523.801L449.329 646.144L450.784 645.266L383.642 523.081C384.98 522.114 385.866 520.498 385.866 518.671C385.866 516.843 384.98 515.209 383.642 514.26L448.275 396.626C448.827 396.837 449.429 396.978 450.048 396.978C452.573 396.978 454.647 395.045 455.048 392.515H585.886C586.288 395.045 588.361 396.978 590.886 396.978C591.221 396.978 591.555 396.943 591.873 396.872L656.272 514.085C654.767 515.016 653.747 516.72 653.747 518.688C653.747 521.64 656.021 524.03 658.831 524.03C661.356 524.03 663.429 522.097 663.831 519.567H795.839C796.241 522.097 798.315 524.03 800.84 524.03C803.649 524.03 805.923 521.64 805.923 518.688C805.923 516.545 804.719 514.717 802.997 513.856L867.413 396.626C867.964 396.837 868.566 396.978 869.185 396.978C871.71 396.978 873.784 395.045 874.185 392.515H997.264V390.758H874.185C873.784 388.228 871.71 386.295 869.185 386.295C868.55 386.295 867.964 386.436 867.413 386.646L802.997 269.416C804.719 268.555 805.94 266.728 805.94 264.585C805.94 262.441 804.736 260.614 803.014 259.753L867.429 142.523C867.981 142.734 868.583 142.874 869.202 142.874C871.727 142.874 873.801 140.941 874.202 138.411H997.281V136.654H874.202C873.801 134.124 871.727 132.191 869.202 132.191L869.219 132.244ZM830.974 66.2318L803.03 15.3829C804.753 14.522 805.974 12.6947 805.974 10.5511C805.974 7.59924 803.699 5.20966 800.89 5.20966C798.365 5.20966 796.291 7.14241 795.89 9.67255H778.047L809.937 -48.3626C810.489 -48.1518 811.091 -48.0112 811.709 -48.0112C814.234 -48.0112 816.308 -49.9439 816.709 -52.4741H826.927L859.302 6.45717C858.165 7.44112 857.429 8.89946 857.429 10.5686C857.429 12.2378 858.165 13.6962 859.302 14.6801L830.957 66.2494L830.974 66.2318ZM821.141 81.0262C818.616 81.0262 816.542 82.9589 816.141 85.489H742.076C741.675 82.9589 739.601 81.0262 737.076 81.0262C736.942 81.0262 736.825 81.0612 736.708 81.0612L733.129 74.5602H737.16C737.561 77.0904 739.635 79.0231 742.16 79.0231C744.969 79.0231 747.243 76.6335 747.243 73.6817C747.243 71.9422 746.441 70.396 745.203 69.4121L777.06 11.4296H795.873C796.274 13.9597 798.348 15.8925 800.873 15.8925C801.04 15.8925 801.191 15.8573 801.358 15.8398L830.004 67.9713L822.696 81.2897C822.211 81.1316 821.693 81.0085 821.141 81.0085V81.0262ZM697.226 156.843C694.701 156.843 692.627 158.775 692.226 161.305H618.746C618.345 158.775 616.271 156.843 613.746 156.843C613.094 156.843 612.492 156.983 611.923 157.212L596.054 128.343L625.603 74.5778H730.119L734.2 81.9925C732.879 82.9589 732.009 84.5578 732.009 86.3851C732.009 88.5638 733.247 90.4263 735.036 91.2697L698.831 157.159C698.33 156.983 697.794 156.86 697.243 156.86L697.226 156.843ZM585.92 390.811H455.081C454.68 388.28 452.606 386.348 450.081 386.348C449.446 386.348 448.861 386.488 448.309 386.699L383.675 269.065C385.013 268.099 385.9 266.482 385.9 264.655C385.9 262.827 385.013 261.193 383.675 260.245L437.071 163.08H442.406C442.807 165.61 444.881 167.543 447.406 167.543C450.215 167.543 452.489 165.153 452.489 162.202C452.489 160.497 451.703 158.986 450.516 158.002L461.235 138.499H584.983C585.385 141.029 587.458 142.962 589.983 142.962C590.268 142.962 590.535 142.927 590.786 142.874L655.519 260.666C654.382 261.65 653.663 263.109 653.663 264.778C653.663 266.447 654.366 267.817 655.436 268.801L590.836 386.365C588.344 386.418 586.321 388.316 585.92 390.828V390.811ZM243.656 263.776C243.222 261.334 241.198 259.472 238.74 259.436L233.924 250.669L236.984 245.099C237.519 245.31 238.088 245.433 238.707 245.433C241.232 245.433 243.305 243.5 243.707 240.97H317.337C317.738 243.5 319.812 245.433 322.337 245.433C325.146 245.433 327.42 243.043 327.42 240.091C327.42 238.457 326.701 237.017 325.598 236.033L363.257 167.508C363.424 167.525 363.592 167.561 363.759 167.561C366.284 167.561 368.358 165.628 368.759 163.098H434.278L381.368 259.401C381.167 259.384 380.983 259.349 380.782 259.349C378.257 259.349 376.184 261.281 375.782 263.811H243.64L243.656 263.776ZM200.445 311.603L232.971 252.426L237.001 259.753C235.028 260.491 233.589 262.441 233.589 264.778C233.589 267.115 234.961 268.995 236.884 269.768L204.81 328.119L200.445 320.177C201.699 319.211 202.519 317.647 202.519 315.89C202.519 314.133 201.699 312.569 200.445 311.603ZM174.057 133.509L206.432 74.5778H230.362L235.696 84.1361C234.425 85.1025 233.606 86.6663 233.606 88.4409C233.606 90.2155 234.442 91.7968 235.73 92.7632L199.191 159.25C198.639 159.039 198.037 158.898 197.418 158.898C194.893 158.898 192.819 160.831 192.418 163.361H185.963L174.057 141.697C175.194 140.713 175.93 139.255 175.93 137.585C175.93 135.916 175.194 134.458 174.057 133.474V133.509ZM239.091 15.9101C241.616 15.9101 243.69 13.9773 244.091 11.4472H358.759C358.976 12.8001 359.662 13.9597 360.648 14.768L328.741 72.8207H231.332L219.275 51.2267L238.707 15.8749C238.84 15.8749 238.957 15.9101 239.091 15.9101ZM325.514 -67.3387L361.234 -132.332L402.371 -57.4641C401.234 -56.4801 400.499 -55.0218 400.499 -53.3526C400.499 -51.6834 401.234 -50.2251 402.371 -49.2411L369.996 9.69012H368.792C368.391 7.15999 366.317 5.22723 363.792 5.22723C362.856 5.22723 362.003 5.50836 361.25 5.96519L325.531 -59.0279C326.685 -60.0118 327.454 -61.4877 327.454 -63.1745C327.454 -64.8613 326.701 -66.3372 325.547 -67.3211L325.514 -67.3387ZM480.617 -52.4741L448.794 5.43808C448.342 5.29752 447.891 5.20966 447.406 5.20966C444.881 5.20966 442.807 7.14241 442.406 9.67255H371.919L403.81 -48.3626C404.361 -48.1518 404.963 -48.0112 405.582 -48.0112C408.107 -48.0112 410.181 -49.9439 410.582 -52.4741H480.617ZM527.474 -52.4741C527.875 -49.9439 529.949 -48.0112 532.474 -48.0112C533.109 -48.0112 533.695 -48.1518 534.247 -48.3626L589.615 52.4039L572.742 83.117C572.642 83.117 572.558 83.0819 572.458 83.0819C569.933 83.0819 567.859 85.0146 567.458 87.5448H492.557C492.189 85.2079 490.366 83.3981 488.109 83.1346L450.533 14.7328C451.72 13.7489 452.506 12.2554 452.506 10.5335C452.506 9.19817 452.021 8.00337 451.269 7.07213L483.995 -52.5092H527.474V-52.4741ZM567.458 -62.3135C567.859 -59.7834 569.933 -57.8507 572.458 -57.8507C572.558 -57.8507 572.642 -57.8682 572.742 -57.8858L609.131 8.31964C608.83 9.00488 608.662 9.74283 608.662 10.5511C608.662 12.1676 609.348 13.5908 610.418 14.5571L590.602 50.6293L535.718 -49.2587C536.855 -50.2426 537.591 -51.701 537.591 -53.3702C537.591 -55.0394 536.855 -56.4977 535.718 -57.4817L538.377 -62.3311H567.474L567.458 -62.3135ZM658.346 11.4296L624.616 72.8032H607.291C606.89 70.273 604.816 68.3403 602.291 68.3403C601.656 68.3403 601.054 68.4808 600.502 68.6917L591.605 52.4917L611.923 15.5235C612.492 15.7519 613.094 15.8925 613.746 15.8925C616.271 15.8925 618.345 13.9597 618.746 11.4296H658.362H658.346ZM692.226 11.4296C692.627 13.9597 694.701 15.8925 697.226 15.8925C697.443 15.8925 697.644 15.8573 697.845 15.8222L729.149 72.7856H626.556L660.285 11.412H692.226V11.4296ZM737.093 -59.924C739.618 -59.924 741.691 -61.8567 742.093 -64.3869H804.703L808.499 -57.4641C807.361 -56.4801 806.626 -55.0218 806.626 -53.3526C806.626 -51.6834 807.361 -50.2251 808.499 -49.2411L776.123 9.69012H702.243C701.975 7.98579 700.938 6.56259 699.5 5.80707L735.721 -60.1172C736.156 -59.9942 736.608 -59.8888 737.093 -59.8888V-59.924ZM742.176 68.3227C739.651 68.3227 737.578 70.2555 737.176 72.7856H732.176L700.303 14.768C701.306 13.9597 702.025 12.7825 702.243 11.412H775.154L743.732 68.6038C743.247 68.4457 742.728 68.3227 742.176 68.3227ZM447.406 156.825C444.881 156.825 442.807 158.758 442.406 161.288H438.024L448.309 142.575C448.861 142.786 449.463 142.927 450.081 142.927C452.606 142.927 454.68 140.994 455.081 138.464H459.295L449.044 157.141C448.526 156.948 447.974 156.825 447.406 156.825ZM368.776 161.288C368.374 158.758 366.301 156.825 363.775 156.825C363.19 156.825 362.655 156.948 362.137 157.141L326.25 91.8319C326.986 90.9007 327.437 89.7235 327.437 88.4409C327.437 86.3851 326.317 84.6281 324.695 83.732L329.728 74.5778H330.932C331.333 77.1079 333.407 79.0407 335.932 79.0407C338.742 79.0407 341.016 76.6511 341.016 73.6992C341.016 71.9949 340.23 70.4839 339.043 69.4999L369.812 13.5029H380.916L446.854 133.491C445.717 134.475 444.981 135.934 444.981 137.603C444.981 138.991 445.499 140.221 446.302 141.17L435.248 161.305H368.759L368.776 161.288ZM322.337 234.697C319.812 234.697 317.738 236.63 317.337 239.16H243.707C243.305 236.63 241.232 234.697 238.707 234.697C238.205 234.697 237.72 234.803 237.252 234.943L200.646 168.334C201.783 167.35 202.519 165.891 202.519 164.222C202.519 162.553 201.783 161.095 200.646 160.111L237.252 93.5011C237.72 93.6417 238.188 93.7471 238.707 93.7471C241.232 93.7471 243.305 91.8144 243.707 89.2842H317.337C317.738 91.8144 319.812 93.7471 322.337 93.7471C322.989 93.7471 323.608 93.6066 324.176 93.3781L360.013 158.582C359.193 159.531 358.692 160.778 358.692 162.149C358.692 164.275 359.879 166.102 361.602 166.963L324.176 235.049C323.608 234.82 322.989 234.68 322.337 234.68V234.697ZM322.337 83.0643C319.812 83.0643 317.738 84.997 317.337 87.5272H243.707C243.305 84.997 241.232 83.0643 238.707 83.0643C238.188 83.0643 237.686 83.1697 237.218 83.3279L232.318 74.5426H327.788L323.056 83.1522C322.822 83.117 322.587 83.0819 322.337 83.0819V83.0643ZM369.01 11.412L368.842 11.7283H368.725C368.742 11.6229 368.759 11.5175 368.776 11.412H369.026H369.01ZM442.389 11.412C442.389 11.5175 442.422 11.6229 442.439 11.7283H381.886L381.719 11.412H442.389ZM485.701 83.4508L448.493 15.7519C448.677 15.7168 448.861 15.6465 449.044 15.5762L486.252 83.2751C486.069 83.3279 485.885 83.3806 485.717 83.4508H485.701ZM379.963 11.7283H370.782L370.95 11.412H379.796L379.963 11.7283ZM363.775 15.8925C365.281 15.8925 366.618 15.1897 367.555 14.1003L337.588 68.639C337.069 68.4457 336.517 68.3227 335.932 68.3227C334.444 68.3227 333.106 69.0079 332.17 70.0973L362.12 15.5762C362.638 15.7695 363.19 15.8925 363.759 15.8925H363.775ZM330.932 72.8032H330.698L331.116 72.0301C331.032 72.276 330.966 72.5396 330.932 72.8032ZM455.098 136.724C454.697 134.194 452.623 132.262 450.098 132.262C449.462 132.262 448.877 132.402 448.325 132.613L382.873 13.5029H443.175C443.944 14.7328 445.182 15.5762 446.62 15.8222L484.296 84.3821C483.192 85.366 482.49 86.8068 482.49 88.4409C482.49 90.1803 483.293 91.6914 484.497 92.6753L460.299 136.724H455.115H455.098ZM229.409 72.8032H207.418L218.322 52.9486L229.409 72.8032ZM192.435 165.118C192.836 167.648 194.91 169.581 197.435 169.581C197.97 169.581 198.472 169.476 198.94 169.318L235.529 235.91C234.375 236.894 233.606 238.369 233.606 240.056C233.606 241.743 234.359 243.219 235.529 244.203L232.954 248.894L186.916 165.136H192.418L192.435 165.118ZM589.983 132.244C587.458 132.244 585.385 134.177 584.983 136.707H462.205L485.968 93.466C486.47 93.6417 487.005 93.7647 487.557 93.7647C490.082 93.7647 492.156 91.8319 492.557 89.3018H567.458C567.859 91.8319 569.933 93.7647 572.458 93.7647C573.311 93.7647 574.08 93.5363 574.782 93.1497L594.114 128.326L591.756 132.595C591.204 132.385 590.602 132.244 589.983 132.244ZM576.137 92.0955C577.006 91.1291 577.542 89.8465 577.542 88.4233C577.542 86.2445 576.304 84.3821 574.531 83.5563L590.635 54.2488L599.064 69.5878C597.943 70.5717 597.207 72.0301 597.207 73.6817C597.207 76.6335 599.482 79.0231 602.291 79.0231C604.816 79.0231 606.89 77.0904 607.291 74.5602H623.646L595.067 126.569L576.12 92.0955H576.137ZM984.555 -69.3769C983.418 -68.3929 982.682 -66.9346 982.682 -65.2654C982.682 -63.5962 983.418 -62.1378 984.555 -61.1539L947.899 5.56108C947.347 5.35023 946.745 5.20966 946.126 5.20966C943.601 5.20966 941.528 7.14241 941.126 9.67255H867.546C867.145 7.14241 865.071 5.20966 862.546 5.20966C861.994 5.20966 861.493 5.31509 860.991 5.4908L829.134 -52.4741H937.347C937.748 -49.9439 939.822 -48.0112 942.347 -48.0112C945.156 -48.0112 947.431 -50.4008 947.431 -53.3526C947.431 -55.0042 946.695 -56.4801 945.574 -57.4465L968.451 -98.6668L984.555 -69.3417V-69.3769ZM860.071 -134.37C860.807 -133.948 861.627 -133.685 862.53 -133.685C865.339 -133.685 867.613 -136.074 867.613 -139.026C867.613 -139.43 867.563 -139.834 867.479 -140.221H941.109C941.511 -137.691 943.584 -135.758 946.11 -135.758C946.745 -135.758 947.33 -135.899 947.882 -136.109L967.464 -100.459L944.103 -58.3778C943.551 -58.6062 942.949 -58.7292 942.314 -58.7292C939.788 -58.7292 937.715 -56.7964 937.313 -54.2663H828.131L824.335 -61.189C825.472 -62.173 826.208 -63.6313 826.208 -65.3005C826.208 -66.9697 825.472 -68.428 824.335 -69.412L860.055 -134.405L860.071 -134.37ZM816.141 -64.4044C816.542 -61.8743 818.616 -59.9415 821.141 -59.9415C821.693 -59.9415 822.195 -60.047 822.696 -60.2227L825.974 -54.2663H816.726C816.325 -56.7964 814.251 -58.7292 811.726 -58.7292C811.091 -58.7292 810.505 -58.5886 809.953 -58.3778L806.642 -64.4044H816.158H816.141ZM600.519 -175.45C601.07 -175.239 601.672 -175.098 602.291 -175.098C604.8 -175.098 606.873 -177.013 607.291 -179.544H737.16C737.578 -177.031 739.651 -175.098 742.16 -175.098C742.695 -175.098 743.213 -175.204 743.698 -175.379L803.716 -66.1615H742.076C741.675 -68.6916 739.601 -70.6244 737.076 -70.6244C734.267 -70.6244 731.992 -68.2348 731.992 -65.2829C731.992 -63.4556 732.862 -61.8567 734.183 -60.8903L697.845 5.26237C697.644 5.24481 697.443 5.19209 697.226 5.19209C694.701 5.19209 692.627 7.12485 692.226 9.655H618.746C618.345 7.12485 616.271 5.19209 613.746 5.19209C612.358 5.19209 611.104 5.77191 610.184 6.72072L574.465 -58.2899C576.287 -59.0982 577.558 -60.9958 577.558 -63.2096C577.558 -65.4235 576.221 -67.3914 574.348 -68.1645L613.194 -142.47L611.723 -143.313L572.625 -68.5335C572.625 -68.5335 572.525 -68.5335 572.475 -68.5335C569.95 -68.5335 567.876 -66.6007 567.474 -64.0706H539.347L600.535 -175.432L600.519 -175.45ZM534.247 -58.3602C533.695 -58.571 533.093 -58.7116 532.474 -58.7116C529.949 -58.7116 527.875 -56.7789 527.474 -54.2487H484.948L486.972 -57.9209C487.172 -57.9034 487.356 -57.8507 487.557 -57.8507C490.082 -57.8507 492.156 -59.7834 492.557 -62.3135H536.437L534.263 -58.3426L534.247 -58.3602ZM485.316 -67.9888C483.627 -67.1103 482.473 -65.3181 482.473 -63.2096C482.473 -61.5756 483.192 -60.1348 484.279 -59.1509L481.587 -54.2487H410.599C410.198 -56.7789 408.124 -58.7116 405.599 -58.7116C404.963 -58.7116 404.378 -58.571 403.826 -58.3602L362.304 -133.931C362.772 -133.773 363.274 -133.667 363.792 -133.667C366.317 -133.667 368.391 -135.6 368.792 -138.13H442.422C442.824 -135.6 444.897 -133.667 447.422 -133.667C448.008 -133.667 448.543 -133.79 449.061 -133.983L485.333 -67.9888H485.316ZM194.291 -175.274C194.709 -175.151 195.144 -175.063 195.612 -175.063C198.137 -175.063 200.211 -176.996 200.612 -179.526H330.915C331.317 -176.996 333.39 -175.063 335.915 -175.063C336.501 -175.063 337.053 -175.186 337.571 -175.379L360.247 -134.106L324.042 -68.2172C323.507 -68.428 322.939 -68.551 322.32 -68.551C319.511 -68.551 317.236 -66.1615 317.236 -63.2096C317.236 -60.2578 319.511 -57.8682 322.32 -57.8682C322.922 -57.8682 323.491 -57.9912 324.042 -58.2021L359.913 7.07213C359.327 7.79253 358.909 8.67105 358.759 9.655H244.091C243.69 7.12485 241.616 5.19209 239.091 5.19209C236.282 5.19209 234.007 7.58168 234.007 10.5335C234.007 12.7122 235.245 14.5571 237.018 15.4005L218.305 49.4345L196.331 10.0767L194.893 10.9728L217.352 51.1915L205.495 72.7856H200.629C200.228 70.2555 198.154 68.3227 195.629 68.3227C195.579 68.3227 195.529 68.3227 195.478 68.3227L130.979 -49.0479C132.267 -50.0142 133.119 -51.5956 133.119 -53.3878C133.119 -55.6016 131.849 -57.4817 130.026 -58.3075L194.291 -175.274ZM195.462 79.0055C195.462 79.0055 195.562 79.0055 195.612 79.0055C198.137 79.0055 200.211 77.0728 200.612 74.5426H204.509L172.618 132.578C172.067 132.367 171.465 132.226 170.846 132.226C168.321 132.226 166.247 134.159 165.846 136.689H163.772L195.478 78.988L195.462 79.0055ZM162.786 138.464H165.829C166.23 140.994 168.304 142.927 170.829 142.927C171.465 142.927 172.05 142.786 172.602 142.575L184.023 163.361H149.106L162.786 138.464ZM112.015 169.23C112.567 169.441 113.169 169.581 113.788 169.581C116.313 169.581 118.387 167.648 118.788 165.118H146.197L129.44 195.621C128.972 195.48 128.504 195.375 128.002 195.375C125.477 195.375 123.404 197.307 123.002 199.837H95.1924L112.015 169.23ZM75.3593 244.15C76.4965 243.166 77.2323 241.708 77.2323 240.039C77.2323 238.369 76.4965 236.911 75.3593 235.927L94.2392 201.577H123.019C123.42 204.107 125.494 206.04 128.019 206.04C130.828 206.04 133.103 203.65 133.103 200.698C133.103 198.906 132.25 197.325 130.979 196.359L148.153 165.083H184.993L231.984 250.598L198.94 310.742C198.455 310.584 197.953 310.478 197.435 310.478C194.91 310.478 192.836 312.411 192.435 314.941H118.805C118.404 312.411 116.33 310.478 113.805 310.478C113.169 310.478 112.584 310.619 112.032 310.83L75.376 244.115L75.3593 244.15ZM112.015 320.845C112.567 321.056 113.169 321.196 113.788 321.196C116.313 321.196 118.387 319.264 118.788 316.734H192.418C192.819 319.264 194.893 321.196 197.418 321.196C197.953 321.196 198.455 321.091 198.923 320.933L203.823 329.841L172.602 386.664C172.05 386.453 171.448 386.312 170.829 386.312C168.304 386.312 166.23 388.245 165.829 390.775H77.1319C76.9312 389.475 76.2791 388.351 75.3426 387.542L111.999 320.827L112.015 320.845ZM235.546 395.765L204.793 451.727L174.04 395.765C175.177 394.781 175.913 393.323 175.913 391.654C175.913 389.985 175.177 388.526 174.04 387.542L204.793 331.581L235.546 387.542C234.409 388.526 233.673 389.985 233.673 391.654C233.673 393.323 234.409 394.781 235.546 395.765ZM198.94 462.393C198.455 462.234 197.953 462.129 197.435 462.129C194.91 462.129 192.836 464.062 192.435 466.592H118.805C118.404 464.062 116.33 462.129 113.805 462.129C113.169 462.129 112.584 462.27 112.032 462.48L75.376 395.765C76.2958 394.957 76.948 393.833 77.1654 392.532H165.862C166.264 395.063 168.337 396.995 170.863 396.995C171.498 396.995 172.083 396.855 172.635 396.644L203.856 453.467L198.957 462.375L198.94 462.393ZM382.12 513.558C381.702 513.435 381.251 513.347 380.799 513.347C378.274 513.347 376.2 515.28 375.799 517.81H243.79C243.389 515.28 241.315 513.347 238.79 513.347C238.757 513.347 238.723 513.347 238.69 513.347L205.78 453.467L237.001 396.644C237.553 396.855 238.155 396.995 238.773 396.995C241.299 396.995 243.372 395.063 243.773 392.532H317.32C317.721 395.063 319.795 396.995 322.32 396.995C325.129 396.995 327.404 394.606 327.404 391.654C327.404 388.702 325.129 386.312 322.32 386.312C319.795 386.312 317.721 388.245 317.32 390.775H243.773C243.372 388.245 241.299 386.312 238.773 386.312C238.138 386.312 237.553 386.453 237.001 386.664L205.78 329.841L238.623 270.084C238.623 270.084 238.656 270.084 238.673 270.084C241.232 270.084 243.339 268.081 243.69 265.498H375.799C376.2 268.028 378.274 269.961 380.799 269.961C381 269.961 381.184 269.926 381.384 269.908L446.319 388.087C445.499 389.036 444.998 390.283 444.998 391.654C444.998 393.306 445.733 394.781 446.871 395.765L382.137 513.558H382.12ZM865.991 387.542C864.854 388.526 864.118 389.985 864.118 391.654C864.118 393.323 864.854 394.781 865.991 395.765L801.341 513.417C801.174 513.417 801.024 513.364 800.856 513.364C798.331 513.364 796.258 515.297 795.856 517.827H663.847C663.446 515.297 661.372 513.364 658.847 513.364C658.513 513.364 658.178 513.4 657.861 513.47L593.462 396.257C594.967 395.326 595.987 393.622 595.987 391.654C595.987 389.686 594.967 387.982 593.462 387.05L657.794 269.979C658.095 270.031 658.412 270.084 658.73 270.084C661.289 270.084 663.396 268.081 663.747 265.498H795.856C796.258 268.028 798.331 269.961 800.856 269.961C801.024 269.961 801.174 269.926 801.341 269.908L865.991 387.542ZM801.341 259.313C801.174 259.313 801.024 259.261 800.856 259.261C798.331 259.261 796.258 261.193 795.856 263.724H663.714C663.262 261.246 661.205 259.384 658.73 259.384C658.446 259.384 658.178 259.419 657.911 259.472L593.177 141.679C594.314 140.695 595.05 139.237 595.05 137.568C595.05 135.899 594.314 134.44 593.177 133.456L595.05 130.048L610.452 158.073C609.348 159.056 608.629 160.497 608.629 162.149C608.629 165.101 610.903 167.49 613.713 167.49C616.238 167.49 618.312 165.558 618.713 163.027H692.192C692.594 165.558 694.667 167.49 697.192 167.49C700.002 167.49 702.276 165.101 702.276 162.149C702.276 160.409 701.473 158.881 700.253 157.914L736.675 91.6387C736.792 91.6387 736.926 91.6738 737.043 91.6738C739.568 91.6738 741.641 89.7411 742.043 87.2109H816.107C816.509 89.7411 818.582 91.6738 821.107 91.6738C823.917 91.6738 826.191 89.2842 826.191 86.3324C826.191 84.5929 825.389 83.0467 824.151 82.0628L830.94 69.7108L865.974 133.456C864.837 134.44 864.102 135.899 864.102 137.568C864.102 139.237 864.837 140.695 865.974 141.679L801.325 259.313H801.341Z" fill="white"/>
</svg>
