<svg width="1239" height="1013" viewBox="0 0 1239 1013" fill="none" xmlns="http://www.w3.org/2000/svg">
<path opacity="0.05" d="M1081.02 371.428C1080.24 371.428 1079.52 371.592 1078.85 371.838L1035.29 296.371L1070.64 235.123C1071.32 235.369 1072.05 235.533 1072.81 235.533C1075.91 235.533 1078.46 233.276 1078.95 230.321H1169.21C1169.7 233.276 1172.25 235.533 1175.34 235.533C1178.79 235.533 1181.58 232.742 1181.58 229.295C1181.58 227.367 1180.68 225.643 1179.28 224.494L1224.25 146.585C1224.93 146.831 1225.67 146.995 1226.42 146.995C1229.87 146.995 1232.66 144.205 1232.66 140.758C1232.66 137.31 1229.87 134.52 1226.42 134.52C1225.65 134.52 1224.93 134.684 1224.25 134.93L1203.9 99.6794L1239 39.4368L1237.24 38.4108L1202.71 97.6275L1179.26 57.0212C1180.66 55.8722 1181.56 54.1691 1181.56 52.2198C1181.56 50.2706 1180.6 48.4239 1179.1 47.2954L1191.51 23.9862L1189.7 23.0219L1177.29 46.331C1176.68 46.1258 1176.02 45.9822 1175.32 45.9822C1172.23 45.9822 1169.68 48.2392 1169.19 51.1939H1078C1076.9 49.5114 1074.97 48.3829 1072.79 48.3829C1072.59 48.3829 1072.4 48.4239 1072.2 48.4444L1058.11 23.0014L1056.3 23.9862L1070.13 48.9779C1067.99 49.9833 1066.52 52.1172 1066.52 54.6205C1066.52 56.221 1067.13 57.6573 1068.12 58.7653L1024.15 134.91C1023.48 134.664 1022.74 134.499 1021.98 134.499C1018.88 134.499 1016.34 136.756 1015.85 139.711H1002.98L928.824 11.2237C930.342 10.0952 931.348 8.28951 931.348 6.23765C931.348 2.79053 928.558 0 925.111 0C922.014 0 919.449 2.27756 918.977 5.25276H759.684C759.212 2.27756 756.648 0 753.55 0C750.104 0 747.314 2.79053 747.314 6.23765C747.314 8.18692 748.217 9.88997 749.612 11.039L673.935 142.132H618.936C618.443 139.178 615.9 136.921 612.802 136.921C612.556 136.921 612.33 136.962 612.084 137.003L567.363 59.545C568.82 58.3959 569.784 56.6519 569.784 54.641C569.784 51.1939 566.994 48.4034 563.547 48.4034C560.45 48.4034 557.906 50.6604 557.414 53.6151H467.089C466.597 50.6604 464.053 48.4034 460.956 48.4034C457.858 48.4034 455.519 50.4758 454.883 53.2458L430.615 11.2032C432.071 10.0541 433.036 8.31003 433.036 6.29921C433.036 2.85209 430.246 0.0615558 426.799 0.0615558C423.702 0.0615558 421.158 2.3186 420.665 5.27328H260.818C260.326 2.3186 257.782 0.0615558 254.685 0.0615558C251.238 0.0615558 248.448 2.85209 248.448 6.29921C248.448 8.45366 249.536 10.3414 251.177 11.4699L172.094 148.452C171.971 148.452 171.868 148.411 171.745 148.411C168.648 148.411 166.104 150.668 165.612 153.623H0V155.675H165.612C166.104 158.629 168.648 160.886 171.745 160.886C171.868 160.886 171.971 160.866 172.094 160.845L251.177 297.828C249.515 298.956 248.428 300.844 248.428 302.998C248.428 305.625 250.069 307.882 252.366 308.784L213.225 376.598H48.3111V378.65H212.056L195.275 407.725H160.463C159.97 404.77 157.426 402.513 154.329 402.513C150.882 402.513 148.092 405.304 148.092 408.751C148.092 410.68 148.995 412.403 150.39 413.552L129.158 450.342H0V452.394H127.947L105.382 491.462C104.705 491.215 103.966 491.051 103.207 491.051C100.11 491.051 97.5658 493.308 97.0735 496.263H48.3111V498.315H97.0735C97.5658 501.269 100.11 503.526 103.207 503.526C103.987 503.526 104.705 503.362 105.382 503.116L150.349 581.025C148.954 582.174 148.051 583.877 148.051 585.827C148.051 587.776 148.954 589.479 150.349 590.628L105.382 668.537C104.705 668.291 103.966 668.127 103.207 668.127C100.11 668.127 97.5658 670.384 97.0735 673.338H48.3111V675.39H97.0735C97.5658 678.345 100.11 680.602 103.207 680.602C103.987 680.602 104.705 680.438 105.382 680.192L150.349 758.101C148.954 759.25 148.051 760.953 148.051 762.902C148.051 764.851 148.913 766.493 150.267 767.621L105.484 842.186C104.766 841.899 104.007 841.734 103.207 841.734C100.151 841.734 97.6274 843.93 97.0735 846.823L48.3111 845.838L48.2701 847.89L97.0325 848.875C97.4633 851.891 100.048 854.21 103.187 854.21C103.946 854.21 104.684 854.046 105.361 853.799L153.406 937.351L155.19 936.325L107.146 852.753C108.541 851.604 109.444 849.901 109.444 847.952C109.444 846.002 108.582 844.361 107.228 843.232L152.011 768.668C152.729 768.955 153.488 769.119 154.288 769.119C157.385 769.119 159.929 766.862 160.422 763.907H250.746C251.238 766.862 253.782 769.119 256.88 769.119C260.326 769.119 263.116 766.329 263.116 762.882C263.116 760.83 262.111 759.004 260.572 757.875L265.926 748.601L305.355 816.907C303.016 817.81 301.355 820.067 301.355 822.714C301.355 825.361 303.016 827.618 305.355 828.521L226.149 965.749C225.206 965.174 224.118 964.826 222.928 964.826C219.831 964.826 217.287 967.083 216.795 970.037H50.7318V972.089H216.836C217.328 975.044 219.872 977.301 222.97 977.301C223.441 977.301 223.893 977.239 224.323 977.137L303.673 1114.61C302.278 1115.76 301.375 1117.46 301.375 1119.41C301.375 1121.36 302.278 1123.07 303.673 1124.21L224.323 1261.69C223.893 1261.59 223.421 1261.52 222.97 1261.52C219.523 1261.52 216.733 1264.32 216.733 1267.76C216.733 1271.21 219.523 1274 222.97 1274C226.416 1274 229.206 1271.21 229.206 1267.76C229.206 1265.53 228.016 1263.58 226.231 1262.47L305.457 1125.24C306.134 1125.49 306.873 1125.65 307.632 1125.65C311.078 1125.65 313.868 1122.86 313.868 1119.41C313.868 1115.97 311.078 1113.18 307.632 1113.18C306.852 1113.18 306.134 1113.34 305.457 1113.59L226.231 976.357C227.996 975.249 229.206 973.3 229.206 971.063C229.206 969.545 228.652 968.191 227.749 967.103L307.509 828.931C307.509 828.931 307.591 828.931 307.632 828.931C310.73 828.931 313.273 826.674 313.766 823.719H475.705C476.198 826.674 478.741 828.931 481.839 828.931C482.413 828.931 482.947 828.828 483.46 828.685L565.927 971.556L567.712 970.53L485.347 827.843C486.988 826.715 488.075 824.827 488.075 822.693C488.075 820.559 486.988 818.651 485.347 817.543L564.635 680.171C565.312 680.417 566.05 680.581 566.809 680.581C569.907 680.581 572.451 678.324 572.943 675.37H733.446C733.939 678.324 736.483 680.581 739.58 680.581C739.991 680.581 740.401 680.54 740.791 680.458L819.791 817.338C817.945 818.425 816.693 820.416 816.693 822.714C816.693 826.161 819.483 828.951 822.93 828.951C826.027 828.951 828.571 826.694 829.063 823.74H991.003C991.495 826.694 994.039 828.951 997.137 828.951C1000.58 828.951 1003.37 826.161 1003.37 822.714C1003.37 820.211 1001.9 818.077 999.783 817.071L1078.8 680.171C1079.48 680.417 1080.22 680.581 1080.98 680.581C1084.08 680.581 1086.62 678.324 1087.11 675.37H1238.1V673.318H1087.11C1086.62 670.363 1084.08 668.106 1080.98 668.106C1080.2 668.106 1079.48 668.27 1078.8 668.517L999.783 531.616C1001.9 530.611 1003.39 528.477 1003.39 525.974C1003.39 523.471 1001.92 521.337 999.804 520.331L1078.82 383.431C1079.5 383.677 1080.24 383.841 1081 383.841C1084.1 383.841 1086.64 381.584 1087.13 378.63H1238.12V376.578H1087.13C1086.64 373.623 1084.1 371.366 1081 371.366L1081.02 371.428ZM1034.1 294.339L999.824 234.958C1001.94 233.953 1003.43 231.819 1003.43 229.316C1003.43 225.869 1000.64 223.078 997.198 223.078C994.101 223.078 991.557 225.335 991.065 228.29H969.176L1008.3 160.517C1008.97 160.763 1009.71 160.927 1010.47 160.927C1013.57 160.927 1016.11 158.67 1016.6 155.716H1029.14L1068.85 224.535C1067.46 225.684 1066.56 227.387 1066.56 229.336C1066.56 231.286 1067.46 232.989 1068.85 234.138L1034.08 294.36L1034.1 294.339ZM1022.04 311.616C1018.94 311.616 1016.4 313.873 1015.91 316.828H925.05C924.557 313.873 922.014 311.616 918.916 311.616C918.752 311.616 918.608 311.657 918.465 311.657L914.075 304.065H919.018C919.511 307.02 922.055 309.277 925.152 309.277C928.599 309.277 931.389 306.486 931.389 303.039C931.389 301.008 930.404 299.202 928.886 298.053L967.966 230.342H991.044C991.536 233.296 994.08 235.554 997.178 235.554C997.383 235.554 997.568 235.512 997.773 235.492L1032.91 296.371L1023.95 311.924C1023.35 311.739 1022.72 311.595 1022.04 311.595V311.616ZM870.03 400.154C866.933 400.154 864.389 402.411 863.897 405.365H773.757C773.265 402.411 770.721 400.154 767.623 400.154C766.823 400.154 766.085 400.318 765.387 400.585L745.919 366.873L782.168 304.086H910.382L915.388 312.745C913.767 313.873 912.7 315.74 912.7 317.874C912.7 320.418 914.218 322.593 916.413 323.578L872 400.523C871.384 400.318 870.728 400.174 870.051 400.174L870.03 400.154ZM733.487 673.379H572.984C572.492 670.425 569.948 668.168 566.85 668.168C566.071 668.168 565.353 668.332 564.676 668.578L485.388 531.206C487.029 530.078 488.116 528.19 488.116 526.056C488.116 523.922 487.029 522.014 485.388 520.906L550.89 407.438H557.434C557.926 410.393 560.47 412.65 563.568 412.65C567.014 412.65 569.804 409.859 569.804 406.412C569.804 404.422 568.84 402.657 567.383 401.508L580.533 378.732H732.339C732.831 381.687 735.375 383.944 738.472 383.944C738.821 383.944 739.149 383.903 739.457 383.841L818.868 521.398C817.473 522.547 816.591 524.25 816.591 526.199C816.591 528.149 817.452 529.749 818.765 530.898L739.519 668.188C736.462 668.25 733.98 670.466 733.487 673.4V673.379ZM313.622 525.03C313.089 522.178 310.606 520.003 307.591 519.962L301.683 509.723L305.437 503.219C306.093 503.465 306.791 503.609 307.55 503.609C310.647 503.609 313.191 501.352 313.684 498.397H404.008C404.5 501.352 407.044 503.609 410.142 503.609C413.588 503.609 416.378 500.818 416.378 497.371C416.378 495.463 415.496 493.78 414.142 492.631L460.34 412.609C460.545 412.629 460.75 412.67 460.956 412.67C464.053 412.67 466.597 410.413 467.089 407.458H547.464L482.557 519.921C482.311 519.9 482.085 519.859 481.839 519.859C478.741 519.859 476.198 522.116 475.705 525.071H313.602L313.622 525.03ZM260.613 580.882L300.513 511.775L305.457 520.331C303.037 521.193 301.272 523.471 301.272 526.199C301.272 528.928 302.955 531.124 305.314 532.027L265.967 600.169L260.613 590.895C262.152 589.766 263.157 587.94 263.157 585.888C263.157 583.836 262.152 582.01 260.613 580.882ZM228.242 372.905L267.957 304.086H297.313L303.857 315.248C302.298 316.376 301.293 318.202 301.293 320.275C301.293 322.347 302.319 324.194 303.898 325.322L259.075 402.965C258.398 402.719 257.659 402.554 256.9 402.554C253.802 402.554 251.259 404.811 250.766 407.766H242.848L228.242 382.467C229.637 381.318 230.539 379.615 230.539 377.665C230.539 375.716 229.637 374.013 228.242 372.864V372.905ZM308.022 235.574C311.119 235.574 313.663 233.317 314.155 230.362H454.822C455.088 231.942 455.93 233.296 457.14 234.24L417.999 302.034H298.503L283.712 276.816L307.55 235.533C307.714 235.533 307.858 235.574 308.022 235.574ZM414.039 138.357L457.858 62.4586L508.323 149.888C506.928 151.037 506.025 152.74 506.025 154.69C506.025 156.639 506.928 158.342 508.323 159.491L468.607 228.31H467.13C466.638 225.356 464.094 223.099 460.997 223.099C459.848 223.099 458.802 223.427 457.878 223.961L414.06 148.062C415.475 146.913 416.419 145.19 416.419 143.22C416.419 141.25 415.496 139.526 414.08 138.377L414.039 138.357ZM604.309 155.716L565.271 223.345C564.717 223.181 564.163 223.078 563.568 223.078C560.47 223.078 557.926 225.335 557.434 228.29H470.966L510.087 160.517C510.764 160.763 511.503 160.927 512.262 160.927C515.359 160.927 517.903 158.67 518.395 155.716H604.309ZM661.79 155.716C662.283 158.67 664.826 160.927 667.924 160.927C668.703 160.927 669.421 160.763 670.098 160.517L738.021 278.191L717.322 314.058C717.199 314.058 717.097 314.017 716.974 314.017C713.876 314.017 711.332 316.274 710.84 319.228H618.956C618.505 316.499 616.269 314.386 613.5 314.078L567.404 234.199C568.861 233.05 569.825 231.306 569.825 229.295C569.825 227.736 569.23 226.341 568.307 225.253L608.453 155.675H661.79V155.716ZM710.84 144.225C711.332 147.18 713.876 149.437 716.974 149.437C717.097 149.437 717.199 149.416 717.322 149.396L761.961 226.71C761.592 227.51 761.387 228.372 761.387 229.316C761.387 231.204 762.228 232.866 763.541 233.994L739.232 276.119L671.904 159.471C673.299 158.322 674.201 156.618 674.201 154.669C674.201 152.72 673.299 151.017 671.904 149.868L675.165 144.205H710.86L710.84 144.225ZM822.335 230.342L780.958 302.013H759.705C759.212 299.059 756.669 296.802 753.571 296.802C752.791 296.802 752.053 296.966 751.376 297.212L740.462 278.294L765.387 235.123C766.085 235.389 766.823 235.554 767.623 235.554C770.721 235.554 773.265 233.296 773.757 230.342H822.355H822.335ZM863.897 230.342C864.389 233.296 866.933 235.554 870.03 235.554C870.297 235.554 870.543 235.512 870.789 235.471L909.192 301.993H783.337L824.714 230.321H863.897V230.342ZM918.936 147.016C922.034 147.016 924.578 144.759 925.07 141.804H1001.88L1006.53 149.888C1005.14 151.037 1004.23 152.74 1004.23 154.69C1004.23 156.639 1005.14 158.342 1006.53 159.491L966.817 228.31H876.185C875.857 226.32 874.585 224.658 872.82 223.776L917.254 146.79C917.788 146.934 918.342 147.057 918.936 147.057V147.016ZM925.173 296.781C922.075 296.781 919.531 299.038 919.039 301.993H912.905L873.805 234.24C875.036 233.296 875.918 231.922 876.185 230.321H965.627L927.081 297.109C926.486 296.925 925.85 296.781 925.173 296.781ZM563.568 400.133C560.47 400.133 557.926 402.39 557.434 405.345H552.059L564.676 383.493C565.353 383.739 566.091 383.903 566.85 383.903C569.948 383.903 572.492 381.646 572.984 378.691H578.154L565.578 400.503C564.942 400.277 564.265 400.133 563.568 400.133ZM467.11 405.345C466.617 402.39 464.074 400.133 460.976 400.133C460.258 400.133 459.602 400.277 458.966 400.503L414.942 324.235C415.845 323.147 416.399 321.773 416.399 320.275C416.399 317.874 415.024 315.822 413.034 314.776L419.209 304.086H420.686C421.178 307.04 423.722 309.297 426.82 309.297C430.266 309.297 433.056 306.507 433.056 303.06C433.056 301.069 432.092 299.305 430.635 298.156L468.382 232.763H482.003L562.891 372.885C561.496 374.034 560.593 375.737 560.593 377.686C560.593 379.307 561.229 380.743 562.214 381.851L548.654 405.365H467.089L467.11 405.345ZM410.142 491.072C407.044 491.072 404.5 493.329 404.008 496.283H313.684C313.191 493.329 310.647 491.072 307.55 491.072C306.934 491.072 306.34 491.195 305.765 491.359L260.859 413.573C262.254 412.424 263.157 410.721 263.157 408.772C263.157 406.822 262.254 405.119 260.859 403.97L305.765 326.184C306.34 326.348 306.914 326.471 307.55 326.471C310.647 326.471 313.191 324.214 313.684 321.26H404.008C404.5 324.214 407.044 326.471 410.142 326.471C410.942 326.471 411.701 326.307 412.398 326.041L456.36 402.185C455.355 403.293 454.74 404.75 454.74 406.35C454.74 408.833 456.196 410.967 458.309 411.972L412.398 491.482C411.701 491.215 410.942 491.051 410.142 491.051V491.072ZM410.142 313.996C407.044 313.996 404.5 316.253 404.008 319.208H313.684C313.191 316.253 310.647 313.996 307.55 313.996C306.914 313.996 306.298 314.119 305.724 314.304L299.713 304.045H416.829L411.024 314.099C410.737 314.058 410.449 314.017 410.142 314.017V313.996ZM467.397 230.321L467.192 230.691H467.048C467.069 230.568 467.089 230.444 467.11 230.321H467.418H467.397ZM557.414 230.321C557.414 230.444 557.455 230.568 557.475 230.691H483.193L482.988 230.321H557.414ZM610.546 314.448L564.901 235.389C565.127 235.348 565.353 235.266 565.578 235.184L611.223 314.242C610.997 314.304 610.771 314.365 610.566 314.448H610.546ZM480.834 230.691H469.572L469.777 230.321H480.629L480.834 230.691ZM460.976 235.554C462.822 235.554 464.463 234.733 465.612 233.461L428.851 297.15C428.215 296.925 427.538 296.781 426.82 296.781C424.994 296.781 423.353 297.581 422.204 298.853L458.945 235.184C459.581 235.41 460.258 235.554 460.956 235.554H460.976ZM420.686 302.013H420.399L420.912 301.11C420.809 301.398 420.727 301.706 420.686 302.013ZM573.004 376.66C572.512 373.705 569.968 371.448 566.871 371.448C566.091 371.448 565.373 371.612 564.696 371.859L484.403 232.763H558.378C559.321 234.199 560.839 235.184 562.604 235.471L608.822 315.535C607.468 316.684 606.607 318.367 606.607 320.275C606.607 322.306 607.591 324.071 609.068 325.22L579.384 376.66H573.025H573.004ZM296.144 302.013H269.168L282.543 278.827L296.144 302.013ZM250.787 409.818C251.279 412.773 253.823 415.03 256.921 415.03C257.577 415.03 258.193 414.907 258.767 414.722L303.652 492.487C302.237 493.637 301.293 495.36 301.293 497.33C301.293 499.3 302.216 501.023 303.652 502.172L300.493 507.651L244.017 409.839H250.766L250.787 409.818ZM738.472 371.428C735.375 371.428 732.831 373.685 732.339 376.639H581.723L610.874 326.143C611.489 326.348 612.146 326.492 612.823 326.492C615.92 326.492 618.464 324.235 618.956 321.28H710.84C711.332 324.235 713.876 326.492 716.974 326.492C718.02 326.492 718.963 326.225 719.825 325.774L743.54 366.852L740.647 371.838C739.97 371.592 739.232 371.428 738.472 371.428ZM721.487 324.543C722.553 323.414 723.21 321.916 723.21 320.254C723.21 317.71 721.692 315.535 719.517 314.571L739.273 280.346L749.612 298.258C748.237 299.407 747.335 301.11 747.335 303.039C747.335 306.486 750.125 309.277 753.571 309.277C756.669 309.277 759.212 307.02 759.705 304.065H779.768L744.709 364.8L721.466 324.543H721.487ZM1222.51 135.977C1221.11 137.126 1220.21 138.829 1220.21 140.778C1220.21 142.727 1221.11 144.43 1222.51 145.579L1177.54 223.489C1176.86 223.242 1176.12 223.078 1175.36 223.078C1172.27 223.078 1169.72 225.335 1169.23 228.29H1078.97C1078.48 225.335 1075.93 223.078 1072.83 223.078C1072.16 223.078 1071.54 223.201 1070.93 223.407L1031.85 155.716H1164.59C1165.09 158.67 1167.63 160.927 1170.73 160.927C1174.17 160.927 1176.96 158.137 1176.96 154.69C1176.96 152.761 1176.06 151.037 1174.69 149.909L1202.75 101.772L1222.51 136.018V135.977ZM1069.8 60.0785C1070.7 60.5709 1071.71 60.8787 1072.81 60.8787C1076.26 60.8787 1079.05 58.0882 1079.05 54.641C1079.05 54.1691 1078.99 53.6972 1078.89 53.2458H1169.21C1169.7 56.2005 1172.25 58.4575 1175.34 58.4575C1176.12 58.4575 1176.84 58.2933 1177.52 58.0471L1201.54 99.6794L1172.88 148.821C1172.21 148.555 1171.47 148.411 1170.69 148.411C1167.59 148.411 1165.05 150.668 1164.55 153.623H1030.62L1025.96 145.538C1027.35 144.389 1028.26 142.686 1028.26 140.737C1028.26 138.788 1027.35 137.085 1025.96 135.936L1069.78 60.0374L1069.8 60.0785ZM1015.91 141.784C1016.4 144.738 1018.94 146.995 1022.04 146.995C1022.72 146.995 1023.33 146.872 1023.95 146.667L1027.97 153.623H1016.63C1016.13 150.668 1013.59 148.411 1010.49 148.411C1009.71 148.411 1008.99 148.575 1008.32 148.821L1004.26 141.784H1015.93H1015.91ZM751.396 12.106C752.073 12.3522 752.812 12.5163 753.571 12.5163C756.648 12.5163 759.192 10.2798 759.705 7.32514H919.018C919.531 10.2593 922.075 12.5163 925.152 12.5163C925.809 12.5163 926.445 12.3932 927.04 12.188L1000.67 139.732H925.05C924.557 136.777 922.014 134.52 918.916 134.52C915.47 134.52 912.68 137.31 912.68 140.758C912.68 142.892 913.746 144.759 915.367 145.887L870.789 223.14C870.543 223.119 870.297 223.058 870.03 223.058C866.933 223.058 864.389 225.315 863.897 228.269H773.757C773.265 225.315 770.721 223.058 767.623 223.058C765.921 223.058 764.382 223.735 763.254 224.843L719.435 148.924C721.671 147.98 723.23 145.764 723.23 143.179C723.23 140.593 721.589 138.295 719.292 137.393L766.946 50.6194L765.141 49.6345L717.179 136.962C717.179 136.962 717.056 136.962 716.994 136.962C713.896 136.962 711.353 139.219 710.86 142.173H676.355L751.417 12.1265L751.396 12.106ZM670.098 148.842C669.421 148.596 668.683 148.432 667.924 148.432C664.826 148.432 662.283 150.689 661.79 153.643H609.622L612.105 149.355C612.351 149.375 612.576 149.437 612.823 149.437C615.92 149.437 618.464 147.18 618.956 144.225H672.786L670.119 148.862L670.098 148.842ZM610.074 137.598C608.002 138.624 606.586 140.717 606.586 143.179C606.586 145.087 607.468 146.77 608.802 147.919L605.499 153.643H518.416C517.924 150.689 515.38 148.432 512.282 148.432C511.503 148.432 510.785 148.596 510.108 148.842L459.171 60.5914C459.745 60.7761 460.361 60.8992 460.997 60.8992C464.094 60.8992 466.638 58.6422 467.13 55.6875H557.455C557.947 58.6422 560.491 60.8992 563.588 60.8992C564.306 60.8992 564.963 60.7556 565.599 60.5299L610.094 137.598H610.074ZM253.064 12.3112C253.577 12.4548 254.11 12.5574 254.685 12.5574C257.782 12.5574 260.326 10.3003 260.818 7.34566H420.665C421.158 10.3003 423.702 12.5574 426.799 12.5574C427.517 12.5574 428.194 12.4138 428.83 12.188L456.648 60.3862L412.234 137.331C411.578 137.085 410.88 136.941 410.121 136.941C406.675 136.941 403.885 139.732 403.885 143.179C403.885 146.626 406.675 149.416 410.121 149.416C410.86 149.416 411.557 149.273 412.234 149.027L456.237 225.253C455.519 226.094 455.006 227.12 454.822 228.269H314.155C313.663 225.315 311.119 223.058 308.022 223.058C304.575 223.058 301.785 225.848 301.785 229.295C301.785 231.84 303.303 233.994 305.478 234.979L282.522 274.724L255.567 228.762L253.802 229.808L281.353 276.775L266.809 301.993H260.839C260.347 299.038 257.803 296.781 254.705 296.781C254.644 296.781 254.582 296.781 254.52 296.781L175.397 159.717C176.977 158.588 178.023 156.742 178.023 154.649C178.023 152.063 176.464 149.868 174.228 148.903L253.064 12.3112ZM254.5 309.256C254.5 309.256 254.623 309.256 254.685 309.256C257.782 309.256 260.326 306.999 260.818 304.045H265.598L226.477 371.818C225.801 371.571 225.062 371.407 224.303 371.407C221.205 371.407 218.662 373.664 218.169 376.619H215.625L254.52 309.236L254.5 309.256ZM214.415 378.691H218.149C218.641 381.646 221.185 383.903 224.282 383.903C225.062 383.903 225.78 383.739 226.457 383.493L240.468 407.766H197.634L214.415 378.691ZM152.134 414.619C152.811 414.866 153.549 415.03 154.308 415.03C157.406 415.03 159.95 412.773 160.442 409.818H194.065L173.51 445.438C172.935 445.274 172.361 445.151 171.745 445.151C168.648 445.151 166.104 447.408 165.612 450.363H131.496L152.134 414.619ZM107.167 502.111C108.561 500.962 109.464 499.259 109.464 497.309C109.464 495.36 108.561 493.657 107.167 492.508L130.327 452.394H165.632C166.125 455.349 168.668 457.606 171.766 457.606C175.212 457.606 178.002 454.815 178.002 451.368C178.002 449.275 176.956 447.429 175.397 446.3L196.465 409.777H241.658L299.303 509.641L258.767 579.876C258.172 579.691 257.557 579.568 256.921 579.568C253.823 579.568 251.279 581.825 250.787 584.78H160.463C159.97 581.825 157.426 579.568 154.329 579.568C153.549 579.568 152.831 579.733 152.154 579.979L107.187 502.07L107.167 502.111ZM152.134 591.674C152.811 591.921 153.549 592.085 154.308 592.085C157.406 592.085 159.95 589.828 160.442 586.873H250.766C251.259 589.828 253.802 592.085 256.9 592.085C257.557 592.085 258.172 591.962 258.746 591.777L264.757 602.18L226.457 668.537C225.78 668.291 225.041 668.127 224.282 668.127C221.185 668.127 218.641 670.384 218.149 673.338H109.341C109.095 671.82 108.295 670.507 107.146 669.563L152.113 591.654L152.134 591.674ZM303.673 679.166L265.947 744.517L228.221 679.166C229.616 678.017 230.519 676.314 230.519 674.364C230.519 672.415 229.616 670.712 228.221 669.563L265.947 604.211L303.673 669.563C302.278 670.712 301.375 672.415 301.375 674.364C301.375 676.314 302.278 678.017 303.673 679.166ZM258.767 756.972C258.172 756.788 257.557 756.664 256.921 756.664C253.823 756.664 251.279 758.922 250.787 761.876H160.463C159.97 758.922 157.426 756.664 154.329 756.664C153.549 756.664 152.831 756.829 152.154 757.075L107.187 679.166C108.315 678.222 109.115 676.909 109.382 675.39H218.19C218.682 678.345 221.226 680.602 224.323 680.602C225.103 680.602 225.821 680.438 226.498 680.192L264.798 746.549L258.787 756.952L258.767 756.972ZM483.48 816.722C482.967 816.579 482.413 816.476 481.86 816.476C478.762 816.476 476.218 818.733 475.726 821.688H313.786C313.294 818.733 310.75 816.476 307.652 816.476C307.611 816.476 307.57 816.476 307.529 816.476L267.157 746.549L305.457 680.192C306.134 680.438 306.873 680.602 307.632 680.602C310.73 680.602 313.273 678.345 313.766 675.39H403.987C404.48 678.345 407.023 680.602 410.121 680.602C413.568 680.602 416.358 677.811 416.358 674.364C416.358 670.917 413.568 668.127 410.121 668.127C407.023 668.127 404.48 670.384 403.987 673.338H313.766C313.273 670.384 310.73 668.127 307.632 668.127C306.852 668.127 306.134 668.291 305.457 668.537L267.157 602.18L307.447 532.396C307.447 532.396 307.488 532.396 307.509 532.396C310.647 532.396 313.232 530.057 313.663 527.041H475.726C476.218 529.995 478.762 532.253 481.86 532.253C482.106 532.253 482.331 532.211 482.578 532.191L562.234 670.199C561.229 671.307 560.614 672.764 560.614 674.364C560.614 676.293 561.516 678.017 562.911 679.166L483.501 816.722H483.48ZM1077.06 669.563C1075.67 670.712 1074.76 672.415 1074.76 674.364C1074.76 676.314 1075.67 678.017 1077.06 679.166L997.752 816.558C997.547 816.558 997.362 816.497 997.157 816.497C994.06 816.497 991.516 818.754 991.024 821.708H829.084C828.592 818.754 826.048 816.497 822.95 816.497C822.54 816.497 822.13 816.538 821.74 816.62L742.739 679.74C744.586 678.653 745.837 676.662 745.837 674.364C745.837 672.066 744.586 670.076 742.739 668.988L821.658 532.273C822.027 532.335 822.417 532.396 822.807 532.396C825.945 532.396 828.53 530.057 828.961 527.041H991.024C991.516 529.995 994.06 532.253 997.157 532.253C997.362 532.253 997.547 532.211 997.752 532.191L1077.06 669.563ZM997.752 519.818C997.547 519.818 997.362 519.757 997.157 519.757C994.06 519.757 991.516 522.014 991.024 524.968H828.92C828.366 522.075 825.843 519.9 822.807 519.9C822.458 519.9 822.13 519.941 821.801 520.003L742.391 382.446C743.786 381.297 744.688 379.594 744.688 377.645C744.688 375.696 743.786 373.993 742.391 372.844L744.688 368.863L763.582 401.59C762.228 402.739 761.346 404.422 761.346 406.35C761.346 409.798 764.136 412.588 767.582 412.588C770.68 412.588 773.224 410.331 773.716 407.376H863.856C864.348 410.331 866.892 412.588 869.989 412.588C873.436 412.588 876.226 409.798 876.226 406.35C876.226 404.319 875.241 402.534 873.744 401.405L918.424 324.009C918.567 324.009 918.731 324.05 918.875 324.05C921.973 324.05 924.516 321.793 925.009 318.839H1015.87C1016.36 321.793 1018.9 324.05 1022 324.05C1025.45 324.05 1028.24 321.26 1028.24 317.813C1028.24 315.781 1027.25 313.976 1025.73 312.827L1034.06 298.402L1077.04 372.844C1075.65 373.993 1074.74 375.696 1074.74 377.645C1074.74 379.594 1075.65 381.297 1077.04 382.446L997.732 519.818H997.752Z" fill="white"/>
</svg>
