<svg width="32" height="32" viewBox="0 0 32 32" fill="none" xmlns="http://www.w3.org/2000/svg">
<path fill-rule="evenodd" clip-rule="evenodd" d="M3.16262 24.8467C2.69195 24.4121 2.33463 23.7681 2.10396 23.1267C1.79996 22.2801 1.7053 21.4694 1.7053 21.4694C1.7053 21.4627 1.70396 21.4561 1.70396 21.4494C1.70396 21.4494 1.47595 19.1667 1.47595 16.9987V15.0014C1.47595 12.7161 1.70396 10.5441 1.70396 10.5441C1.70663 10.5174 1.71063 10.4894 1.71596 10.4614C1.71596 10.4614 2.18795 8.12806 3.15995 7.15739C4.39862 5.91739 5.7493 5.85606 6.4373 5.71873C6.49196 5.70806 6.54662 5.70005 6.60262 5.69739C10.4066 5.47339 16 5.47339 16 5.47339C16 5.47339 21.5586 5.47339 25.3613 5.69472C26.1066 5.69606 27.5346 5.73872 28.84 7.15472C29.3093 7.59072 29.6653 8.23339 29.896 8.87339C30.2 9.72006 30.2946 10.5307 30.2946 10.5307C30.2946 10.5347 30.2946 10.5401 30.296 10.5441C30.296 10.5441 30.524 12.7174 30.524 14.8894V16.8881C30.524 19.1734 30.296 21.3441 30.296 21.3441C30.2933 21.3721 30.2893 21.4001 30.284 21.4267C30.284 21.4267 29.812 23.7614 28.84 24.7321C27.6013 25.9707 26.2506 26.0334 25.5626 26.1707L25.432 26.1894C21.6146 26.5267 16 26.5267 16 26.5267C16 26.5267 8.90795 26.5241 6.76929 26.2987C6.73195 26.2947 6.69595 26.2894 6.65995 26.2814C5.97862 26.1454 4.39728 26.1761 3.16262 24.8467ZM27.9106 10.8067C27.904 10.7574 27.8346 10.2334 27.6373 9.6854C27.536 9.4014 27.4133 9.09473 27.2013 8.90806C27.1653 8.87739 27.132 8.84406 27.1 8.80806C26.4386 8.0734 25.6946 8.09473 25.3266 8.09473L25.256 8.0934C21.5093 7.87207 16 7.87339 16 7.87339C16 7.87339 10.536 7.87205 6.79063 8.09072C6.33863 8.15205 5.55196 8.15873 4.85596 8.85339C4.65462 9.05606 4.52128 9.38807 4.40662 9.69606C4.21462 10.2134 4.11196 10.7107 4.08663 10.8441C4.05463 11.1641 3.87596 13.0374 3.87596 15.0014V16.9987C3.87596 19.0507 4.09196 21.2107 4.08929 21.1894C4.08929 21.1894 4.15596 21.7387 4.36263 22.3147C4.46396 22.5987 4.58662 22.9054 4.79862 23.0921C4.83462 23.1227 4.86796 23.1561 4.89996 23.1921C5.27863 23.6134 5.74263 23.7401 6.1213 23.8014C6.49196 23.8627 6.81729 23.8787 7.04795 23.9147C9.16129 24.1307 16 24.1267 16 24.1267C16 24.1267 21.4533 24.1281 25.1853 23.8014C25.6346 23.7374 26.436 23.7427 27.144 23.0347C27.3453 22.8321 27.4786 22.5014 27.5933 22.1921C27.7853 21.6761 27.888 21.1787 27.9133 21.0454C27.9453 20.7254 28.124 18.8507 28.124 16.8881V14.8894C28.124 12.9294 27.9266 10.9694 27.9106 10.8067ZM21.2346 16.7974C21.6426 16.5934 21.9 16.1774 21.9 15.7227C21.9 15.2667 21.6426 14.8507 21.2346 14.6481L13.7586 10.9281C13.3866 10.7427 12.9453 10.7641 12.592 10.9827C12.2386 11.2014 12.024 11.5867 12.024 12.0027V19.4427C12.024 19.8574 12.2386 20.2441 12.592 20.4627C12.9453 20.6814 13.3866 20.7014 13.7586 20.5161L21.2346 16.7974ZM14.424 17.5054L18.0066 15.7227L14.424 13.9401V17.5054Z" fill="#79F0B4" stroke="#79F0B4" stroke-width="0.2"/>
</svg>
